<?xml version="1.0" encoding="UTF-8"?><svg id="Layer_1" xmlns="http://www.w3.org/2000/svg" xmlns:xlink="http://www.w3.org/1999/xlink" viewBox="0 0 198 31.4"><defs><style>.cls-1{filter:url(#drop-shadow-7);}.cls-2,.cls-3,.cls-4,.cls-5{stroke-width:0px;}.cls-2,.cls-6{fill:url(#linear-gradient);}.cls-7{filter:url(#drop-shadow-4);}.cls-8{filter:url(#drop-shadow-1);}.cls-3{fill:#007330;}.cls-9{filter:url(#drop-shadow-5);}.cls-4{fill:url(#linear-gradient-2);}.cls-10{clip-path:url(#clippath);}.cls-5{fill:#fff;}.cls-11{fill:none;stroke:#fff;stroke-width:1.21px;}</style><linearGradient id="linear-gradient" x1="99.22" y1="31.42" x2="99.22" y2="-.08" gradientUnits="userSpaceOnUse"><stop offset="0" stop-color="#009640"/><stop offset=".5" stop-color="#6bbb82"/><stop offset="1" stop-color="#009640"/></linearGradient><clipPath id="clippath"><path class="cls-2" d="M15.77-.08C7.17-.08.17,6.92.17,15.52v.3c0,8.6,7,15.6,15.6,15.6h166.9c8.6,0,15.6-7,15.6-15.6v-.3c-.1-8.6-7-15.6-15.6-15.6H15.77Z"/></clipPath><linearGradient id="linear-gradient-2" x1="99.17" y1="31.32" x2="99.17" xlink:href="#linear-gradient"/><filter id="drop-shadow-1" filterUnits="userSpaceOnUse"><feOffset dx="2.13" dy="2.13"/><feGaussianBlur result="blur" stdDeviation="1.42"/><feFlood flood-color="#000" flood-opacity=".75"/><feComposite in2="blur" operator="in"/><feComposite in="SourceGraphic"/></filter><filter id="drop-shadow-4" filterUnits="userSpaceOnUse"><feOffset dx="1.13" dy="1.13"/><feGaussianBlur result="blur-2" stdDeviation=".71"/><feFlood flood-color="#000" flood-opacity=".65"/><feComposite in2="blur-2" operator="in"/><feComposite in="SourceGraphic"/></filter><filter id="drop-shadow-5" filterUnits="userSpaceOnUse"><feOffset dx="1.13" dy="1.13"/><feGaussianBlur result="blur-3" stdDeviation=".71"/><feFlood flood-color="#000" flood-opacity=".65"/><feComposite in2="blur-3" operator="in"/><feComposite in="SourceGraphic"/></filter><filter id="drop-shadow-7" filterUnits="userSpaceOnUse"><feOffset dx="1.06" dy="1.06"/><feGaussianBlur result="blur-4" stdDeviation=".66"/><feFlood flood-color="#000" flood-opacity=".65"/><feComposite in2="blur-4" operator="in"/><feComposite in="SourceGraphic"/></filter></defs><path class="cls-6" d="M15.77-.08C7.17-.08.17,6.92.17,15.52v.3c0,8.6,7,15.6,15.6,15.6h166.9c8.6,0,15.6-7,15.6-15.6v-.3c-.1-8.6-7-15.6-15.6-15.6H15.77Z"/><g class="cls-10"><rect class="cls-4" x=".17" y="-.08" width="198" height="31.4"/></g><path class="cls-3" d="M16.95,29.42c7.55,0,13.66-6.12,13.66-13.66S24.5,2.1,16.95,2.1,3.29,8.22,3.29,15.76s6.12,13.66,13.66,13.66"/><path class="cls-11" d="M16.95,29.42c7.55,0,13.66-6.12,13.66-13.66S24.5,2.1,16.95,2.1,3.29,8.22,3.29,15.76s6.12,13.66,13.66,13.66Z"/><g class="cls-8"><path class="cls-5" d="M42.3,14.91h3.6v2.53h-3.6v7.32h-2.79V7.03h7.37v2.53h-4.58v5.34Z"/><path class="cls-5" d="M48.23,7.03h2.79v17.73h-2.79V7.03Z"/><path class="cls-5" d="M55.52,11.92v12.84h-2.51V7.03h3.5l2.86,10.61V7.03h2.48v17.73h-2.86l-3.47-12.84Z"/><path class="cls-5" d="M72.88,24.76h-2.81l-.48-3.22h-3.42l-.48,3.22h-2.56l2.84-17.73h4.08l2.84,17.73ZM66.52,19.14h2.69l-1.34-8.97-1.34,8.97Z"/><path class="cls-5" d="M76.65,11.92v12.84h-2.51V7.03h3.5l2.86,10.61V7.03h2.48v17.73h-2.86l-3.47-12.84Z"/><path class="cls-5" d="M93.06,18.15v2.36c0,2.84-1.42,4.46-4.15,4.46s-4.15-1.62-4.15-4.46v-9.22c0-2.84,1.42-4.46,4.15-4.46s4.15,1.62,4.15,4.46v1.72h-2.63v-1.9c0-1.27-.56-1.75-1.44-1.75s-1.44.48-1.44,1.75v9.58c0,1.27.56,1.72,1.44,1.72s1.44-.46,1.44-1.72v-2.53h2.63Z"/><path class="cls-5" d="M97.55,14.5h3.82v2.53h-3.82v5.19h4.81v2.53h-7.6V7.03h7.6v2.53h-4.81v4.94Z"/><path class="cls-5" d="M116.09,18.15v2.36c0,2.84-1.42,4.46-4.15,4.46s-4.15-1.62-4.15-4.46v-9.22c0-2.84,1.42-4.46,4.15-4.46s4.15,1.62,4.15,4.46v1.72h-2.63v-1.9c0-1.27-.56-1.75-1.44-1.75s-1.44.48-1.44,1.75v9.58c0,1.27.56,1.72,1.44,1.72s1.44-.46,1.44-1.72v-2.53h2.63Z"/><path class="cls-5" d="M120.57,24.76h-2.79V7.03h2.79v7.6h3.17v-7.6h2.84v17.73h-2.84v-7.6h-3.17v7.6Z"/><path class="cls-5" d="M131.39,14.5h3.82v2.53h-3.82v5.19h4.81v2.53h-7.6V7.03h7.6v2.53h-4.81v4.94Z"/><path class="cls-5" d="M146,18.15v2.36c0,2.84-1.42,4.46-4.15,4.46s-4.15-1.62-4.15-4.46v-9.22c0-2.84,1.42-4.46,4.15-4.46s4.15,1.62,4.15,4.46v1.72h-2.63v-1.9c0-1.27-.56-1.75-1.44-1.75s-1.44.48-1.44,1.75v9.58c0,1.27.56,1.72,1.44,1.72s1.44-.46,1.44-1.72v-2.53h2.63Z"/><path class="cls-5" d="M151.35,17.69l-.86,1.62v5.45h-2.79V7.03h2.79v7.73l3.65-7.73h2.79l-3.88,7.9,3.88,9.83h-2.86l-2.71-7.07Z"/></g><path class="cls-3" d="M181.36,29.44c7.55,0,13.66-6.12,13.66-13.66s-6.12-13.66-13.66-13.66-13.66,6.12-13.66,13.66,6.12,13.66,13.66,13.66"/><path class="cls-11" d="M181.36,29.44c7.55,0,13.66-6.12,13.66-13.66s-6.12-13.66-13.66-13.66-13.66,6.12-13.66,13.66,6.12,13.66,13.66,13.66Z"/><g class="cls-7"><path class="cls-5" d="M176.5,13.17v.91c0,1.09-.55,1.72-1.6,1.72s-1.6-.62-1.6-1.72v-3.55c0-1.09.55-1.72,1.6-1.72s1.6.62,1.6,1.72v.66h-1.02v-.73c0-.49-.21-.67-.56-.67s-.56.19-.56.67v3.69c0,.49.21.66.56.66s.56-.18.56-.66v-.98h1.02Z"/><path class="cls-5" d="M177.15,8.88h1.07v5.86h1.77v.98h-2.84v-6.84Z"/><path class="cls-5" d="M180.46,8.88h1.07v6.84h-1.07v-6.84Z"/><path class="cls-5" d="M185.43,13.17v.91c0,1.09-.55,1.72-1.6,1.72s-1.6-.62-1.6-1.72v-3.55c0-1.09.55-1.72,1.6-1.72s1.6.62,1.6,1.72v.66h-1.02v-.73c0-.49-.21-.67-.56-.67s-.56.19-.56.67v3.69c0,.49.21.66.56.66s.56-.18.56-.66v-.98h1.02Z"/><path class="cls-5" d="M187.49,12.99l-.33.62v2.1h-1.07v-6.84h1.07v2.98l1.41-2.98h1.07l-1.49,3.05,1.49,3.79h-1.1l-1.04-2.72Z"/></g><g class="cls-9"><path class="cls-5" d="M175.19,23.91h-1.07v-6.84h1.07v2.93h1.22v-2.93h1.09v6.84h-1.09v-2.93h-1.22v2.93Z"/><path class="cls-5" d="M179.36,19.96h1.47v.98h-1.47v2h1.86v.98h-2.93v-6.84h2.93v.98h-1.86v1.9Z"/><path class="cls-5" d="M184.12,23.91c-.06-.18-.1-.28-.1-.84v-1.07c0-.63-.21-.87-.7-.87h-.37v2.78h-1.07v-6.84h1.62c1.11,0,1.59.52,1.59,1.57v.54c0,.7-.22,1.16-.7,1.39.54.22.71.74.71,1.46v1.05c0,.33,0,.58.12.83h-1.09ZM182.95,18.05v2.1h.42c.4,0,.64-.18.64-.72v-.67c0-.49-.17-.7-.55-.7h-.52Z"/><path class="cls-5" d="M186.88,19.96h1.47v.98h-1.47v2h1.86v.98h-2.93v-6.84h2.93v.98h-1.86v1.9Z"/></g><g class="cls-1"><path class="cls-5" d="M6.64,14.21l.62-.27v-.81h-.62v-1.22h.62v-.17c0-.74.22-1.37.64-1.8.42-.42.98-.62,1.73-.62.87,0,1.55.3,2.01.73l-.99,1.37c-.23-.23-.5-.39-.82-.39-.2,0-.37.07-.48.18-.12.12-.18.28-.18.5v.19h1.71v1.22h-1.71v.71h2.36v1.46h-4.9v-1.09Z"/><path class="cls-5" d="M13.02,11.12l-.95.21-.35-1.45,1.75-.48h1.48v5.9h-1.92v-4.18Z"/><path class="cls-5" d="M15.55,12.39v-.02c0-1.61,1.05-3.05,2.83-3.05s2.81,1.42,2.81,3.04v.02c0,1.61-1.05,3.05-2.83,3.05s-2.81-1.42-2.81-3.04ZM19.25,12.39v-.02c0-.8-.36-1.35-.89-1.35s-.87.54-.87,1.34v.02c0,.8.36,1.35.89,1.35s.87-.54.87-1.34Z"/><path class="cls-5" d="M21.66,12.39v-.02c0-1.61,1.05-3.05,2.83-3.05s2.81,1.42,2.81,3.04v.02c0,1.61-1.05,3.05-2.83,3.05s-2.81-1.42-2.81-3.04ZM25.35,12.39v-.02c0-.8-.36-1.35-.89-1.35s-.87.54-.87,1.34v.02c0,.8.36,1.35.89,1.35s.87-.54.87-1.34Z"/><path class="cls-5" d="M8.41,19.64v-.02c0-1.7,1.4-3.05,3.2-3.05s3.19,1.34,3.19,3.04v.02c0,1.7-1.4,3.05-3.2,3.05s-3.19-1.34-3.19-3.04ZM12.83,19.64v-.02c0-.69-.48-1.32-1.23-1.32s-1.21.62-1.21,1.3v.02c0,.69.48,1.32,1.23,1.32s1.21-.62,1.21-1.3Z"/><path class="cls-5" d="M15.34,16.7h4.9v1.67h-2.94v.74h2.73v1.52h-2.73v1.92h-1.96v-5.85Z"/><path class="cls-5" d="M20.7,16.7h4.9v1.67h-2.94v.74h2.73v1.52h-2.73v1.92h-1.96v-5.85Z"/></g></svg>