<svg height="80" viewBox="0 0 400 80" width="400" xmlns="http://www.w3.org/2000/svg" xmlns:xlink="http://www.w3.org/1999/xlink"><clipPath id="a"><path d="m0 0h300v60h-300z"/></clipPath><clipPath id="b"><path d="m0 60h300v-60h-300z"/></clipPath><g transform="matrix(1.3333333 0 0 -1.3333333 0 80)"><g clip-path="url(#a)"><path d="m0 0c-6.582 0-11.918-5.336-11.918-11.917v-36.165c0-6.582 5.336-11.918 11.918-11.918h276.165c6.582 0 11.917 5.336 11.917 11.918v36.165c0 6.581-5.335 11.917-11.917 11.917z" fill="#009640" transform="translate(11.9176 60)"/></g><g clip-path="url(#b)"><path d="m0 0c12.494 0 22.622 10.128 22.622 22.622 0 12.495-10.128 22.624-22.622 22.624s-22.622-10.129-22.622-22.624c0-12.494 10.128-22.622 22.622-22.622" fill="#007330" transform="translate(268.408 7.7543)"/><path d="m0 0c12.494 0 22.622 10.128 22.622 22.622 0 12.495-10.128 22.624-22.622 22.624s-22.622-10.129-22.622-22.624c0-12.494 10.128-22.622 22.622-22.622z" fill="none" stroke="#fff" stroke-width="2.009" transform="translate(268.408 7.7543)"/><path d="m0 0v-1.504c0-1.811-.905-2.846-2.652-2.846-1.746 0-2.652 1.035-2.652 2.846v5.886c0 1.811.906 2.846 2.652 2.846 1.747-0 2.652-1.035 2.652-2.846v-1.1h-1.682v1.213c0 .809-.355 1.116-.921 1.116s-.922-.307-.922-1.116v-6.112c0-.808.356-1.1.922-1.1s.921.292.921 1.1v1.617z" fill="#fff" transform="translate(260.3578 34.6989)"/><path d="m0 0h1.779v-9.702h2.926v-1.617h-4.705z" fill="#fff" transform="translate(261.438 41.7974)"/><path d="m266.916 41.797h1.779v-11.319h-1.779z" fill="#fff"/><path d="m0 0v-1.504c0-1.811-.906-2.846-2.652-2.846s-2.652 1.035-2.652 2.846v5.886c0 1.811.906 2.846 2.652 2.846s2.652-1.035 2.652-2.846v-1.1h-1.682v1.213c0 .809-.355 1.116-.921 1.116s-.922-.307-.922-1.116v-6.112c0-.808.356-1.1.922-1.1s.921.292.921 1.1v1.617z" fill="#fff" transform="translate(275.1433 34.6989)"/><path d="m0 0-.55-1.035v-3.476h-1.778v11.318h1.778v-4.931l2.329 4.931h1.778l-2.474-5.045 2.474-6.273h-1.827z" fill="#fff" transform="translate(278.5519 34.99)"/><path d="m0 0h-1.779v11.319h1.779v-4.851h2.021v4.851h1.811v-11.319h-1.811v4.851h-2.021z" fill="#fff" transform="translate(258.1895 16.9042)"/><path d="m0 0h2.442v-1.617h-2.442v-3.315h3.072v-1.617h-4.851v11.319h4.851v-1.617h-3.072z" fill="#fff" transform="translate(265.0891 23.4529)"/><path d="m0 0v-3.476h.695c.663 0 1.067.291 1.067 1.196v1.116c0 .808-.274 1.164-.905 1.164zm1.94-9.702c-.097.291-.161.469-.161 1.391v1.778c0 1.051-.356 1.44-1.165 1.44h-.614v-4.609h-1.779v11.319h2.684c1.844 0 2.636-.857 2.636-2.603v-.89c0-1.164-.372-1.924-1.164-2.296.889-.372 1.18-1.229 1.18-2.409v-1.746c0-.55.016-.954.194-1.375z" fill="#fff" transform="translate(271.0363 26.606)"/><path d="m0 0h2.442v-1.617h-2.442v-3.315h3.072v-1.617h-4.851v11.319h4.851v-1.617h-3.072z" fill="#fff" transform="translate(277.5332 23.4529)"/><path d="m0 0 1.531 1.624c.573-.556 1.179-.863 1.818-.863.573 0 .882.261.882.636v.023c0 .386-.331.635-1.014.635h-1.09l-.342 1.182 1.697 1.385h-2.865v2.067h5.927v-1.829l-1.729-1.339c1.157-.319 1.906-1.011 1.906-2.26v-.023c0-1.715-1.455-2.669-3.162-2.669-1.587 0-2.71.534-3.559 1.431" fill="#fff" transform="translate(37.2474 44.1407)"/><path d="m0 0v.023c0 1.09-.474 1.839-1.168 1.839s-1.146-.727-1.146-1.817v-.022c0-1.091.474-1.84 1.168-1.84s1.146.727 1.146 1.817m-4.87 0v.023c0 2.191 1.388 4.145 3.724 4.145s3.702-1.931 3.702-4.123v-.022c0-2.192-1.388-4.146-3.724-4.146s-3.702 1.931-3.702 4.123" fill="#fff" transform="translate(49.187 46.8325)"/><path d="m52.279 47.514h3.834v-2.112h-3.834z" fill="#fff"/><path d="m0 0 1.377 1.692c.837-.659 1.796-.931 2.699-.931.463 0 .661.125.661.341v.023c0 .227-.242.351-1.068.522-1.73.363-3.25.874-3.25 2.555v.023c0 1.51 1.146 2.68 3.272 2.68 1.487 0 2.589-.364 3.481-1.09l-1.256-1.795c-.727.545-1.597.784-2.314.784-.385 0-.561-.137-.561-.33v-.022c0-.216.209-.352 1.024-.511 1.972-.375 3.294-.965 3.294-2.567v-.022c0-1.67-1.333-2.692-3.404-2.692-1.565 0-2.975.454-3.955 1.34" fill="#fff" transform="translate(56.1437 44.0725)"/><path d="m0 0h6.577v-2.18h-4.043v-.807h3.768v-1.919h-3.768v-.863h4.098v-2.181h-6.632z" fill="#fff" transform="translate(63.9954 50.83)"/><path d="m0 0v.023c0 2.373 1.796 4.145 4.098 4.145 1.697 0 2.843-.852 3.493-2.067l-2.126-1.284c-.287.568-.695.966-1.4.966-.87 0-1.443-.784-1.443-1.738v-.022c0-1.034.595-1.761 1.443-1.761.728 0 1.135.409 1.454.999l2.127-1.237c-.65-1.181-1.73-2.147-3.647-2.147-2.137 0-3.999 1.658-3.999 4.123" fill="#fff" transform="translate(70.9216 46.8325)"/><path d="m0 0v.023c0 .942-.628 1.794-1.62 1.794-.98 0-1.597-.841-1.597-1.772v-.022c0-.943.628-1.795 1.619-1.795.981 0 1.598.84 1.598 1.772m-5.817 0v.023c0 2.305 1.84 4.145 4.219 4.145 2.38 0 4.198-1.818 4.198-4.123v-.022c0-2.306-1.84-4.146-4.22-4.146-2.379 0-4.197 1.817-4.197 4.123" fill="#fff" transform="translate(84.381 46.8325)"/><path d="m0 0h2.413l2.743-3.509v3.509h2.556v-7.95h-2.292l-2.864 3.668v-3.668h-2.556z" fill="#fff" transform="translate(87.5826 50.83)"/><path d="m0 0c1.178 0 1.939.499 1.939 1.647v.022c0 1.147-.761 1.647-1.939 1.647h-.43v-3.316zm-3.008 5.633h2.953c3.062 0 4.594-1.556 4.594-3.907v-.023c0-2.351-1.565-4.02-4.682-4.02h-2.865z" fill="#fff" transform="translate(99.0693 45.1971)"/><path d="m0 0 1.377 1.692c.837-.659 1.796-.931 2.699-.931.463 0 .661.125.661.341v.023c0 .227-.242.351-1.068.522-1.73.363-3.25.874-3.25 2.555v.023c0 1.51 1.146 2.68 3.272 2.68 1.487 0 2.589-.364 3.481-1.09l-1.256-1.795c-.727.545-1.597.784-2.314.784-.385 0-.561-.137-.561-.33v-.022c0-.216.209-.352 1.024-.511 1.972-.375 3.294-.965 3.294-2.567v-.022c0-1.67-1.333-2.692-3.404-2.692-1.565 0-2.975.454-3.955 1.34" fill="#fff" transform="translate(103.4612 44.0725)"/><path d="m0 0v.023c0 .533-.363.897-.882.897-.55 0-.913-.398-.913-.954v-.023c0-.397.154-.693.583-1.181.794.295 1.212.67 1.212 1.238m.044-4.327-1.718 1.806c-.717-.318-1.025-.807-1.025-1.318v-.023c0-.669.539-1.158 1.289-1.158.528 0 1.014.261 1.454.693m.772-.818c-.661-.636-1.432-1.033-2.37-1.033-1.432 0-2.512.897-2.512 2.271v.023c0 1.022.585 1.76 1.642 2.226-.441.579-.639 1.079-.639 1.658v.023c0 1.067.837 1.998 2.214 1.998 1.224 0 2.05-.851 2.05-1.919v-.022c0-1.045-.672-1.67-1.697-2.067l1.323-1.386c.297.454.572.976.826 1.533l1.024-.557c-.308-.636-.65-1.26-1.046-1.817l1.211-1.272-1.002-.738z" fill="#fff" transform="translate(118.4851 48.9447)"/><path d="m0 0v.023c0 2.225 1.652 4.111 3.977 4.111 1.344 0 2.171-.386 2.964-1.079l-.859-1.056c-.596.522-1.179.851-2.16.851-1.422 0-2.501-1.283-2.501-2.805v-.022c0-1.636 1.046-2.84 2.622-2.84.727 0 1.388.239 1.862.602v1.488h-1.973v1.215h3.284v-3.339c-.761-.67-1.851-1.238-3.217-1.238-2.413 0-3.999 1.772-3.999 4.089" fill="#fff" transform="translate(125.3987 46.8325)"/><path d="m0 0h5.718v-1.249h-4.363v-2.067h3.868v-1.25h-3.868v-2.135h4.419v-1.249h-5.774z" fill="#fff" transform="translate(134.2737 50.83)"/><path d="m0 0h-2.446v1.295h6.258v-1.295h-2.446v-6.655h-1.366z" fill="#fff" transform="translate(143.4486 49.535)"/><path d="m0 0 .816.363v1.102h-.816v1.658h.816v.227c0 1 .286 1.863.847 2.442.551.568 1.29.84 2.281.84 1.146 0 2.038-.408 2.644-.988l-1.3-1.862c-.298.318-.661.534-1.08.534-.264 0-.484-.091-.628-.25-.154-.159-.231-.386-.231-.681v-.262h2.247v-1.658h-2.247v-.965h3.107v-1.976h-6.456z" fill="#ffed00" transform="translate(151.0447 44.3564)"/><path d="m0 0-1.255-.284-.463 1.965 2.302.647h1.95v-8.006h-2.534z" fill="#ffed00" transform="translate(159.3363 48.5582)"/><path d="m0 0v.023c0 1.09-.474 1.839-1.168 1.839s-1.146-.727-1.146-1.817v-.022c0-1.091.474-1.84 1.168-1.84s1.146.727 1.146 1.817m-4.87 0v.023c0 2.191 1.388 4.145 3.724 4.145 2.335 0 3.702-1.931 3.702-4.123v-.022c0-2.192-1.388-4.146-3.724-4.146s-3.702 1.931-3.702 4.123" fill="#ffed00" transform="translate(167.4323 46.8325)"/><path d="m0 0v.023c0 1.09-.474 1.839-1.168 1.839s-1.146-.727-1.146-1.817v-.022c0-1.091.474-1.84 1.168-1.84s1.146.727 1.146 1.817m-4.87 0v.023c0 2.191 1.388 4.145 3.724 4.145 2.335 0 3.702-1.931 3.702-4.123v-.022c0-2.192-1.388-4.146-3.724-4.146s-3.702 1.931-3.702 4.123" fill="#ffed00" transform="translate(175.3614 46.8325)"/><path d="m0 0v.023c0 .942-.628 1.794-1.62 1.794-.98 0-1.597-.841-1.597-1.772v-.022c0-.943.628-1.795 1.619-1.795.981 0 1.598.84 1.598 1.772m-5.817 0v.023c0 2.305 1.839 4.145 4.219 4.145s4.198-1.818 4.198-4.123v-.022c0-2.306-1.84-4.146-4.22-4.146-2.379 0-4.197 1.817-4.197 4.123" fill="#ffed00" transform="translate(186.902 46.8325)"/><path d="m0 0h6.456v-2.272h-3.878v-1.01h3.603v-2.067h-3.603v-2.601h-2.578z" fill="#ffed00" transform="translate(190.1041 50.83)"/><path d="m0 0h6.456v-2.272h-3.878v-1.01h3.603v-2.067h-3.603v-2.601h-2.578z" fill="#ffed00" transform="translate(197.0629 50.83)"/><path d="m204.089 44.924h2.556v-2.044h-2.556zm-.121 4.202v1.704h2.798v-1.704l-.772-3.77h-1.255z" fill="#ffed00"/><g fill="#fff"><path d="m0 0h5.058v-3.361h-5.058v-9.713h-3.918v23.526h10.365v-3.361h-6.447z" transform="translate(16.4419 29.3423)"/><path d="m0 0v-7.225h1.531c1.461 0 2.351.605 2.351 2.486v2.32c0 1.68-.605 2.419-1.994 2.419zm4.274-20.165c-.213.606-.356.975-.356 2.891v3.697c0 2.184-.784 2.991-2.565 2.991h-1.353v-9.579h-3.918v23.526h5.913c4.06 0 5.805-1.781 5.805-5.411v-1.849c0-2.419-.819-3.999-2.564-4.772 1.959-.773 2.6-2.554 2.6-5.007v-3.63c0-1.143.036-1.983.428-2.857z" transform="translate(28.696 36.4331)"/><path d="m0 0h5.378v-3.361h-5.378v-6.889h6.767v-3.361h-10.685v23.526h10.685v-3.361h-6.767z" transform="translate(43.0164 29.8794)"/><path d="m0 0h5.378v-3.361h-5.378v-6.889h6.767v-3.361h-10.685v23.526h10.685v-3.361h-6.767z" transform="translate(56.126 29.8794)"/><path d="m0 0h5.058v-3.361h-5.058v-9.713h-3.918v23.526h10.365v-3.361h-6.447z" transform="translate(74.7568 29.3423)"/><path d="m83.093 39.794h3.918v-23.526h-3.918z"/><path d="m0 0v-17.039h-3.526v23.525h4.915l4.025-14.081v14.081h3.491v-23.525h-4.025z" transform="translate(93.3514 33.3078)"/><path d="m0 0h3.775l-1.887 11.897zm8.94-7.461h-3.954l-.676 4.268h-4.809l-.677-4.268h-3.597l3.989 23.525h5.735z" transform="translate(108.8116 23.7297)"/><path d="m0 0v-17.039h-3.526v23.525h4.915l4.025-14.081v14.081h3.49v-23.525h-4.024z" transform="translate(123.061 33.3078)"/><path d="m0 0v-3.126c0-3.764-1.995-5.914-5.841-5.914-3.847 0-5.842 2.15-5.842 5.914v12.233c0 3.764 1.995 5.915 5.842 5.915 3.846 0 5.841-2.151 5.841-5.915v-2.285h-3.705v2.521c0 1.68-.783 2.319-2.029 2.319-1.248 0-2.031-.639-2.031-2.319v-12.704c0-1.681.783-2.285 2.031-2.285 1.246 0 2.029.604 2.029 2.285v3.361z" transform="translate(146.144 25.0405)"/><path d="m0 0h5.378v-3.361h-5.378v-6.889h6.768v-3.361h-10.686v23.526h10.686v-3.361h-6.768z" transform="translate(152.4493 29.8794)"/><path d="m0 0v-3.126c0-3.764-1.995-5.914-5.841-5.914-3.847 0-5.842 2.15-5.842 5.914v12.233c0 3.764 1.995 5.915 5.842 5.915 3.846 0 5.841-2.151 5.841-5.915v-2.285h-3.705v2.521c0 1.68-.783 2.319-2.029 2.319-1.248 0-2.031-.639-2.031-2.319v-12.704c0-1.681.783-2.285 2.031-2.285 1.246 0 2.029.604 2.029 2.285v3.361z" transform="translate(178.5248 25.0405)"/><path d="m0 0h-3.918v23.526h3.918v-10.083h4.453v10.083h3.989v-23.526h-3.989v10.083h-4.453z" transform="translate(184.8301 16.2686)"/><path d="m0 0h5.378v-3.361h-5.378v-6.889h6.768v-3.361h-10.686v23.526h10.686v-3.361h-6.768z" transform="translate(200.0412 29.8794)"/><path d="m0 0v-3.126c0-3.764-1.995-5.914-5.841-5.914-3.847 0-5.842 2.15-5.842 5.914v12.233c0 3.764 1.995 5.915 5.842 5.915 3.846 0 5.841-2.151 5.841-5.915v-2.285h-3.705v2.521c0 1.68-.783 2.319-2.029 2.319-1.248 0-2.031-.639-2.031-2.319v-12.704c0-1.681.783-2.285 2.031-2.285 1.246 0 2.029.604 2.029 2.285v3.361z" transform="translate(220.5947 25.0405)"/><path d="m0 0-1.211-2.151v-7.225h-3.918v23.525h3.918v-10.25l5.129 10.25h3.918l-5.449-10.485 5.449-13.04h-4.025z" transform="translate(228.112 25.645)"/><path d="m0 0c.848 0 1.235.336 1.235 1.155v.464c0 .839-.324 1.185-1.131 1.185h-1.015v-2.804zm-1.392 3.219h1.507c1.131 0 1.602-.475 1.602-1.561v-.424c0-.799-.294-1.263-.943-1.412v-.009c.66-.129.943-.584.943-1.413v-1.263c0-.286.02-.602.094-.829h-.492c-.052.207-.084.454-.084.829v1.283c0 .85-.356 1.155-1.214 1.155h-.932v-3.267h-.481z" transform="translate(80.3843 7.8877)"/><path d="m0 0h2.868v-.415h-2.387v-2.686h1.978v-.414h-1.978v-2.981h2.387v-.415h-2.868z" transform="translate(83.1553 11.1064)"/><path d="m0 0c.785 0 1.12.336 1.12 1.205v.553c0 .868-.335 1.204-1.12 1.204h-1.026v-2.962zm-1.507 3.377h1.507c1.109 0 1.602-.523 1.602-1.649v-.503c0-1.126-.493-1.639-1.602-1.639h-1.026v-3.12h-.481z" transform="translate(88.3447 7.7295)"/><path d="m0 0c.848 0 1.235.336 1.235 1.155v.464c0 .839-.324 1.185-1.131 1.185h-1.015v-2.804zm-1.392 3.219h1.507c1.131 0 1.602-.475 1.602-1.561v-.424c0-.799-.294-1.263-.943-1.412v-.009c.66-.129.943-.584.943-1.413v-1.263c0-.286.02-.602.094-.829h-.492c-.052.207-.084.454-.084.829v1.283c0 .85-.356 1.155-1.214 1.155h-.932v-3.267h-.481z" transform="translate(92.2148 7.8877)"/><path d="m0 0h2.868v-.415h-2.387v-2.686h1.978v-.414h-1.978v-2.981h2.387v-.415h-2.868z" transform="translate(94.9858 11.1064)"/><path d="m0 0v.375h.461v-.405c0-.76.418-1.165 1.109-1.165s1.11.405 1.11 1.165c0 .701-.314 1.155-1.266 1.856-1.068.78-1.414 1.314-1.414 2.093 0 .987.576 1.58 1.57 1.58.995 0 1.55-.593 1.55-1.609v-.267h-.461v.296c0 .761-.398 1.165-1.089 1.165-.68 0-1.088-.415-1.088-1.136 0-.641.324-1.086 1.298-1.806 1.057-.78 1.382-1.313 1.382-2.142 0-1.018-.577-1.609-1.592-1.609-1.005 0-1.57.591-1.57 1.609" transform="translate(98.4478 5.7061)"/><path d="m0 0h2.868v-.415h-2.387v-2.686h1.978v-.414h-1.978v-2.981h2.387v-.415h-2.868z" transform="translate(102.5068 11.1064)"/><path d="m0 0h.67l2.156-5.746v5.746h.461v-6.911h-.534l-2.293 6.18v-6.18h-.46z" transform="translate(106.1885 11.1064)"/><path d="m0 0h-1.392v.415h3.266v-.415h-1.393v-6.496h-.481z" transform="translate(111.6494 10.6914)"/><path d="m0 0-.953 4.295-.931-4.295zm.084-.404h-2.052l-.345-1.59h-.461l1.518 6.911h.649l1.539-6.911h-.493z" transform="translate(116.7549 6.1895)"/><path d="m0 0h-1.392v.415h3.266v-.415h-1.393v-6.496h-.481z" transform="translate(119.5361 10.6914)"/><path d="m122.192 11.106h.481v-6.911h-.481z"/><path d="m0 0h.492l1.361-6.299 1.339 6.299h.451l-1.476-6.911h-.66z" transform="translate(123.4785 11.1064)"/><path d="m0 0h2.868v-.415h-2.387v-2.686h1.978v-.414h-1.978v-2.981h2.387v-.415h-2.868z" transform="translate(127.9248 11.1064)"/><path d="m0 0-.732 3.89-.712-3.89zm.126-.672h-1.696l-.272-1.471h-.764l1.36 6.912h1.1l1.371-6.912h-.827z" transform="translate(135.5615 6.3379)"/><path d="m0 0c.575 0 .837.246.837.928v.681c0 .681-.262.928-.837.928h-.785v-2.537zm-1.602 3.238h1.602c1.13 0 1.653-.563 1.653-1.678v-.593c0-1.115-.523-1.668-1.653-1.668h-.785v-2.972h-.817z" transform="translate(139.0654 7.8682)"/><path d="m0 0c.638 0 .963.257.963.948v.493c0 .672-.252.949-.859.949h-.764v-2.39zm-1.477 3.091h1.602c1.162 0 1.654-.494 1.654-1.57v-.425c0-.76-.261-1.214-.847-1.392v-.01c.617-.148.858-.631.858-1.441v-1.234c0-.316.01-.592.105-.839h-.828c-.062.197-.094.375-.094.839v1.273c0 .751-.283 1.008-.973 1.008h-.66v-3.12h-.817z" transform="translate(142.9463 8.0156)"/><path d="m0 0c-.335-.148-.795-.208-1.256-.218v.573c.859.02 1.267.287 1.508.918h.564v-6.92h-.816z" transform="translate(148.374 9.8428)"/><path d="m0 0v.464h.775v-.524c0-.582.262-.947.869-.947.586 0 .858.325.858.947v1.492c-0 .651-.304.927-.806.927-.481 0-.785-.237-.889-.759v-.06h-.775l.209 3.762h2.91v-.701h-2.187l-.115-2.104c.24.366.617.564 1.151.564.868 0 1.318-.553 1.318-1.571v-1.49c0-1.057-.533-1.708-1.653-1.708-1.151 0-1.665.681-1.665 1.708" transform="translate(150.1094 5.8047)"/><path d="m154.294 5.192h.827v-.997h-.827z"/><path d="m0 0v1.096c0 .632-.293.948-.858.948-.577 0-.87-.316-.87-.948v-1.155c0-.592.242-.958.828-.958.576 0 .9.415.9 1.017m-2.513-2.655v.118h.776v-.168c0-.661.302-.957.858-.957.575 0 .879.296.879 1.076v1.56c-.23-.445-.649-.692-1.193-.692-.943 0-1.351.613-1.351 1.6v1.165c0 1.096.597 1.698 1.686 1.698 1.078 0 1.674-.602 1.674-1.698v-3.663c0-1.135-.554-1.747-1.674-1.747-1.089 0-1.655.612-1.655 1.708" transform="translate(158.543 8.46)"/><path d="m0 0v1.855c0 .385-.188.574-.514.574-.335 0-.512-.189-.512-.574v-1.855c0-.386.177-.573.512-.573.326 0 .514.187.514.573m-1.592.039v1.777c0 .702.377 1.086 1.078 1.086.692 0 1.078-.384 1.078-1.086v-1.777c0-.701-.386-1.096-1.078-1.096-.701 0-1.078.395-1.078 1.096m.608 5.914h.554l-2.846-6.911h-.566zm-2.241-2.805v1.857c0 .385-.188.572-.512.572-.335 0-.513-.187-.513-.572v-1.857c0-.384.178-.572.513-.572.324 0 .512.188.512.572m-1.59.04v1.778c0 .7.377 1.096 1.078 1.096.69 0 1.078-.396 1.078-1.096v-1.778c0-.701-.388-1.085-1.078-1.085-.701 0-1.078.384-1.078 1.085" transform="translate(164.8838 5.1533)"/></g></g></g></svg>