<svg id="Group_3799" data-name="Group 3799" xmlns="http://www.w3.org/2000/svg" xmlns:xlink="http://www.w3.org/1999/xlink" width="402" height="90" viewBox="0 0 402 90">
  <defs>
    <clipPath id="clip-path">
      <path id="Path_2382" data-name="Path 2382" d="M0,.4H402V-80H0Z" transform="translate(0 80)"/>
    </clipPath>
    <clipPath id="clip-path-2">
      <path id="Path_2389" data-name="Path 2389" d="M0-80H402V.4H0Z" transform="translate(0 80)"/>
    </clipPath>
  </defs>
  <path id="Rectangle_1815" data-name="Rectangle 1815" d="M0,0H402a0,0,0,0,1,0,0V78a12,12,0,0,1-12,12H12A12,12,0,0,1,0,78V0A0,0,0,0,1,0,0Z" fill="#009640"/>
  <g id="FFC-btn" transform="translate(0 4.801)">
    <g id="Group_3709" data-name="Group 3709" transform="translate(0 0)" clip-path="url(#clip-path)">
      <path id="Path_2381" data-name="Path 2381" d="M15.97-80A15.97,15.97,0,0,0,0-64.031V-15.57A15.97,15.97,0,0,0,15.97.4h370.06A15.969,15.969,0,0,0,402-15.57V-64.031A15.969,15.969,0,0,0,386.031-80Z" transform="translate(0 80)" fill="#009640"/>
    </g>
    <g id="Group_3710" data-name="Group 3710" transform="translate(0 0)" clip-path="url(#clip-path-2)">
      <path id="Path_2383" data-name="Path 2383" d="M358.027-10.037A30.313,30.313,0,0,0,388.341-40.35a30.314,30.314,0,0,0-30.313-30.316A30.314,30.314,0,0,0,327.714-40.35a30.313,30.313,0,0,0,30.313,30.313" transform="translate(1.639 80.046)" fill="#007330"/>
      <path id="Path_2384" data-name="Path 2384" d="M358.027-10.037A30.313,30.313,0,0,0,388.341-40.35a30.314,30.314,0,0,0-30.313-30.316A30.314,30.314,0,0,0,327.714-40.35,30.313,30.313,0,0,0,358.027-10.037Z" transform="translate(1.639 80.046)" fill="none" stroke="#fff" stroke-width="2.679"/>
      <path id="Path_2385" data-name="Path 2385" d="M348.631-46.157v2.015c0,2.427-1.213,3.814-3.554,3.814s-3.554-1.387-3.554-3.814v-7.887c0-2.425,1.214-3.814,3.554-3.814s3.554,1.387,3.554,3.814v1.474h-2.254V-52.18c0-1.084-.476-1.5-1.234-1.5s-1.235.411-1.235,1.5v8.19c0,1.083.477,1.474,1.235,1.474s1.233-.391,1.233-1.474v-2.167Zm1.447-9.511h2.384v13h3.921V-40.5h-6.3Zm7.341,0H359.8V-40.5h-2.384Zm11.024,9.511v2.015c0,2.427-1.214,3.814-3.554,3.814s-3.554-1.387-3.554-3.814v-7.887c0-2.425,1.214-3.814,3.554-3.814s3.554,1.387,3.554,3.814v1.474h-2.254V-52.18c0-1.084-.476-1.5-1.233-1.5s-1.237.411-1.237,1.5v8.19c0,1.083.477,1.474,1.236,1.474s1.234-.391,1.234-1.474v-2.167Zm4.568-.39-.737,1.387V-40.5h-2.383V-55.668h2.383v6.608l3.121-6.608h2.383l-3.315,6.76,3.315,8.406h-2.448ZM345.726-22.311H343.34V-37.48h2.385v6.5h2.707v-6.5h2.428v15.167h-2.427v-6.5h-2.708Zm9.246-8.776h3.271v2.167H354.97v4.443h4.116v2.167h-6.5V-37.477h6.5v2.167H354.97Zm7.968-4.225v4.658h.931c.888,0,1.43-.39,1.43-1.6v-1.5c0-1.083-.367-1.56-1.213-1.56Zm2.6,13a4.686,4.686,0,0,1-.214-1.864v-2.383c0-1.408-.478-1.93-1.562-1.93h-.823v6.176h-2.384V-37.479h3.6c2.471,0,3.532,1.148,3.532,3.488V-32.8c0,1.56-.5,2.578-1.56,3.077,1.193.5,1.581,1.647,1.581,3.228v2.34a4.469,4.469,0,0,0,.26,1.842Zm6.106-8.776h3.272v2.167h-3.272v4.443h4.116v2.167h-6.5V-37.477h6.5v2.167h-4.116ZM49.663-58.807l2.052-2.177a3.531,3.531,0,0,0,2.436,1.156c.768,0,1.182-.348,1.182-.852v-.031c0-.517-.442-.851-1.359-.851H52.513l-.458-1.584L54.328-65H50.489v-2.77h7.942v2.452l-2.317,1.793A3,3,0,0,1,58.669-60.5v.031c0,2.3-1.95,3.578-4.237,3.578a6.188,6.188,0,0,1-4.769-1.919m16-3.607v-.031c0-1.461-.635-2.464-1.565-2.464s-1.536.974-1.536,2.435v.029c0,1.462.635,2.466,1.565,2.466s1.536-.974,1.536-2.435m-6.526,0v-.031C59.136-65.381,61-68,64.126-68s4.961,2.588,4.961,5.525v.029c0,2.937-1.86,5.556-4.99,5.556s-4.961-2.586-4.961-5.525m10.669-.913h5.138v2.83H69.805Zm5.179,4.612,1.845-2.267a5.8,5.8,0,0,0,3.617,1.246c.62,0,.884-.166.884-.456v-.032c0-.3-.323-.469-1.43-.7-2.318-.486-4.355-1.171-4.355-3.424v-.031c0-2.023,1.536-3.591,4.384-3.591a7.005,7.005,0,0,1,4.663,1.461L82.912-64.1a5.311,5.311,0,0,0-3.1-1.049c-.516,0-.752.182-.752.442v.028c0,.289.28.472,1.372.685,2.642.5,4.414,1.294,4.414,3.441v.028c0,2.238-1.786,3.607-4.561,3.607a7.826,7.826,0,0,1-5.3-1.8M85.5-67.772h8.813v2.921H88.9v1.081h5.049V-61.2H88.9v1.156h5.491v2.923H85.506Zm9.282,5.356v-.031A5.421,5.421,0,0,1,100.278-68a5.046,5.046,0,0,1,4.681,2.77l-2.849,1.721a2.01,2.01,0,0,0-1.876-1.294A2.1,2.1,0,0,0,98.3-62.476v.029c0,1.386.8,2.36,1.934,2.36a2.117,2.117,0,0,0,1.948-1.339l2.85,1.658a5.2,5.2,0,0,1-4.887,2.877,5.347,5.347,0,0,1-5.36-5.525m18.036,0v-.031a2.252,2.252,0,0,0-2.171-2.4,2.22,2.22,0,0,0-2.14,2.374v.029a2.252,2.252,0,0,0,2.169,2.405,2.22,2.22,0,0,0,2.141-2.374m-7.795,0v-.031A5.55,5.55,0,0,1,110.681-68a5.5,5.5,0,0,1,5.625,5.525v.029a5.551,5.551,0,0,1-5.655,5.556,5.5,5.5,0,0,1-5.624-5.525m12.085-5.356h3.233l3.676,4.7v-4.7h3.425v10.653h-3.071l-3.838-4.915v4.915h-3.425Zm15.393,7.548c1.577,0,2.6-.67,2.6-2.207v-.029c0-1.537-1.018-2.207-2.6-2.207h-.576v4.443Zm-4.033-7.548h3.957c4.1,0,6.156,2.085,6.156,5.235v.031c0,3.149-2.1,5.387-6.274,5.387h-3.839Z" transform="translate(0.248 80.06)" fill="#fff"/>
      <path id="Path_2386" data-name="Path 2386" d="M137.948-58.716l1.845-2.267a5.8,5.8,0,0,0,3.618,1.246c.619,0,.884-.166.884-.456v-.032c0-.3-.324-.469-1.431-.7-2.318-.486-4.355-1.171-4.355-3.424v-.031c0-2.023,1.536-3.591,4.384-3.591a7.009,7.009,0,0,1,4.665,1.461L145.875-64.1a5.31,5.31,0,0,0-3.1-1.049c-.516,0-.75.182-.75.442v.028c0,.289.279.472,1.371.685,2.642.5,4.414,1.294,4.414,3.441v.028c0,2.238-1.786,3.607-4.561,3.607a7.826,7.826,0,0,1-5.3-1.8m20.132-6.528v-.031a1.137,1.137,0,0,0-1.182-1.2,1.193,1.193,0,0,0-1.223,1.278v.031a2.286,2.286,0,0,0,.781,1.583c1.064-.4,1.624-.9,1.624-1.659m.059,5.8-2.3-2.42a1.966,1.966,0,0,0-1.373,1.766v.031a1.592,1.592,0,0,0,1.729,1.552,2.8,2.8,0,0,0,1.947-.929m1.034,1.1A4.476,4.476,0,0,1,156-56.968a3.083,3.083,0,0,1-3.366-3.042v-.032a3.186,3.186,0,0,1,2.2-2.983,3.523,3.523,0,0,1-.856-2.222v-.031a2.738,2.738,0,0,1,2.967-2.677,2.583,2.583,0,0,1,2.747,2.573v.028c0,1.4-.9,2.238-2.274,2.77l1.773,1.857a15.631,15.631,0,0,0,1.107-2.054l1.372.746a17,17,0,0,1-1.4,2.435l1.623,1.7-1.343.989Zm8.171-4.064v-.031a5.348,5.348,0,0,1,5.329-5.507,5.483,5.483,0,0,1,3.972,1.445l-1.152,1.415a3.983,3.983,0,0,0-2.894-1.139,3.558,3.558,0,0,0-3.35,3.757v.029a3.511,3.511,0,0,0,3.513,3.806,4.138,4.138,0,0,0,2.5-.807v-1.993h-2.644V-63.07h4.4v4.476a6.48,6.48,0,0,1-4.311,1.658,5.209,5.209,0,0,1-5.36-5.479m11.894-5.356H186.9V-66.1h-5.846v2.77h5.183v1.675h-5.183v2.861h5.921v1.674h-7.737Zm12.294,1.735h-3.278v-1.735h8.386v1.735h-3.278v8.918h-1.83Z" transform="translate(0.69 80.06)" fill="#fff"/>
      <path id="Path_2387" data-name="Path 2387" d="M201.393-59.1l1.093-.486V-61.06h-1.093v-2.222h1.093v-.3a4.619,4.619,0,0,1,1.135-3.272,4.006,4.006,0,0,1,3.055-1.126,5.015,5.015,0,0,1,3.544,1.324l-1.742,2.5a2,2,0,0,0-1.447-.716,1.1,1.1,0,0,0-.842.335,1.257,1.257,0,0,0-.31.911v.352h3.011v2.222H205.88v1.293h4.163v2.648h-8.651Zm11.11-5.631-1.682.381-.62-2.633,3.085-.867H215.9v10.728h-3.4Zm10.849,2.311v-.031c0-1.461-.635-2.464-1.565-2.464s-1.536.974-1.536,2.435v.029c0,1.462.635,2.466,1.565,2.466s1.536-.974,1.536-2.435m-6.526,0v-.031c0-2.935,1.86-5.554,4.99-5.554s4.961,2.588,4.961,5.525v.029c0,2.937-1.86,5.556-4.99,5.556s-4.961-2.586-4.961-5.525m17.151,0v-.031c0-1.461-.635-2.464-1.565-2.464s-1.536.974-1.536,2.435v.029c0,1.462.635,2.466,1.565,2.466s1.536-.974,1.536-2.435m-6.526,0v-.031c0-2.935,1.86-5.554,4.99-5.554s4.961,2.588,4.961,5.525v.029c0,2.937-1.86,5.556-4.99,5.556s-4.961-2.586-4.961-5.525m21.991,0v-.031a2.252,2.252,0,0,0-2.171-2.4,2.22,2.22,0,0,0-2.14,2.374v.029a2.252,2.252,0,0,0,2.169,2.405,2.22,2.22,0,0,0,2.141-2.374m-7.795,0v-.031A5.549,5.549,0,0,1,247.3-68a5.5,5.5,0,0,1,5.625,5.525v.029a5.551,5.551,0,0,1-5.655,5.556,5.5,5.5,0,0,1-5.624-5.525m12.085-5.356h8.651v3.044h-5.2v1.353h4.828v2.77h-4.828v3.485h-3.454Zm9.325,0h8.651v3.044h-5.2v1.353h4.828v2.77h-4.828v3.485h-3.454Zm9.415,7.914H275.9v2.739h-3.425Zm-.162-5.631v-2.283h3.749v2.283l-1.035,5.052h-1.682Z" transform="translate(1.007 80.06)" fill="#ffed00"/>
      <path id="Path_2388" data-name="Path 2388" d="M21.949-39.051h6.778v4.5H21.949v13.017H16.7V-53.057H30.588v4.5H21.949Zm16.42-9.5v9.681h2.052c1.958,0,3.15-.811,3.15-3.331v-3.109c0-2.251-.811-3.243-2.672-3.243ZM44.1-21.532a9.219,9.219,0,0,1-.477-3.874V-30.36c0-2.927-1.051-4.008-3.437-4.008H38.369v12.836h-5.25V-53.057h7.923c5.44,0,7.779,2.385,7.779,7.249v2.479c0,3.241-1.1,5.359-3.436,6.394,2.625,1.036,3.484,3.422,3.484,6.709v4.864a8.8,8.8,0,0,0,.574,3.828Zm13.462-18.24h7.207v4.505H57.558v9.23h9.068v4.5H52.308V-53.058H66.626v4.5H57.558Zm17.567,0h7.207v4.505H75.125v9.23h9.068v4.5H69.875V-53.058H84.193v4.5H75.125Zm24.965.721h6.778v4.5h-6.778v13.017h-5.25V-53.057H108.73v4.5h-8.639Zm11.17-14.006h5.25v31.525h-5.25Zm13.746,8.691v22.834h-4.725V-53.057h6.586l5.393,18.869V-53.055h4.678v31.521h-5.393Zm20.718,12.834h5.059l-2.529-15.942Zm11.98,10h-5.3l-.906-5.719h-6.445l-.906,5.719h-4.82l5.345-31.523h7.685Zm7.114-22.832v22.834h-4.725V-53.057h6.586l5.394,18.869V-53.055h4.677v31.521h-5.392Zm30.931,11.079V-29.1c0,5.044-2.673,7.925-7.827,7.925s-7.828-2.881-7.828-7.925V-45.491c0-5.044,2.673-7.926,7.828-7.926s7.827,2.882,7.827,7.926v3.062h-4.965v-3.377c0-2.251-1.049-3.109-2.719-3.109s-2.722.858-2.722,3.109v17.022c0,2.253,1.049,3.062,2.722,3.062s2.719-.809,2.719-3.062v-4.5Zm8.45-6.486H211.4v4.505H204.2v9.23h9.069v4.5H198.948V-53.058h14.319v4.5H204.2Zm34.94,6.486V-29.1c0,5.044-2.673,7.925-7.827,7.925s-7.828-2.881-7.828-7.925V-45.491c0-5.044,2.673-7.926,7.828-7.926s7.826,2.882,7.826,7.926v3.062h-4.963v-3.377c0-2.251-1.049-3.109-2.72-3.109s-2.72.858-2.72,3.109v17.022c0,2.253,1.049,3.062,2.72,3.062s2.72-.809,2.72-3.062v-4.5Zm8.449,11.753h-5.25V-53.058h5.25v13.511h5.967V-53.058H258.9v31.525h-5.347V-35.045h-5.967Zm20.383-18.239h7.207v4.505h-7.207v9.23h9.069v4.5H262.721V-53.058H277.04v4.5h-9.069Zm27.542,6.486V-29.1c0,5.044-2.673,7.925-7.827,7.925s-7.828-2.881-7.828-7.925V-45.491c0-5.044,2.673-7.926,7.828-7.926s7.826,2.882,7.826,7.926v3.062h-4.963v-3.377c0-2.251-1.049-3.109-2.72-3.109s-2.72.858-2.72,3.109v17.022c0,2.253,1.049,3.062,2.72,3.062s2.72-.809,2.72-3.062v-4.5Zm10.073-.811-1.623,2.882v9.681h-5.25V-53.057h5.25v13.735l6.873-13.735h5.25l-7.3,14.05,7.3,17.474h-5.393ZM107.631-10.3c1.136,0,1.655-.45,1.655-1.548v-.622c0-1.124-.434-1.588-1.514-1.588H106.41V-10.3Zm-1.865-4.313h2.021c1.516,0,2.147.636,2.147,2.092v.568c0,1.072-.394,1.692-1.264,1.892v.013c.884.172,1.264.781,1.264,1.892v1.692a3.905,3.905,0,0,0,.126,1.112H109.4a4.438,4.438,0,0,1-.113-1.112V-8.186c0-1.139-.477-1.548-1.627-1.548h-1.249v4.378h-.643Zm5.578,0h3.843v.556h-3.2v3.6h2.651V-9.9h-2.651v3.993h3.2v.557h-3.843Zm6.955,4.524c1.052,0,1.5-.449,1.5-1.613v-.742c0-1.163-.449-1.613-1.5-1.613h-1.375v3.969Zm-2.019-4.524H118.3c1.486,0,2.147.7,2.147,2.208v.675c0,1.509-.661,2.2-2.147,2.2h-1.375v4.181h-.645Zm7.205,4.312c1.136,0,1.655-.45,1.655-1.548v-.622c0-1.124-.434-1.588-1.516-1.588h-1.36V-10.3Zm-1.865-4.313h2.019c1.514,0,2.147.636,2.147,2.092v.568c0,1.072-.394,1.692-1.264,1.892v.013c.884.172,1.264.781,1.264,1.892v1.692a3.905,3.905,0,0,0,.126,1.112h-.659a4.439,4.439,0,0,1-.113-1.112V-8.186c0-1.139-.477-1.548-1.627-1.548h-1.249v4.378h-.645Zm5.578,0h3.843v.556h-3.2v3.6h2.651V-9.9h-2.651v3.993h3.2v.557H127.2Zm4.639,7.236v-.5h.616v.543a1.385,1.385,0,0,0,1.487,1.561,1.385,1.385,0,0,0,1.487-1.561c0-.939-.421-1.548-1.7-2.487-1.431-1.045-1.895-1.761-1.895-2.8a1.934,1.934,0,0,1,2.1-2.117,1.925,1.925,0,0,1,2.077,2.156v.356H135.4v-.4a1.365,1.365,0,0,0-1.461-1.561,1.364,1.364,0,0,0-1.457,1.522c0,.858.434,1.455,1.739,2.42,1.416,1.045,1.852,1.759,1.852,2.87a1.953,1.953,0,0,1-2.133,2.156,1.938,1.938,0,0,1-2.1-2.157m5.439-7.233h3.843v.556h-3.2v3.6h2.65V-9.9h-2.65v3.993h3.2v.557h-3.843Zm4.934,0h.9L146-6.915v-7.7h.616v9.259H145.9l-3.073-8.281v8.281h-.616Zm7.318.556h-1.867v-.556h4.376v.556H150.17v8.7h-.643Zm6.841,6.031-1.277-5.754-1.248,5.754Zm.113.543h-2.75l-.462,2.131h-.618l2.034-9.261h.87l2.062,9.259h-.661Zm3.614-6.574h-1.865v-.556h4.376v.556h-1.867v8.7H160.1Zm3.559-.556h.645v9.261h-.645Zm1.723,0h.661l1.822,8.441,1.8-8.442h.6l-1.976,9.262H167.4Zm5.959,0h3.843v.556h-3.2v3.6h2.65V-9.9h-2.65v3.993h3.2v.557h-3.843Zm10.232,6.389-.981-5.213-.954,5.213Zm.169.9h-2.273L179.1-5.354h-1.022l1.822-9.262h1.474l1.836,9.262H182.1Zm4.527-2.951c.77,0,1.122-.33,1.122-1.244v-.913c0-.913-.351-1.244-1.122-1.244h-1.052v3.4Zm-2.147-4.339h2.147a1.96,1.96,0,0,1,2.215,2.249v.795a1.95,1.95,0,0,1-2.215,2.235h-1.052v3.982h-1.095Zm7.347,4.141c.855,0,1.29-.344,1.29-1.27v-.661c0-.9-.338-1.272-1.151-1.272h-1.024v3.2Zm-1.979-4.141h2.147c1.557,0,2.216.661,2.216,2.1v.568c0,1.018-.348,1.627-1.135,1.865v.013c.827.2,1.15.846,1.15,1.931V-6.48A3.135,3.135,0,0,0,194-5.354h-1.11a3.343,3.343,0,0,1-.126-1.126V-8.186c0-1-.379-1.351-1.3-1.351h-.884v4.181h-1.095Zm9.253,1.692a4.632,4.632,0,0,1-1.683.292V-13.4c1.151-.027,1.7-.385,2.021-1.23h.756v9.273h-1.093Zm2.326,5.411v-.622H202.1v.7c0,.78.351,1.269,1.166,1.269.784,0,1.148-.436,1.148-1.269v-2c0-.871-.407-1.242-1.08-1.242a1.112,1.112,0,0,0-1.191,1.018v.08h-1.038l.281-5.042h3.9v.939h-2.932l-.154,2.819a1.712,1.712,0,0,1,1.542-.756c1.163,0,1.766.741,1.766,2.105v2a2.026,2.026,0,0,1-2.215,2.289,2.036,2.036,0,0,1-2.231-2.289m5.608.821h1.108v1.336H206.67Zm5.694-4.379v-1.469c0-.847-.393-1.27-1.15-1.27-.773,0-1.166.423-1.166,1.27v1.548c0,.793.324,1.284,1.11,1.284a1.2,1.2,0,0,0,1.206-1.363M209-7.512V-7.67h1.04v.225c0,.886.4,1.282,1.15,1.282.77,0,1.178-.4,1.178-1.442v-2.09a1.7,1.7,0,0,1-1.6.927c-1.264,0-1.81-.821-1.81-2.144v-1.561a2.044,2.044,0,0,1,2.259-2.275,2.038,2.038,0,0,1,2.243,2.275v4.908a2.041,2.041,0,0,1-2.243,2.341A2.024,2.024,0,0,1,209-7.512m11.864.874V-9.124c0-.516-.252-.769-.689-.769s-.686.253-.686.769v2.486c0,.517.237.768.686.768s.689-.251.689-.768m-2.133-.054v-2.38a1.3,1.3,0,0,1,1.445-1.455,1.309,1.309,0,0,1,1.445,1.455V-6.69a1.32,1.32,0,0,1-1.445,1.469,1.314,1.314,0,0,1-1.445-1.469m.815-7.925h.742l-3.814,9.259h-.758Zm-3,3.759v-2.488c0-.516-.252-.766-.686-.766s-.687.251-.687.766v2.488c0,.515.239.766.687.766s.686-.252.686-.766m-2.131-.054v-2.383a1.314,1.314,0,0,1,1.445-1.469,1.321,1.321,0,0,1,1.445,1.469v2.383a1.31,1.31,0,0,1-1.445,1.454,1.3,1.3,0,0,1-1.445-1.454" transform="translate(0.084 80.133)" fill="#fff"/>
    </g>
  </g>
</svg>
