<?xml version="1.0" encoding="utf-8"?>
<!-- Generator: Adobe Illustrator 28.0.0, SVG Export Plug-In . SVG Version: 6.00 Build 0)  -->
<svg version="1.1" id="Layer_1" xmlns="http://www.w3.org/2000/svg" xmlns:xlink="http://www.w3.org/1999/xlink" x="0px" y="0px"
	 viewBox="0 0 615.3 86" style="enable-background:new 0 0 615.3 86;" xml:space="preserve">
<style type="text/css">
	.st0{clip-path:url(#SVGID_00000138544905324416553500000017626118958442980270_);fill:#00B478;}
	.st1{clip-path:url(#SVGID_00000138544905324416553500000017626118958442980270_);fill:#19B24C;}
	.st2{clip-path:url(#SVGID_00000138544905324416553500000017626118958442980270_);fill:none;stroke:#FFFFFF;stroke-width:1.933;}
	.st3{fill:#FFFFFF;}
</style>
<g>
	<defs>
		<rect id="SVGID_1_" width="615.3" height="86"/>
	</defs>
	<clipPath id="SVGID_00000172434543353717882000000006721714742138428073_">
		<use xlink:href="#SVGID_1_"  style="overflow:visible;"/>
	</clipPath>
	<path style="clip-path:url(#SVGID_00000172434543353717882000000006721714742138428073_);fill:#00B478;" d="M41.7,3
		C19.3,3,1.2,21.1,1.2,43.5S19.3,84,41.7,84h520.6V3H41.7z"/>
	<path style="clip-path:url(#SVGID_00000172434543353717882000000006721714742138428073_);fill:#19B24C;" d="M562.2,85
		c23.2,0,42-18.9,42-42c0-23.2-18.9-42-42-42c-23.2,0-42,18.9-42,42C520.2,66.2,539,85,562.2,85"/>
	
		<path style="clip-path:url(#SVGID_00000172434543353717882000000006721714742138428073_);fill:none;stroke:#FFFFFF;stroke-width:1.933;" d="
		M562.2,85c23.2,0,42-18.9,42-42c0-23.2-18.9-42-42-42c-23.2,0-42,18.9-42,42C520.2,66.2,539,85,562.2,85z"/>
</g>
<g>
	<path class="st3" d="M15.7,34.5h14.9v3.2H19.2v5.4h10.1v3.2H19.2v8.1h-3.5V34.5z"/>
	<path class="st3" d="M33.7,34.5h8.9c2.5,0,4.5,0.7,5.8,2c1.1,1.1,1.7,2.6,1.7,4.3v0.1c0,3.3-2,5.2-4.8,6l5.4,7.6h-4.1l-4.9-7h-4.4
		v7h-3.5V34.5z M42.3,44.3c2.5,0,4.1-1.3,4.1-3.3V41c0-2.1-1.5-3.3-4.1-3.3h-5.1v6.7H42.3z"/>
	<path class="st3" d="M53.6,34.5h14.8v3.1H57.1v5.2h10v3.1h-10v5.4h11.4v3.1H53.6V34.5z"/>
	<path class="st3" d="M72,34.5h14.8v3.1H75.5v5.2h10v3.1h-10v5.4h11.4v3.1H72V34.5z"/>
	<path class="st3" d="M96.9,51.2l2.5-2.3c1.4,1.7,3,2.6,5.2,2.6c2,0,3.4-1.2,3.4-3v-0.1c0-2-1.8-3.1-4.6-3.1h-1.6l-0.6-2.2l5.4-5.7
		H98v-3h13.2v2.6l-5.6,5.7c3,0.4,5.9,1.9,5.9,5.6v0.1c0,3.7-2.9,6.3-7,6.3C101.1,54.8,98.6,53.3,96.9,51.2z"/>
	<path class="st3" d="M114.2,44.5L114.2,44.5c0-5.8,3.5-10.4,8.7-10.4c5.2,0,8.7,4.6,8.7,10.3v0.1c0,5.7-3.5,10.3-8.7,10.3
		C117.6,54.8,114.2,50.2,114.2,44.5z M128,44.5L128,44.5c0-4-2-7.2-5.1-7.2s-5,3.1-5,7.1v0.1c0,3.9,2,7.2,5.1,7.2
		C126,51.6,128,48.4,128,44.5z"/>
	<path class="st3" d="M141.6,51.5l2.1-2.5c1.9,1.7,3.8,2.6,6.3,2.6c2.2,0,3.5-1,3.5-2.5V49c0-1.4-0.8-2.2-4.5-3.1
		c-4.2-1-6.6-2.3-6.6-6V40c0-3.4,2.9-5.8,6.8-5.8c2.9,0,5.2,0.9,7.2,2.5l-1.9,2.7c-1.8-1.3-3.6-2.1-5.4-2.1c-2.1,0-3.2,1.1-3.2,2.4
		v0.1c0,1.5,0.9,2.2,4.7,3.1c4.2,1,6.4,2.5,6.4,5.8v0.1c0,3.7-2.9,6-7.1,6C146.9,54.7,144,53.6,141.6,51.5z"/>
	<path class="st3" d="M160.5,34.5h14.8v3.1H164v5.2h10v3.1h-10v5.4h11.4v3.1h-14.9V34.5z"/>
	<path class="st3" d="M178,44.5L178,44.5c0-5.7,4.2-10.4,10.3-10.4c3.7,0,5.9,1.3,7.8,3.1l-2.3,2.6c-1.6-1.5-3.3-2.5-5.6-2.5
		c-3.8,0-6.6,3.1-6.6,7v0.1c0,3.9,2.8,7.1,6.6,7.1c2.5,0,4-1,5.7-2.6l2.3,2.3c-2.1,2.2-4.4,3.5-8.1,3.5
		C182.3,54.8,178,50.2,178,44.5z"/>
	<path class="st3" d="M197.7,44.5L197.7,44.5c0-5.7,4.3-10.4,10.5-10.4c6.1,0,10.4,4.6,10.4,10.3v0.1c0,5.6-4.3,10.3-10.5,10.3
		C202,54.8,197.7,50.1,197.7,44.5z M214.9,44.5L214.9,44.5c0-3.9-2.8-7.2-6.8-7.2s-6.7,3.2-6.7,7v0.1c0,3.9,2.8,7.1,6.8,7.1
		S214.9,48.4,214.9,44.5z"/>
	<path class="st3" d="M222.2,34.5h3.2l10.7,13.8V34.5h3.4v20h-2.9l-11-14.2v14.2h-3.4V34.5z"/>
	<path class="st3" d="M244,34.5h7.4c6.3,0,10.6,4.3,10.6,9.9v0.1c0,5.6-4.3,10-10.6,10H244V34.5z M251.4,51.2c4.2,0,6.9-2.8,6.9-6.7
		v-0.1c0-3.9-2.7-6.8-6.9-6.8h-3.9v13.6H251.4z"/>
	<path class="st3" d="M273.5,34.5h14.8v3.2H277v5.4H287v3.2H277v8.1h-3.5V34.5z"/>
	<path class="st3" d="M291.7,34.5h3.5v20h-3.5V34.5z"/>
	<path class="st3" d="M299.8,34.5h3.2l10.7,13.8V34.5h3.4v20h-2.9l-11-14.2v14.2h-3.4V34.5z"/>
	<path class="st3" d="M328.7,34.3h3.2l8.8,20.1H337l-2-4.8h-9.4l-2.1,4.8h-3.6L328.7,34.3z M333.7,46.5l-3.4-8l-3.4,8H333.7z"/>
	<path class="st3" d="M343.4,34.5h3.2l10.7,13.8V34.5h3.4v20h-2.9l-11-14.2v14.2h-3.4V34.5z"/>
	<path class="st3" d="M364.4,44.5L364.4,44.5c0-5.7,4.2-10.4,10.3-10.4c3.7,0,5.9,1.3,7.8,3.1l-2.3,2.6c-1.6-1.5-3.3-2.5-5.6-2.5
		c-3.8,0-6.6,3.1-6.6,7v0.1c0,3.9,2.8,7.1,6.6,7.1c2.5,0,4-1,5.7-2.6l2.3,2.3c-2.1,2.2-4.4,3.5-8.1,3.5
		C368.7,54.8,364.4,50.2,364.4,44.5z"/>
	<path class="st3" d="M385.6,34.5h14.8v3.1h-11.3v5.2h10v3.1h-10v5.4h11.4v3.1h-14.9V34.5z"/>
	<path class="st3" d="M411,44.5L411,44.5c0-5.7,4.2-10.4,10.3-10.4c3.7,0,5.9,1.3,7.8,3.1l-2.3,2.6c-1.6-1.5-3.3-2.5-5.6-2.5
		c-3.8,0-6.6,3.1-6.6,7v0.1c0,3.9,2.8,7.1,6.6,7.1c2.5,0,4-1,5.7-2.6l2.3,2.3c-2.1,2.2-4.4,3.5-8.1,3.5
		C415.3,54.8,411,50.2,411,44.5z"/>
	<path class="st3" d="M432.2,34.5h3.5v8.3h9.5v-8.3h3.5v20h-3.5V46h-9.5v8.4h-3.5V34.5z"/>
	<path class="st3" d="M453.2,34.5H468v3.1h-11.3v5.2h10v3.1h-10v5.4h11.4v3.1h-14.9V34.5z"/>
	<path class="st3" d="M470.7,44.5L470.7,44.5c0-5.7,4.2-10.4,10.3-10.4c3.7,0,5.9,1.3,7.8,3.1l-2.3,2.6c-1.6-1.5-3.3-2.5-5.6-2.5
		c-3.8,0-6.6,3.1-6.6,7v0.1c0,3.9,2.8,7.1,6.6,7.1c2.5,0,4-1,5.7-2.6l2.3,2.3c-2.1,2.2-4.4,3.5-8.1,3.5
		C475,54.8,470.7,50.2,470.7,44.5z"/>
	<path class="st3" d="M491.9,34.5h3.5v10l9.5-10h4.3l-8.3,8.6l8.7,11.4h-4.2l-6.8-9l-3.1,3.2v5.8h-3.5V34.5z"/>
</g>
<g>
	<path class="st3" d="M537.6,33.7L537.6,33.7c0-4.4,3.3-8,7.9-8c2.8,0,4.6,1,6,2.4l-1.7,2c-1.2-1.1-2.6-1.9-4.3-1.9
		c-2.9,0-5.1,2.4-5.1,5.4v0c0,3,2.1,5.5,5.1,5.5c1.9,0,3.1-0.8,4.4-2l1.7,1.8c-1.6,1.7-3.4,2.7-6.2,2.7
		C541,41.6,537.6,38.1,537.6,33.7z"/>
	<path class="st3" d="M553.9,25.3h2.7v16.1h-2.7V25.3z"/>
	<path class="st3" d="M559.5,25.4h2.9V28h-2.9V25.4z M559.6,29.7h2.7v11.6h-2.7V29.7z"/>
	<path class="st3" d="M564.5,35.6L564.5,35.6c0-3.3,2.6-6.1,6-6.1c2.2,0,3.6,0.8,4.6,2l-1.6,1.8c-0.8-0.9-1.7-1.5-3-1.5
		c-1.9,0-3.3,1.7-3.3,3.7v0c0,2.1,1.4,3.7,3.5,3.7c1.3,0,2.2-0.6,3-1.5l1.6,1.6c-1.1,1.3-2.5,2.2-4.8,2.2
		C567.1,41.6,564.5,38.9,564.5,35.6z"/>
	<path class="st3" d="M577.2,25.3h2.7v9.6l4.8-5.1h3.2l-4.6,4.7l4.8,6.9H585l-3.5-5l-1.6,1.7v3.3h-2.7V25.3z"/>
</g>
<g>
	<path class="st3" d="M539.1,45.4h2.7v6.4h7.3v-6.4h2.7v15.4h-2.7v-6.5h-7.3v6.5h-2.7V45.4z"/>
	<path class="st3" d="M554.3,55.1L554.3,55.1c0-3.4,2.4-6.1,5.7-6.1c3.7,0,5.6,2.9,5.6,6.2c0,0.2,0,0.5,0,0.7H557
		c0.3,1.9,1.6,2.9,3.3,2.9c1.3,0,2.2-0.5,3.1-1.4l1.6,1.4c-1.1,1.3-2.6,2.2-4.8,2.2C556.9,61.1,554.3,58.6,554.3,55.1z M562.9,54.2
		c-0.2-1.7-1.2-3.1-2.9-3.1c-1.6,0-2.8,1.3-3,3.1H562.9z"/>
	<path class="st3" d="M567.7,49.2h2.7v2.6c0.7-1.7,2.1-2.9,4.1-2.8v2.8h-0.2c-2.3,0-4,1.5-4,4.6v4.4h-2.7V49.2z"/>
	<path class="st3" d="M575.3,55.1L575.3,55.1c0-3.4,2.4-6.1,5.7-6.1c3.7,0,5.6,2.9,5.6,6.2c0,0.2,0,0.5,0,0.7h-8.5
		c0.3,1.9,1.6,2.9,3.3,2.9c1.3,0,2.2-0.5,3.1-1.4l1.6,1.4c-1.1,1.3-2.6,2.2-4.8,2.2C577.9,61.1,575.3,58.6,575.3,55.1z M583.9,54.2
		c-0.2-1.7-1.2-3.1-2.9-3.1c-1.6,0-2.8,1.3-3,3.1H583.9z"/>
</g>
</svg>
