<?xml version="1.0" encoding="utf-8"?>
<!-- Generator: Adobe Illustrator 28.1.0, SVG Export Plug-In . SVG Version: 6.00 Build 0)  -->
<svg version="1.1" id="Layer_1" xmlns="http://www.w3.org/2000/svg" xmlns:xlink="http://www.w3.org/1999/xlink" x="0px" y="0px"
	 viewBox="0 0 165.3 37.8" style="enable-background:new 0 0 165.3 37.8;" xml:space="preserve">
<style type="text/css">
	.st0{fill:#0044B0;}
	.st1{fill:none;}
	.st2{fill:#FFFFFF;}
	.st3{fill:#F7FB0E;}
	.st4{fill:#253C72;}
	.st5{clip-path:url(#SVGID_00000137821855426426653580000016529653111262713255_);fill:#FFFFFF;}
	
		.st6{clip-path:url(#SVGID_00000137821855426426653580000016529653111262713255_);fill:none;stroke:#FFFFFF;stroke-width:0.3079;stroke-miterlimit:10;}
	
		.st7{clip-path:url(#SVGID_00000137821855426426653580000016529653111262713255_);fill:none;stroke:#FFFFFF;stroke-width:0.4105;stroke-miterlimit:10;}
	.st8{clip-path:url(#SVGID_00000137821855426426653580000016529653111262713255_);fill:#ADBAB3;}
	.st9{clip-path:url(#SVGID_00000137821855426426653580000016529653111262713255_);fill:#FCED0A;}
</style>
<path class="st0" d="M0,8.4v23.8c0,3.1,2.5,5.7,5.7,5.7h153.9c3.1,0,5.7-2.5,5.7-5.7V8.4H0z"/>
<rect y="0" class="st1" width="165.3" height="37.8"/>
<g>
	<g>
		<path class="st2" d="M4.9,13.6h3.4v1.2H6.1v2.3h1.7v1.2H6.1v3.6H4.8L4.9,13.6C4.8,13.6,4.9,13.6,4.9,13.6z"/>
		<path class="st2" d="M9,13.6h1.9c1.3,0,1.9,0.7,1.9,1.9V16c0,0.8-0.3,1.4-0.8,1.7l0,0c0.7,0.2,0.8,0.8,0.8,1.8v1.4
			c0,0.4,0,0.7,0.2,1h-1.3c-0.1-0.3-0.1-0.3-0.1-1v-1.5c0-0.8-0.3-1-0.8-1h-0.4V22H9V13.6z M10.7,17.2c0.5,0,0.8-0.3,0.8-0.8v-0.7
			c0-0.6-0.2-0.8-0.7-0.8h-0.6v2.3H10.7z"/>
		<path class="st2" d="M13.7,13.6h3.6v1.2H15V17h1.8v1.2H15v2.5h2.3v1.2h-3.6C13.7,21.9,13.7,13.6,13.7,13.6z"/>
		<path class="st2" d="M18,13.6h3.5v1.2h-2.3V17H21v1.2h-1.8v2.5h2.3v1.2h-3.6L18,13.6L18,13.6z"/>
	</g>
	<g>
		<path class="st3" d="M23.8,20v-0.7h1.3v0.8c0,0.6,0.3,0.8,0.7,0.8c0.4,0,0.7-0.2,0.7-0.9v-0.7c0-0.8-0.3-1.1-0.8-1.1h-0.4V17h0.5
			c0.5,0,0.8-0.3,0.8-0.8v-0.7c0-0.6-0.3-0.8-0.7-0.8c-0.4,0-0.7,0.3-0.7,0.8v0.6h-1.3v-0.4c0-1.3,0.7-2.1,1.9-2.1s1.9,0.8,1.9,2.1
			V16c0,0.9-0.3,1.4-0.9,1.7l0,0c0.7,0.3,0.9,0.8,0.9,1.7v0.8c0,1.3-0.7,2.1-1.9,2.1C24.5,22.1,23.8,21.3,23.8,20z"/>
		<path class="st3" d="M28.4,20v-4.3c0-1.3,0.7-2.1,2-2.1s2,0.8,2,2.1V20c0,1.3-0.7,2.1-2,2.1S28.4,21.3,28.4,20z M31.1,20.1v-4.5
			c0-0.6-0.3-0.8-0.7-0.8s-0.7,0.3-0.7,0.8v4.5c0,0.6,0.3,0.8,0.7,0.8S31.1,20.6,31.1,20.1z"/>
		<path class="st3" d="M34.9,20v-0.5h1.3v0.6c0,0.6,0.3,0.8,0.7,0.8s0.7-0.3,0.7-0.8c0-0.7-0.3-1.1-1.2-1.8
			c-1.1-0.9-1.4-1.7-1.4-2.6c0-1.3,0.7-2.1,1.9-2.1s1.9,0.8,1.9,2.1V16h-1.3v-0.4c0-0.6-0.3-0.8-0.7-0.8s-0.7,0.3-0.7,0.8
			c0,0.6,0.3,1,1.2,1.8c1.1,0.9,1.4,1.7,1.4,2.7c0,1.3-0.7,2.1-2,2.1C35.6,22.1,34.9,21.3,34.9,20z"/>
		<path class="st3" d="M39.5,13.6h3.6v1.2h-2.3V17h1.8v1.2h-1.8v2.5h2.3v1.2h-3.6V13.6z"/>
		<path class="st3" d="M43.7,20.1v-4.5c0-1.3,0.7-2,1.9-2s1.9,0.8,1.9,2v0.8h-1.3v-0.9c0-0.6-0.3-0.8-0.7-0.8s-0.7,0.3-0.7,0.8v4.6
			c0,0.6,0.3,0.8,0.7,0.8s0.7-0.3,0.7-0.8v-1.2h1.3V20c0,1.3-0.7,2-1.9,2C44.3,22.1,43.7,21.3,43.7,20.1z"/>
		<path class="st3" d="M48.2,20v-4.3c0-1.3,0.7-2.1,2-2.1s2,0.8,2,2.1V20c0,1.3-0.7,2.1-2,2.1S48.2,21.3,48.2,20z M50.8,20.1v-4.5
			c0-0.6-0.3-0.8-0.7-0.8s-0.7,0.3-0.7,0.8v4.5c0,0.6,0.3,0.8,0.7,0.8S50.8,20.6,50.8,20.1z"/>
		<path class="st3" d="M53,13.6h1.6l1.3,4.9v-4.9h1.2v8.3h-1.3l-1.6-6v6H53V13.6z"/>
		<path class="st3" d="M58.1,13.6h2c1.3,0,1.9,0.8,1.9,2.1v4.2c0,1.3-0.7,2.1-1.9,2.1h-2V13.6z M60,20.7c0.4,0,0.7-0.3,0.7-0.8v-4.3
			c0-0.6-0.3-0.8-0.7-0.8h-0.7v5.9H60L60,20.7z"/>
	</g>
	<g>
		<path class="st2" d="M6.5,24.6h3.4v1.2H7.7v2.3h1.7v1.2H7.7v3.6H6.5V24.6z"/>
		<path class="st2" d="M10.5,24.6h1.3v8.3h-1.3V24.6z"/>
		<path class="st2" d="M12.8,24.6h1.6l1.3,4.9v-4.9h1.2v8.3h-1.3l-1.6-6v6h-1.2C12.8,32.9,12.8,24.6,12.8,24.6z"/>
		<path class="st2" d="M20.4,31.2h-1.5l-0.3,1.6h-1.2l1.3-8.3h1.8l1.3,8.3h-1.3L20.4,31.2z M20.2,30.1L19.6,26L19,30.2h1.2V30.1z"/>
		<path class="st2" d="M22.6,24.6h1.6l1.3,4.9v-4.9h1.2v8.3h-1.3l-1.6-6v6h-1.2V24.6z"/>
		<path class="st2" d="M27.5,31v-4.4c0-1.3,0.7-2,1.9-2s1.9,0.8,1.9,2v0.8H30v-1c0-0.6-0.3-0.8-0.7-0.8s-0.7,0.3-0.7,0.8V31
			c0,0.6,0.3,0.8,0.7,0.8S30,31.5,30,31v-1.2h1.3v1.1c0,1.3-0.7,2-1.9,2C28.1,33,27.5,32.2,27.5,31z"/>
		<path class="st2" d="M32.1,24.6h3.6v1.2h-2.3V28h1.8v1.2h-1.8v2.5h2.3v1.2h-3.6V24.6z"/>
		<path class="st2" d="M38.2,31v-4.4c0-1.3,0.7-2,1.9-2s1.9,0.8,1.9,2v0.8h-1.3v-1c0-0.6-0.3-0.8-0.7-0.8s-0.7,0.3-0.7,0.8V31
			c0,0.6,0.3,0.8,0.7,0.8s0.7-0.3,0.7-0.8v-1.2H42v1.1c0,1.3-0.7,2-1.9,2C38.7,33,38.2,32.2,38.2,31z"/>
		<path class="st2" d="M42.7,24.6H44v3.3h1.4v-3.3h1.3v8.3h-1.3v-3.8H44v3.8h-1.3V24.6L42.7,24.6z"/>
		<path class="st2" d="M47.7,24.6h3.6v1.2H49V28h1.8v1.2H49v2.5h2.3v1.2h-3.6C47.7,32.7,47.7,24.6,47.7,24.6z"/>
		<path class="st2" d="M51.8,31v-4.4c0-1.3,0.7-2,1.9-2s1.9,0.8,1.9,2v0.8h-1.3v-1c0-0.6-0.3-0.8-0.7-0.8S53,25.9,53,26.4V31
			c0,0.6,0.3,0.8,0.7,0.8s0.7-0.3,0.7-0.8v-1.2h1.2v1.1c0,1.3-0.7,2-1.9,2C52.5,33,51.8,32.2,51.8,31z"/>
		<path class="st2" d="M58.3,29.2l-0.5,1v2.6h-1.3v-8.3h1.3v3.6l1.7-3.6h1.3l-1.6,3l1.6,5.3h-1.3L58.3,29.2z"/>
	</g>
</g>
<rect y="0" class="st1" width="165.3" height="37.8"/>
<rect y="0" class="st1" width="165.3" height="37.8"/>
<path class="st0" d="M83.6,36.2c9.9,0,17.9-8,17.9-17.9s-8-18-17.9-18s-18,8-18,17.9S73.7,36.2,83.6,36.2"/>
<path class="st2" d="M83.6,5.5c7,0,12.7,5.7,12.7,12.7s-5.7,12.7-12.7,12.7s-12.7-5.7-12.7-12.7S76.6,5.5,83.6,5.5"/>
<path class="st2" d="M83.6,6c-6.8,0-12.3,5.5-12.3,12.3s5.5,12.2,12.2,12.2S95.7,25,95.8,18.3C95.8,11.5,90.3,6,83.6,6"/>
<g>
	<path class="st4" d="M75.4,15.9v-3.7c0-1.1,0.6-1.7,1.6-1.7c1.1,0,1.6,0.6,1.6,1.7v0.7h-1v-0.8c0-0.5-0.2-0.6-0.5-0.6
		s-0.5,0.2-0.5,0.6V16c0,0.5,0.2,0.6,0.5,0.6s0.5-0.2,0.5-0.6v-1h1v0.9c0,1.1-0.6,1.7-1.6,1.7C75.9,17.7,75.4,17,75.4,15.9z"/>
	<path class="st4" d="M79.2,10.6h1.1v6h1.8v1h-2.9V10.6L79.2,10.6z"/>
	<path class="st4" d="M82.7,10.6h1.1v7h-1.1V10.6z"/>
	<path class="st4" d="M84.5,15.9v-3.7c0-1.1,0.6-1.7,1.6-1.7c1.1,0,1.6,0.6,1.6,1.7v0.7h-1v-0.8c0-0.5-0.2-0.6-0.5-0.6
		s-0.5,0.2-0.5,0.6V16c0,0.5,0.2,0.6,0.5,0.6s0.5-0.2,0.5-0.6v-1h1v0.9c0,1.1-0.6,1.7-1.6,1.7C85.1,17.7,84.5,17,84.5,15.9z"/>
	<path class="st4" d="M89.9,14.5l-0.4,0.9v2.2h-1.1v-7h1.1v3l1.4-3H92l-1.3,2.6l1.3,4.4h-1.1L89.9,14.5z"/>
</g>
<g>
	<path class="st4" d="M76.3,19.2h1.1V22h1.2v-2.8h1.1v7h-1.1v-3.1h-1.2v3.1h-1.1V19.2z"/>
	<path class="st4" d="M80.5,19.2h3v1h-1.9V22h1.5v1h-1.5v2.1h1.9v1h-3V19.2z"/>
	<path class="st4" d="M84.1,19.2h1.6c1.1,0,1.6,0.5,1.6,1.6v0.5c0,0.7-0.2,1.2-0.7,1.4l0,0c0.5,0.2,0.7,0.7,0.7,1.5v1.1
		c0,0.3,0,0.6,0.1,0.8h-1.1c-0.1-0.2-0.1-0.3-0.1-0.9v-1.3c0-0.6-0.2-0.9-0.7-0.9h-0.4v3H84L84.1,19.2L84.1,19.2z M85.6,22.2
		c0.4,0,0.7-0.2,0.7-0.7V21c0-0.5-0.2-0.7-0.6-0.7h-0.5v2L85.6,22.2L85.6,22.2z"/>
	<path class="st4" d="M88.1,19.2h3v1h-1.9V22h1.5v1h-1.5v2.1h1.9v1h-3V19.2z"/>
</g>
<g>
	<path class="st2" d="M111.7,12.3h1.9c1.3,0,1.9,0.6,1.9,1.8V17c0,1.2-0.7,1.8-1.9,1.8h-1.9V12.3z M113.7,17.9
		c0.6,0,0.9-0.3,0.9-0.9v-2.9c0-0.6-0.3-0.9-0.9-0.9h-0.8v4.7C112.9,17.9,113.7,17.9,113.7,17.9z"/>
	<path class="st2" d="M116.6,12.3h1.9c1.3,0,1.9,0.5,1.9,1.6v0.2c0,0.8-0.3,1.2-0.9,1.4l0,0c0.6,0.1,0.9,0.6,0.9,1.6v0.8
		c0,0.3,0,0.6,0.1,0.9h-1.1c-0.1-0.2-0.1-0.3-0.1-0.9V17c0-0.7-0.3-1-1-1h-0.6v2.7h-1.1C116.6,18.7,116.6,12.3,116.6,12.3z
		 M118.3,15.2c0.7,0,1-0.3,1-0.9v-0.2c0-0.6-0.3-0.8-0.8-0.8h-0.8v1.9H118.3z"/>
	<path class="st2" d="M121.4,12.3h1.1v6.5h-1.1V12.3z"/>
	<path class="st2" d="M123.3,12.3h1.1l1.1,5.3l1.1-5.3h1l-1.4,6.5h-1.4L123.3,12.3z"/>
	<path class="st2" d="M128.3,12.3h3.5v0.9h-2.4V15h1.9v1h-1.9v1.9h2.4v0.9h-3.5V12.3z"/>
	<path class="st2" d="M137,17.6h-1.7l-0.3,1.3h-1l1.4-6.5h1.4l1.5,6.5h-1.1L137,17.6z M136.8,16.6l-0.7-3.2l-0.7,3.2H136.8z"/>
	<path class="st2" d="M138.6,12.3h1l0.7,5.2l0.8-5.2h1.1l0.8,5.2l0.7-5.2h0.9l-1,6.5h-1.3l-0.8-4.8l-0.8,4.8h-1.4L138.6,12.3z"/>
	<path class="st2" d="M147.9,17.6h-1.7l-0.3,1.3h-1l1.4-6.5h1.4l1.5,6.5h-1.1L147.9,17.6z M147.7,16.6l-0.7-3.2l-0.7,3.2H147.7z"/>
	<path class="st2" d="M150.8,16.1l-1.6-3.8h1.2l1.1,2.5l1.1-2.5h1.1l-1.6,3.8v2.8H151v-2.8H150.8z"/>
	<path class="st3" d="M113.9,23.6h-2.5v-2.1h7.5v2.1h-2.5v10.1H114L113.9,23.6L113.9,23.6z"/>
	<path class="st3" d="M120,30.3v-5.5c0-2.2,1.3-3.5,3.7-3.5c2.4,0,3.7,1.3,3.7,3.5v5.5c0,2.2-1.3,3.5-3.7,3.5S120,32.5,120,30.3z
		 M124.9,30.4v-5.7c0-0.8-0.4-1.3-1.3-1.3c-0.8,0-1.3,0.5-1.3,1.3v5.7c0,0.8,0.4,1.3,1.3,1.3S124.9,31.2,124.9,30.4z"/>
	<path class="st3" d="M129.1,21.4h3.7c2.4,0,3.6,1.2,3.6,3.4v5.3c0,2.2-1.3,3.4-3.6,3.4h-3.7V21.4z M132.7,31.5
		c0.9,0,1.2-0.4,1.2-1.3v-5.4c0-0.9-0.4-1.3-1.2-1.3h-1.2v7.9L132.7,31.5L132.7,31.5z"/>
	<path class="st3" d="M142.8,31.4h-2.7l-0.4,2.2h-2.3l2.5-12.2h3.3l2.5,12.2h-2.5L142.8,31.4z M142.4,29.3l-1-5.4l-1,5.4H142.4z"/>
	<path class="st3" d="M148.2,28.6l-2.9-7.1h2.6l1.6,4.3l1.7-4.3h2.4l-2.9,7.1v5h-2.4v-5H148.2z"/>
</g>
<rect x="66.5" y="1.3" class="st1" width="34.2" height="34.1"/>
<g>
	<defs>
		<rect id="SVGID_1_" x="66.3" y="1.1" width="34.5" height="34.4"/>
	</defs>
	<clipPath id="SVGID_00000179636978146687563770000003797207468392804484_">
		<use xlink:href="#SVGID_1_"  style="overflow:visible;"/>
	</clipPath>
	<path style="clip-path:url(#SVGID_00000179636978146687563770000003797207468392804484_);fill:#FFFFFF;" d="M83.8,1.3
		c0.1,0,0.2,0,0.3,0c0.1,0,0.1,0,0.1,0.1c0,0.4,0,0.7,0,1.1c0,0.1,0,0.1,0,0.2c0,0.5-0.1,1,0,1.6c0,0.1,0,0.1-0.1,0.1
		c-0.2,0-0.3,0-0.5,0c-0.1,0-0.1,0-0.1-0.1c0-0.6,0-1.2,0-1.7c0-0.4,0-0.7,0-1.1c0-0.1,0-0.1,0.1-0.1C83.5,1.3,83.7,1.3,83.8,1.3
		L83.8,1.3z"/>
	
		<path style="clip-path:url(#SVGID_00000179636978146687563770000003797207468392804484_);fill:none;stroke:#FFFFFF;stroke-width:0.3079;stroke-miterlimit:10;" d="
		M83.8,1.3c0.1,0,0.2,0,0.3,0c0.1,0,0.1,0,0.1,0.1c0,0.4,0,0.7,0,1.1c0,0.1,0,0.1,0,0.2c0,0.5-0.1,1,0,1.6c0,0.1,0,0.1-0.1,0.1
		c-0.2,0-0.3,0-0.5,0c-0.1,0-0.1,0-0.1-0.1c0-0.6,0-1.2,0-1.7c0-0.4,0-0.7,0-1.1c0-0.1,0-0.1,0.1-0.1C83.5,1.3,83.7,1.3,83.8,1.3
		L83.8,1.3z"/>
	<path style="clip-path:url(#SVGID_00000179636978146687563770000003797207468392804484_);fill:#FFFFFF;" d="M69.2,18.4
		c-0.8,0-1.5,0-2.3,0c-0.1,0-0.2,0-0.2,0c-0.1,0-0.2-0.1-0.1-0.2c0-0.1,0-0.2,0-0.3c0-0.1,0-0.1,0.1-0.1c0.3,0,0.6,0,0.8,0
		c0.6,0,1.2,0,1.7,0c0.1,0,0.2,0,0.3,0c0.1,0,0.1,0,0.1,0.1c0,0.1,0,0.2,0,0.4c0,0.1,0,0.1-0.1,0.1C69.4,18.4,69.3,18.4,69.2,18.4"
		/>
	
		<path style="clip-path:url(#SVGID_00000179636978146687563770000003797207468392804484_);fill:none;stroke:#FFFFFF;stroke-width:0.4105;stroke-miterlimit:10;" d="
		M69.2,18.4c-0.8,0-1.5,0-2.3,0c-0.1,0-0.2,0-0.2,0c-0.1,0-0.2-0.1-0.1-0.2c0-0.1,0-0.2,0-0.3c0-0.1,0-0.1,0.1-0.1
		c0.3,0,0.6,0,0.8,0c0.6,0,1.2,0,1.7,0c0.1,0,0.2,0,0.3,0c0.1,0,0.1,0,0.1,0.1c0,0.1,0,0.2,0,0.4c0,0.1,0,0.1-0.1,0.1
		C69.4,18.4,69.3,18.4,69.2,18.4"/>
	<path style="clip-path:url(#SVGID_00000179636978146687563770000003797207468392804484_);fill:#FFFFFF;" d="M83.7,33.1
		c0,0.2,0,0.3,0,0.5c0,0.5,0,1,0,1.6c0,0.2,0,0.2-0.2,0.1c-0.1,0-0.2,0-0.3,0c-0.1,0-0.1,0-0.1-0.1c0-0.4,0-0.8,0-1.3
		c0-0.5,0-0.9,0-1.4c0-0.1,0-0.1,0-0.2c0,0,0-0.1,0.1-0.1c0.1,0,0.2,0,0.4,0c0.1,0,0.1,0,0.1,0.1C83.7,32.6,83.7,32.8,83.7,33.1
		L83.7,33.1z"/>
	
		<path style="clip-path:url(#SVGID_00000179636978146687563770000003797207468392804484_);fill:none;stroke:#FFFFFF;stroke-width:0.4105;stroke-miterlimit:10;" d="
		M83.7,33.1c0,0.2,0,0.3,0,0.5c0,0.5,0,1,0,1.6c0,0.2,0,0.2-0.2,0.1c-0.1,0-0.2,0-0.3,0c-0.1,0-0.1,0-0.1-0.1c0-0.4,0-0.8,0-1.3
		c0-0.5,0-0.9,0-1.4c0-0.1,0-0.1,0-0.2c0,0,0-0.1,0.1-0.1c0.1,0,0.2,0,0.4,0c0.1,0,0.1,0,0.1,0.1C83.7,32.6,83.7,32.8,83.7,33.1
		L83.7,33.1z"/>
	<path style="clip-path:url(#SVGID_00000179636978146687563770000003797207468392804484_);fill:#ADBAB3;" d="M69.8,20.3
		C69.8,20.4,69.7,20.4,69.8,20.3c-0.5,0.2-1,0.2-1.4,0.3c-0.4,0.1-0.9,0.1-1.3,0.2c-0.1,0-0.2,0-0.2,0c-0.1,0-0.1,0-0.1-0.1
		c0-0.2,0-0.3-0.1-0.5c0-0.1,0-0.1,0.1-0.1c0.3,0,0.5-0.1,0.8-0.1c0.3,0,0.7-0.1,1-0.1c0.3,0,0.6-0.1,0.9-0.1c0.1,0,0.1,0,0.2,0
		c0,0,0.1,0,0.1,0.1C69.7,20,69.7,20.2,69.8,20.3"/>
	<path style="clip-path:url(#SVGID_00000179636978146687563770000003797207468392804484_);fill:#ADBAB3;" d="M81.7,32.2
		c0,0.2-0.1,0.5-0.1,0.7c0,0.3-0.1,0.7-0.1,1c0,0.3-0.1,0.5-0.1,0.8c0,0.1,0,0.2,0,0.3c0,0.1,0,0.1-0.1,0.1c-0.1,0-0.3,0-0.4-0.1
		c-0.1,0-0.1-0.1-0.1-0.1c0-0.2,0.1-0.4,0.1-0.6c0.1-0.4,0.1-0.9,0.2-1.3c0-0.3,0.1-0.5,0.1-0.8c0-0.1,0.1-0.1,0.1-0.1
		c0.1,0,0.2,0,0.3,0C81.7,32.1,81.7,32.1,81.7,32.2"/>
	<path style="clip-path:url(#SVGID_00000179636978146687563770000003797207468392804484_);fill:#ADBAB3;" d="M80.7,32
		c0,0.1-0.1,0.3-0.1,0.4c-0.1,0.5-0.2,0.9-0.3,1.4c-0.1,0.3-0.1,0.7-0.2,1c0,0.1,0,0.1-0.1,0.1c-0.1,0-0.3-0.1-0.4-0.1
		c-0.1,0-0.1-0.1-0.1-0.1c0.1-0.5,0.2-1,0.4-1.5c0.1-0.4,0.2-0.9,0.3-1.3c0-0.1,0-0.1,0.1-0.1C80.4,31.8,80.5,31.9,80.7,32
		C80.7,31.9,80.7,31.9,80.7,32"/>
	<path style="clip-path:url(#SVGID_00000179636978146687563770000003797207468392804484_);fill:#ADBAB3;" d="M69.4,18.9
		c0.2,0,0.2,0,0.2,0.2c0,0.1,0,0.2,0,0.3c0,0.1,0,0.1-0.1,0.1c-0.4,0-0.7,0.1-1.1,0.1c-0.5,0-0.9,0.1-1.4,0.1c-0.1,0-0.3,0-0.4,0
		c-0.1,0-0.1,0-0.1-0.1c0-0.1,0-0.3,0-0.4c0-0.1,0-0.1,0.1-0.1c0.4,0,0.7,0,1.1,0c0.3,0,0.6,0,1,0C69,18.9,69.2,18.9,69.4,18.9"/>
	<path style="clip-path:url(#SVGID_00000179636978146687563770000003797207468392804484_);fill:#ADBAB3;" d="M69.8,20.9
		C69.8,20.9,69.9,20.9,69.8,20.9c0.1,0.2,0.1,0.3,0.2,0.4c0,0,0,0.1-0.1,0.1c-0.4,0.1-0.8,0.2-1.2,0.3c-0.3,0.1-0.6,0.1-0.9,0.2
		C67.6,21.9,67.3,22,67,22c0,0-0.1,0-0.1,0c0-0.2-0.1-0.3-0.1-0.5c0-0.1,0-0.1,0.1-0.1c0.2,0,0.4-0.1,0.6-0.1c0.5-0.1,1-0.2,1.5-0.3
		C69.3,20.9,69.5,20.9,69.8,20.9"/>
	<path style="clip-path:url(#SVGID_00000179636978146687563770000003797207468392804484_);fill:#ADBAB3;" d="M82.7,32.3
		c0,0.4-0.1,0.9-0.1,1.4c0,0.2,0,0.5,0,0.7c0,0.2,0,0.5,0,0.7c0,0.1,0,0.1-0.1,0.1c-0.1,0-0.3,0-0.4,0c-0.1,0-0.1,0-0.1-0.1
		c0-0.3,0.1-0.6,0.1-0.9c0-0.2,0-0.3,0.1-0.5c0-0.4,0.1-0.8,0.1-1.2c0-0.1,0-0.2,0-0.3c0,0,0-0.1,0.1-0.1c0.1,0,0.2,0,0.4,0
		C82.7,32.2,82.7,32.2,82.7,32.3"/>
	<path style="clip-path:url(#SVGID_00000179636978146687563770000003797207468392804484_);fill:#ADBAB3;" d="M77.8,31
		c0,0.1-0.1,0.1-0.1,0.2c-0.3,0.7-0.7,1.5-1,2.2c0,0.1-0.1,0.2-0.1,0.3c0,0.1-0.1,0.1-0.1,0c-0.1-0.1-0.3-0.1-0.4-0.2
		c-0.1,0-0.1-0.1,0-0.1c0.2-0.4,0.4-0.8,0.6-1.2c0.2-0.4,0.4-0.9,0.7-1.3c0-0.1,0.1-0.1,0.2-0.1C77.6,30.9,77.7,30.9,77.8,31
		C77.8,31,77.8,31,77.8,31"/>
	<path style="clip-path:url(#SVGID_00000179636978146687563770000003797207468392804484_);fill:#ADBAB3;" d="M78.8,31.4
		c0,0.1,0,0.2-0.1,0.2c-0.3,0.8-0.6,1.6-0.9,2.4c-0.1,0.3,0,0.2-0.3,0.1c-0.1,0-0.2-0.1-0.3-0.1c-0.1,0-0.1-0.1,0-0.1
		c0.3-0.8,0.7-1.7,1-2.5c0.1-0.3,0-0.3,0.3-0.1C78.6,31.3,78.6,31.3,78.8,31.4C78.7,31.3,78.8,31.4,78.8,31.4"/>
	<path style="clip-path:url(#SVGID_00000179636978146687563770000003797207468392804484_);fill:#ADBAB3;" d="M70,21.8
		C70.1,21.8,70.1,21.9,70,21.8c0.1,0.2,0.1,0.3,0.2,0.4c0,0.1,0,0.1-0.1,0.1c-0.5,0.2-1.1,0.3-1.6,0.5c-0.4,0.1-0.7,0.2-1.1,0.3
		c-0.1,0-0.1,0-0.2-0.1c0-0.1-0.1-0.3-0.1-0.4c0-0.1,0-0.1,0.1-0.1c0.2-0.1,0.5-0.1,0.7-0.2c0.3-0.1,0.6-0.2,1-0.3
		C69.3,22,69.6,21.9,70,21.8C70,21.8,70,21.8,70,21.8"/>
	<path style="clip-path:url(#SVGID_00000179636978146687563770000003797207468392804484_);fill:#ADBAB3;" d="M78.8,34.6
		c-0.2,0-0.3-0.1-0.5-0.1c0,0,0-0.1,0-0.1c0.1-0.4,0.3-0.9,0.4-1.3c0.2-0.5,0.3-0.9,0.5-1.4c0-0.1,0.1-0.1,0.2-0.1
		c0.1,0,0.2,0.1,0.3,0.1c0.1,0,0.1,0,0.1,0.1c-0.1,0.4-0.2,0.7-0.3,1.1C79.2,33.4,79.1,34,78.8,34.6C78.9,34.5,78.9,34.6,78.8,34.6"
		/>
	<path style="clip-path:url(#SVGID_00000179636978146687563770000003797207468392804484_);fill:#ADBAB3;" d="M70.3,22.8
		C70.4,22.8,70.4,22.8,70.3,22.8c0.1,0.2,0.1,0.3,0.2,0.4c0,0.1,0,0.1-0.1,0.1c-0.6,0.2-1.1,0.4-1.7,0.6c-0.3,0.1-0.7,0.3-1,0.4
		c-0.1,0-0.1,0-0.1,0c0-0.1-0.1-0.3-0.2-0.4c0-0.1,0-0.1,0.1-0.1c0.8-0.3,1.6-0.6,2.4-0.8C70.1,22.9,70.2,22.8,70.3,22.8"/>
	<path style="clip-path:url(#SVGID_00000179636978146687563770000003797207468392804484_);fill:#ADBAB3;" d="M75.5,33.2
		c-0.1,0-0.1-0.1-0.2-0.1c-0.1,0-0.2-0.1-0.2-0.1c-0.1-0.1-0.1-0.1-0.1-0.2c0.2-0.3,0.4-0.7,0.6-1c0.3-0.5,0.6-0.9,0.8-1.4
		c0-0.1,0.1-0.1,0.1,0c0.1,0.1,0.2,0.1,0.3,0.2c0.1,0,0.1,0.1,0,0.1C76.5,31.5,76,32.3,75.5,33.2C75.6,33.2,75.5,33.2,75.5,33.2"/>
	<path style="clip-path:url(#SVGID_00000179636978146687563770000003797207468392804484_);fill:#ADBAB3;" d="M72.4,26.7
		C72.4,26.7,72.4,26.8,72.4,26.7c-0.3,0.3-0.6,0.5-0.8,0.6c-0.5,0.4-1,0.8-1.5,1.2c-0.1,0.1-0.1,0-0.2,0c-0.1-0.1-0.2-0.2-0.2-0.3
		c0-0.1,0-0.1,0-0.1c0.5-0.4,1.1-0.7,1.6-1.1c0.2-0.2,0.5-0.3,0.7-0.5c0.1-0.1,0.1,0,0.2,0C72.3,26.5,72.4,26.6,72.4,26.7
		C72.4,26.7,72.4,26.7,72.4,26.7"/>
	<path style="clip-path:url(#SVGID_00000179636978146687563770000003797207468392804484_);fill:#ADBAB3;" d="M71.9,25.9
		C71.9,25.9,71.8,25.9,71.9,25.9c-0.5,0.4-0.9,0.6-1.3,0.9c-0.4,0.3-0.8,0.5-1.2,0.8c-0.1,0-0.1,0-0.1,0c-0.1-0.1-0.2-0.3-0.2-0.4
		c0,0,0-0.1,0-0.1c0.5-0.3,0.9-0.5,1.4-0.8c0.4-0.2,0.7-0.4,1.1-0.7c0.1-0.1,0.1,0,0.2,0C71.7,25.6,71.8,25.7,71.9,25.9
		C71.8,25.8,71.9,25.9,71.9,25.9"/>
	<path style="clip-path:url(#SVGID_00000179636978146687563770000003797207468392804484_);fill:#ADBAB3;" d="M68.2,25.4
		C68.2,25.4,68.1,25.4,68.2,25.4c-0.1-0.2-0.2-0.3-0.3-0.5c0-0.1,0-0.1,0.1-0.1c0.2-0.1,0.4-0.2,0.7-0.3c0.6-0.3,1.3-0.6,1.9-0.8
		c0.1,0,0.1,0,0.1,0.1c0,0.1,0.1,0.2,0.1,0.3c0,0.1,0,0.1,0,0.1c-0.5,0.2-0.9,0.4-1.4,0.6C69,25,68.7,25.2,68.2,25.4
		C68.2,25.4,68.2,25.4,68.2,25.4"/>
	<path style="clip-path:url(#SVGID_00000179636978146687563770000003797207468392804484_);fill:#ADBAB3;" d="M72.7,27.1
		C72.8,27.1,72.8,27.1,72.7,27.1c0.1,0.1,0.2,0.2,0.3,0.3c0,0,0,0.1,0,0.1c-0.4,0.4-0.8,0.7-1.2,1.1c-0.3,0.3-0.6,0.5-0.9,0.8
		c-0.1,0.1-0.1,0.1-0.2,0c-0.1-0.1-0.2-0.2-0.3-0.3c0,0,0-0.1,0-0.1c0.1-0.1,0.3-0.2,0.4-0.3c0.3-0.3,0.7-0.6,1-0.8
		C72.1,27.6,72.4,27.4,72.7,27.1C72.7,27.1,72.7,27.1,72.7,27.1"/>
	<path style="clip-path:url(#SVGID_00000179636978146687563770000003797207468392804484_);fill:#ADBAB3;" d="M74.4,32.6
		C74.4,32.6,74.4,32.6,74.4,32.6c-0.2-0.1-0.3-0.2-0.4-0.3c-0.1,0-0.1-0.1,0-0.2c0.4-0.6,0.8-1.1,1.1-1.7c0.2-0.2,0.3-0.5,0.5-0.7
		c0-0.1,0.1-0.1,0.1,0c0.1,0.1,0.2,0.1,0.3,0.2c0.1,0,0.1,0.1,0,0.1c-0.3,0.4-0.6,0.9-0.9,1.4C75,31.8,74.8,32.2,74.4,32.6
		C74.5,32.6,74.5,32.6,74.4,32.6"/>
	<path style="clip-path:url(#SVGID_00000179636978146687563770000003797207468392804484_);fill:#ADBAB3;" d="M68.8,26.5
		C68.7,26.5,68.7,26.5,68.8,26.5c-0.2-0.2-0.2-0.3-0.3-0.4c0-0.1,0-0.1,0-0.2c0.3-0.2,0.6-0.3,1-0.5c0.5-0.3,1-0.5,1.5-0.8
		c0.1,0,0.1,0,0.2,0.1c0,0.1,0.1,0.2,0.1,0.3c0,0.1,0,0.1,0,0.1c-0.5,0.3-0.9,0.5-1.4,0.8C69.6,26.1,69.2,26.3,68.8,26.5
		C68.8,26.5,68.8,26.5,68.8,26.5"/>
	<path style="clip-path:url(#SVGID_00000179636978146687563770000003797207468392804484_);fill:#ADBAB3;" d="M74.5,28.9
		C74.5,28.9,74.5,28.9,74.5,28.9c-0.3,0.4-0.5,0.6-0.8,0.9c-0.3,0.4-0.7,0.8-1,1.2c-0.2,0.2-0.1,0.2-0.3,0c-0.1-0.1-0.2-0.2-0.3-0.2
		c0,0,0-0.1,0-0.1c0.1-0.2,0.3-0.3,0.4-0.5c0.4-0.4,0.7-0.8,1.1-1.2c0.1-0.1,0.3-0.3,0.4-0.4c0.1-0.1,0.1-0.1,0.2,0
		C74.3,28.7,74.4,28.7,74.5,28.9C74.5,28.8,74.5,28.8,74.5,28.9"/>
	<path style="clip-path:url(#SVGID_00000179636978146687563770000003797207468392804484_);fill:#ADBAB3;" d="M73.4,27.8
		c0,0,0.3,0.3,0.3,0.3c0,0,0,0.1-0.1,0.1c-0.5,0.5-1,1-1.5,1.5c-0.2,0.2-0.3,0.3-0.5,0.5c-0.1,0.1-0.1,0.1-0.2,0
		c-0.1-0.1-0.2-0.2-0.3-0.3c-0.1-0.1-0.1-0.1,0-0.1c0.2-0.1,0.3-0.3,0.5-0.4c0.3-0.3,0.7-0.6,1-0.9C72.9,28.3,73.1,28.1,73.4,27.8
		C73.4,27.9,73.4,27.8,73.4,27.8"/>
	<path style="clip-path:url(#SVGID_00000179636978146687563770000003797207468392804484_);fill:#ADBAB3;" d="M75.3,29.5
		C75.3,29.5,75.2,29.6,75.3,29.5c-0.3,0.4-0.5,0.7-0.7,1c-0.3,0.4-0.7,0.9-1,1.3c0,0-0.1,0.1-0.1,0c-0.1-0.1-0.2-0.2-0.4-0.3
		c-0.1,0-0.1-0.1,0-0.1c0.4-0.5,0.8-1.1,1.3-1.6c0.2-0.2,0.3-0.4,0.5-0.6c0,0,0.1-0.1,0.1,0C75,29.3,75.1,29.4,75.3,29.5
		C75.2,29.5,75.3,29.5,75.3,29.5"/>
	<path style="clip-path:url(#SVGID_00000179636978146687563770000003797207468392804484_);fill:#ADBAB3;" d="M82.9,4.2
		c0,0.1,0,0.1-0.1,0.1c-0.1,0-0.2,0-0.3,0c-0.1,0-0.1,0-0.1-0.1c0-0.3-0.1-0.7-0.1-1c0-0.4-0.1-0.9-0.1-1.3c0-0.2,0-0.4,0-0.6
		c0-0.1,0-0.1,0.1-0.1c0.1,0,0.3,0,0.4,0c0.1,0,0.1,0,0.1,0.1c0,0.3,0,0.6,0,0.9c0,0.4,0,0.8,0.1,1.2C82.9,3.7,82.8,4,82.9,4.2"/>
	<path style="clip-path:url(#SVGID_00000179636978146687563770000003797207468392804484_);fill:#ADBAB3;" d="M81.9,4.3
		c0,0.1,0,0.1-0.1,0.1c-0.1,0-0.2,0-0.3,0c-0.1,0-0.1,0-0.1-0.1c-0.1-0.4-0.1-0.7-0.2-1.1c0-0.2-0.1-0.5-0.1-0.7
		c-0.1-0.3-0.1-0.7-0.2-1c0-0.1,0-0.1,0.1-0.1c0.2,0,0.3,0,0.5-0.1c0.1,0,0.1,0,0.1,0.1c0,0.4,0.1,0.9,0.1,1.3
		c0.1,0.4,0.1,0.8,0.2,1.3C81.9,4.1,81.9,4.2,81.9,4.3"/>
	<path style="clip-path:url(#SVGID_00000179636978146687563770000003797207468392804484_);fill:#ADBAB3;" d="M66.9,14.7
		c0-0.2,0.1-0.3,0.1-0.5c0,0,0-0.1,0.1-0.1c0.4,0.1,0.8,0.2,1.2,0.3c0.5,0.1,1,0.2,1.6,0.4c0.1,0,0.1,0,0.1,0.1c0,0.1,0,0.2-0.1,0.3
		c0,0.1,0,0.1-0.1,0.1c-0.3-0.1-0.7-0.1-1-0.2C68.4,15.1,68,15,67.6,15c-0.2,0-0.4-0.1-0.6-0.1C66.9,14.8,66.9,14.8,66.9,14.7"/>
	<path style="clip-path:url(#SVGID_00000179636978146687563770000003797207468392804484_);fill:#ADBAB3;" d="M69.4,17.4
		c-0.4,0-0.8-0.1-1.2-0.1c-0.1,0-0.3,0-0.4,0c-0.4,0-0.8,0-1.2-0.1c-0.1,0-0.1,0-0.1-0.1c0-0.1,0-0.3,0-0.4c0-0.1,0-0.1,0.1-0.1
		c0.2,0,0.4,0,0.6,0.1c0.2,0,0.5,0.1,0.7,0.1c0.3,0,0.5,0.1,0.8,0.1c0.2,0,0.4,0,0.5,0c0.1,0,0.2,0,0.2,0c0.1,0,0.1,0,0.1,0.1
		c0,0.1,0,0.2,0,0.3"/>
	<path style="clip-path:url(#SVGID_00000179636978146687563770000003797207468392804484_);fill:#ADBAB3;" d="M71,12.2
		C71,12.2,71,12.2,71,12.2c-0.1,0.1-0.1,0.2-0.2,0.4c0,0.1-0.1,0.1-0.1,0c-0.8-0.4-1.7-0.8-2.5-1.1c-0.2-0.1-0.2-0.1-0.1-0.2
		c0-0.1,0.1-0.2,0.1-0.3c0-0.1,0.1-0.1,0.2-0.1c0.5,0.2,0.9,0.5,1.4,0.7C70.2,11.7,70.6,11.9,71,12.2C71,12.1,71,12.1,71,12.2"/>
	<path style="clip-path:url(#SVGID_00000179636978146687563770000003797207468392804484_);fill:#ADBAB3;" d="M80.9,4.5
		c0,0.1,0,0.1-0.1,0.1c-0.1,0-0.2,0-0.3,0.1c-0.1,0-0.1,0-0.1-0.1c-0.1-0.3-0.2-0.7-0.2-1C80.1,3.3,80,3,80,2.7
		c-0.1-0.3-0.1-0.6-0.2-0.9c0-0.1,0-0.1,0.1-0.1c0.1,0,0.3-0.1,0.4-0.1c0.1,0,0.1,0,0.1,0.1c0.1,0.3,0.1,0.5,0.2,0.8
		c0.1,0.3,0.1,0.6,0.2,0.8c0.1,0.4,0.1,0.7,0.2,1.1C80.9,4.4,80.9,4.4,80.9,4.5"/>
	<path style="clip-path:url(#SVGID_00000179636978146687563770000003797207468392804484_);fill:#ADBAB3;" d="M79.9,4.7
		C79.9,4.8,79.9,4.8,79.9,4.7c-0.2,0.1-0.3,0.1-0.4,0.2c0,0-0.1,0-0.1,0c-0.1-0.3-0.2-0.7-0.3-1c-0.2-0.5-0.3-1-0.5-1.5
		c0-0.1-0.1-0.2-0.1-0.3c0-0.1,0-0.1,0.1-0.1c0.2,0,0.3-0.1,0.5-0.1c0,0,0.1,0,0.1,0c0.1,0.4,0.2,0.7,0.3,1.1
		c0.1,0.3,0.1,0.5,0.2,0.8C79.8,4.1,79.8,4.4,79.9,4.7C79.9,4.7,79.9,4.7,79.9,4.7"/>
	<path style="clip-path:url(#SVGID_00000179636978146687563770000003797207468392804484_);fill:#ADBAB3;" d="M70.6,13.1
		c0,0.1-0.1,0.1-0.1,0.2c0,0.1,0,0.2-0.1,0.2c-0.1,0-0.2,0-0.2-0.1c-0.3-0.1-0.6-0.2-0.9-0.3c-0.5-0.2-1-0.4-1.5-0.5
		c-0.2-0.1-0.2-0.1-0.1-0.3c0-0.1,0.1-0.2,0.1-0.3c0-0.1,0.1-0.1,0.1,0c0.8,0.3,1.6,0.6,2.4,0.9C70.3,12.9,70.4,13,70.6,13.1
		C70.6,13,70.6,13,70.6,13.1"/>
	<path style="clip-path:url(#SVGID_00000179636978146687563770000003797207468392804484_);fill:#ADBAB3;" d="M70.1,14.5
		c-0.1,0-0.3-0.1-0.4-0.1c-0.5-0.1-0.9-0.3-1.4-0.4c-0.3-0.1-0.7-0.2-1-0.3c-0.1,0-0.1,0-0.1-0.1c0.1-0.1,0.1-0.3,0.1-0.4
		c0-0.1,0-0.1,0.1-0.1c0.5,0.2,1,0.3,1.6,0.5c0.4,0.1,0.8,0.3,1.2,0.4c0.1,0,0.1,0,0.1,0.1C70.2,14.2,70.2,14.3,70.1,14.5
		C70.1,14.4,70.1,14.5,70.1,14.5"/>
	<path style="clip-path:url(#SVGID_00000179636978146687563770000003797207468392804484_);fill:#ADBAB3;" d="M69.5,8.7
		C69.5,8.7,69.6,8.7,69.5,8.7c0.8,0.5,1.5,1,2.2,1.5c0.1,0.1,0.2,0.1,0.2,0.2c0.1,0,0.1,0.1,0,0.1c-0.1,0.1-0.1,0.2-0.2,0.3
		c0,0-0.1,0.1-0.1,0c-0.5-0.3-1.1-0.7-1.6-1c-0.3-0.2-0.5-0.3-0.8-0.5c-0.1,0-0.1-0.1,0-0.1C69.3,9,69.4,8.9,69.5,8.7
		C69.5,8.7,69.5,8.7,69.5,8.7"/>
	<path style="clip-path:url(#SVGID_00000179636978146687563770000003797207468392804484_);fill:#ADBAB3;" d="M79,5
		C79,5.1,79,5.1,79,5c-0.2,0.1-0.3,0.2-0.4,0.2c-0.1,0-0.1,0-0.1-0.1c-0.2-0.5-0.4-0.9-0.5-1.4c-0.1-0.4-0.3-0.7-0.4-1.1
		c0-0.1-0.1-0.2-0.1-0.3c0-0.1,0-0.1,0.1-0.1c0.1-0.1,0.3-0.1,0.4-0.2c0.1,0,0.1,0,0.1,0.1c0.1,0.2,0.2,0.4,0.2,0.7
		c0.1,0.3,0.2,0.6,0.3,1C78.7,4.3,78.9,4.6,79,5C79,5,79,5,79,5"/>
	<path style="clip-path:url(#SVGID_00000179636978146687563770000003797207468392804484_);fill:#ADBAB3;" d="M71.5,11.3
		C71.5,11.3,71.5,11.3,71.5,11.3c0,0.1-0.1,0.1-0.1,0.1c-0.1,0.3-0.1,0.3-0.4,0.1c-0.6-0.3-1.2-0.6-1.8-1c-0.2-0.1-0.4-0.2-0.5-0.3
		c-0.1,0-0.1-0.1,0-0.2c0.1-0.1,0.1-0.2,0.2-0.3c0-0.1,0.1-0.1,0.1,0c0.5,0.3,1,0.6,1.5,0.9C70.8,10.8,71.1,11,71.5,11.3
		C71.4,11.2,71.5,11.2,71.5,11.3"/>
	<path style="clip-path:url(#SVGID_00000179636978146687563770000003797207468392804484_);fill:#ADBAB3;" d="M76.3,6.3
		C76.3,6.3,76.3,6.4,76.3,6.3c-0.1,0.1-0.2,0.2-0.3,0.2c-0.1,0-0.1,0-0.2,0c-0.2-0.4-0.5-0.7-0.7-1.1c-0.3-0.4-0.5-0.8-0.8-1.2
		c-0.1-0.1,0-0.1,0-0.2c0.1-0.1,0.2-0.1,0.3-0.2c0.1-0.1,0.1,0,0.2,0c0.3,0.4,0.5,0.8,0.8,1.3c0.2,0.3,0.4,0.7,0.6,1
		C76.2,6.2,76.3,6.2,76.3,6.3"/>
	<path style="clip-path:url(#SVGID_00000179636978146687563770000003797207468392804484_);fill:#ADBAB3;" d="M72.6,9.6
		C72.6,9.6,72.6,9.6,72.6,9.6c-0.1,0.1-0.2,0.2-0.2,0.3c0,0.1-0.1,0.1-0.1,0c-0.4-0.3-0.8-0.6-1.1-0.8c-0.3-0.2-0.6-0.4-0.9-0.7
		c-0.1-0.1-0.2-0.1-0.3-0.2c-0.1,0-0.1-0.1,0-0.1C70,8,70.1,7.9,70.2,7.8c0-0.1,0.1,0,0.1,0c0.3,0.2,0.5,0.4,0.8,0.7
		c0.4,0.3,0.8,0.7,1.2,1C72.4,9.5,72.5,9.5,72.6,9.6C72.6,9.6,72.6,9.6,72.6,9.6"/>
	<path style="clip-path:url(#SVGID_00000179636978146687563770000003797207468392804484_);fill:#ADBAB3;" d="M77.2,5.8
		C77.2,5.9,77.1,5.9,77.2,5.8C77,5.9,76.9,6,76.8,6.1c-0.1,0-0.1,0-0.1,0c-0.2-0.3-0.3-0.6-0.5-0.9c-0.3-0.5-0.5-0.9-0.8-1.4
		c0-0.1-0.1-0.2-0.1-0.3c0,0,0-0.1,0-0.1c0.1-0.1,0.3-0.2,0.4-0.2c0.1,0,0.1,0,0.1,0.1C76,3.5,76.1,3.7,76.2,4
		C76.5,4.6,76.8,5.2,77.2,5.8C77.1,5.8,77.2,5.8,77.2,5.8"/>
	<path style="clip-path:url(#SVGID_00000179636978146687563770000003797207468392804484_);fill:#ADBAB3;" d="M74.7,7.5
		C74.7,7.5,74.7,7.5,74.7,7.5c-0.1,0.1-0.2,0.2-0.3,0.3c0,0-0.1,0-0.1,0c-0.3-0.3-0.6-0.6-0.8-0.9c-0.2-0.2-0.3-0.4-0.5-0.6
		c-0.2-0.2-0.4-0.4-0.6-0.6c0,0,0-0.1,0-0.1c0.1-0.1,0.2-0.2,0.4-0.3c0,0,0.1,0,0.1,0c0.4,0.4,0.7,0.9,1.1,1.3
		C74.1,6.8,74.4,7.1,74.7,7.5C74.7,7.4,74.7,7.4,74.7,7.5"/>
	<path style="clip-path:url(#SVGID_00000179636978146687563770000003797207468392804484_);fill:#ADBAB3;" d="M73.2,8.8
		C73.2,8.9,73.2,8.9,73.2,8.8C73.1,9,73,9.1,72.9,9.2c0,0,0,0-0.1,0c-0.3-0.3-0.7-0.6-1-0.8c-0.3-0.3-0.7-0.6-1-0.8
		c-0.1-0.1-0.1-0.1-0.2-0.2c-0.1,0-0.1-0.1,0-0.1c0.1-0.1,0.2-0.2,0.3-0.4c0,0,0.1,0,0.1,0c0.1,0.1,0.2,0.2,0.3,0.3
		c0.4,0.3,0.7,0.7,1.1,1C72.7,8.4,73,8.6,73.2,8.8C73.2,8.8,73.2,8.8,73.2,8.8"/>
	<path style="clip-path:url(#SVGID_00000179636978146687563770000003797207468392804484_);fill:#ADBAB3;" d="M78.1,5.4
		C78.1,5.4,78,5.4,78.1,5.4c-0.2,0.1-0.3,0.2-0.4,0.2c-0.1,0-0.1,0-0.1,0c-0.2-0.5-0.5-1-0.7-1.5c-0.2-0.4-0.3-0.7-0.5-1.1
		c-0.1-0.1-0.1-0.1,0.1-0.2c0.1-0.1,0.2-0.1,0.4-0.2c0.1,0,0.1,0,0.1,0.1c0.1,0.2,0.2,0.4,0.2,0.6C77.5,4,77.7,4.6,78.1,5.4
		C78,5.3,78.1,5.4,78.1,5.4"/>
	<path style="clip-path:url(#SVGID_00000179636978146687563770000003797207468392804484_);fill:#ADBAB3;" d="M75.5,6.9
		C75.5,6.9,75.5,6.9,75.5,6.9c-0.1,0.1-0.2,0.2-0.3,0.3c-0.1,0-0.1,0-0.1,0c-0.2-0.2-0.3-0.4-0.5-0.7c-0.4-0.5-0.8-1.1-1.2-1.6
		c-0.1-0.1-0.1-0.1,0-0.2c0.1-0.1,0.2-0.2,0.3-0.2c0.1,0,0.1,0,0.1,0c0.4,0.5,0.8,1.1,1.2,1.6C75.1,6.3,75.3,6.6,75.5,6.9
		C75.5,6.8,75.5,6.8,75.5,6.9"/>
	<path style="clip-path:url(#SVGID_00000179636978146687563770000003797207468392804484_);fill:#ADBAB3;" d="M73.9,8.1
		C73.9,8.2,73.9,8.2,73.9,8.1c-0.1,0.1-0.2,0.2-0.3,0.3c0,0-0.1,0-0.1,0c-0.1-0.1-0.2-0.2-0.3-0.3c-0.6-0.6-1.1-1.1-1.7-1.7
		c-0.1-0.1-0.1-0.1,0-0.2c0.1-0.1,0.2-0.2,0.3-0.3c0,0,0.1,0,0.1,0c0.3,0.3,0.6,0.7,1,1c0,0,0,0,0.1,0.1C73.2,7.4,73.6,7.7,73.9,8.1
		C73.9,8.1,73.9,8.1,73.9,8.1"/>
	<path style="clip-path:url(#SVGID_00000179636978146687563770000003797207468392804484_);fill:#ADBAB3;" d="M66.9,15.4
		c0.2,0,0.4,0.1,0.7,0.1c0.3,0.1,0.6,0.1,1,0.2c0.2,0,0.4,0.1,0.6,0.1c0.2,0,0.4,0.1,0.6,0.1c0.1,0,0.1,0,0.1,0.1c0,0.1,0,0.2,0,0.3
		c0,0.1-0.1,0.1-0.1,0.1c-0.1,0-0.2,0-0.3,0c-0.3-0.1-0.7-0.1-1-0.1c-0.3,0-0.5-0.1-0.8-0.1c-0.2,0-0.4,0-0.6-0.1
		c-0.1,0-0.1,0-0.1-0.1C66.8,15.8,66.8,15.6,66.9,15.4C66.8,15.4,66.8,15.4,66.9,15.4"/>
	<path style="clip-path:url(#SVGID_00000179636978146687563770000003797207468392804484_);fill:#FFFFFF;" d="M98.3,18.2h2.1
		c0.1,0,0.1,0,0.1,0.1c0,0.1,0,0.2,0,0.3c0,0.1,0,0.1-0.2,0.1c-0.6,0-1.2,0-1.8-0.1c-0.3,0-0.7,0-1,0c-0.1,0-0.1,0-0.1-0.1
		c0-0.1,0-0.2,0-0.3c0-0.1,0-0.1,0.1-0.1C97.8,18.2,98.1,18.2,98.3,18.2L98.3,18.2z"/>
	
		<path style="clip-path:url(#SVGID_00000179636978146687563770000003797207468392804484_);fill:none;stroke:#FFFFFF;stroke-width:0.4105;stroke-miterlimit:10;" d="
		M98.3,18.2h2.1c0.1,0,0.1,0,0.1,0.1c0,0.1,0,0.2,0,0.3c0,0.1,0,0.1-0.2,0.1c-0.6,0-1.2,0-1.8-0.1c-0.3,0-0.7,0-1,0
		c-0.1,0-0.1,0-0.1-0.1c0-0.1,0-0.2,0-0.3c0-0.1,0-0.1,0.1-0.1C97.8,18.2,98.1,18.2,98.3,18.2L98.3,18.2z"/>
	<path style="clip-path:url(#SVGID_00000179636978146687563770000003797207468392804484_);fill:#FCED0A;" d="M97.4,16.3
		C97.4,16.2,97.4,16.2,97.4,16.3c0.5-0.1,0.9-0.2,1.2-0.3c0.3-0.1,0.7-0.1,1-0.2c0.2,0,0.4-0.1,0.6-0.1c0.1,0,0.1,0,0.1,0.1
		c0,0.1,0,0.3,0.1,0.4c0,0.1,0,0.1-0.1,0.1c-0.2,0-0.3,0-0.5,0.1c-0.3,0-0.6,0.1-1,0.1c-0.4,0-0.7,0.1-1.1,0.1c-0.1,0-0.2,0-0.3,0
		c0,0-0.1,0-0.1-0.1C97.4,16.5,97.4,16.4,97.4,16.3"/>
	<path style="clip-path:url(#SVGID_00000179636978146687563770000003797207468392804484_);fill:#FCED0A;" d="M84.6,4.2
		c0-0.4,0.1-0.8,0.1-1.2c0-0.5,0.1-1,0.1-1.5c0-0.1,0-0.1,0.2-0.1c0.1,0,0.3,0,0.4,0c0.1,0,0.1,0,0.1,0.1c0,0.3-0.1,0.7-0.1,1
		c0,0.4-0.1,0.7-0.1,1.1c0,0.3-0.1,0.5-0.1,0.8c0,0.1,0,0.1-0.1,0.1c-0.1,0-0.2,0-0.3,0C84.6,4.4,84.5,4.3,84.6,4.2
		C84.6,4.2,84.6,4.2,84.6,4.2L84.6,4.2z"/>
	<path style="clip-path:url(#SVGID_00000179636978146687563770000003797207468392804484_);fill:#FCED0A;" d="M86.6,1.6
		c0,0.2-0.1,0.5-0.1,0.7c-0.1,0.3-0.1,0.6-0.2,0.9c-0.1,0.3-0.1,0.6-0.2,0.9c0,0.1,0,0.3-0.1,0.4c0,0.1,0,0.1-0.2,0.1
		c-0.1,0-0.2,0-0.3-0.1c-0.1,0-0.1,0-0.1-0.1c0.1-0.4,0.1-0.7,0.2-1.1c0-0.3,0.1-0.7,0.2-1c0-0.2,0.1-0.5,0.1-0.7
		c0-0.1,0-0.1,0.1-0.1C86.2,1.5,86.3,1.5,86.6,1.6C86.5,1.5,86.6,1.5,86.6,1.6"/>
	<path style="clip-path:url(#SVGID_00000179636978146687563770000003797207468392804484_);fill:#FCED0A;" d="M99.8,13.4
		c0.1,0,0.1,0,0.1,0.1c0,0.1,0.1,0.3,0.1,0.4c0,0.1,0,0.1-0.1,0.1c-0.4,0.1-0.9,0.2-1.3,0.3c-0.5,0.1-1,0.3-1.5,0.4c0,0-0.1,0-0.1,0
		c0-0.1-0.1-0.3-0.1-0.4c0,0,0-0.1,0-0.1c0.3-0.1,0.7-0.2,1-0.3c0.4-0.1,0.7-0.2,1.1-0.3C99.3,13.6,99.6,13.5,99.8,13.4
		C99.8,13.4,99.8,13.4,99.8,13.4"/>
	<path style="clip-path:url(#SVGID_00000179636978146687563770000003797207468392804484_);fill:#FCED0A;" d="M97.2,15.3
		C97.2,15.2,97.2,15.2,97.2,15.3c0.4-0.2,0.7-0.2,1-0.3c0.3-0.1,0.6-0.1,0.9-0.2c0.3-0.1,0.6-0.1,0.9-0.2c0,0,0.1,0,0.1,0
		c0.1,0,0.1,0,0.2,0.1c0,0.1,0.1,0.3,0.1,0.4c0,0.1,0,0.1-0.1,0.1c-0.3,0-0.6,0.1-0.9,0.2c-0.3,0-0.5,0.1-0.8,0.1
		c-0.3,0-0.5,0.1-0.8,0.2c-0.1,0-0.2,0-0.3,0.1c-0.1,0-0.1,0-0.1-0.1C97.3,15.5,97.2,15.4,97.2,15.3"/>
	<path style="clip-path:url(#SVGID_00000179636978146687563770000003797207468392804484_);fill:#ADBAB3;" d="M86.1,35
		c0,0.1,0,0.1-0.1,0.1c-0.1,0-0.3,0-0.4,0.1c-0.1,0-0.1,0-0.1-0.1c0-0.3-0.1-0.7-0.1-1c0-0.3-0.1-0.6-0.1-0.9c0-0.3-0.1-0.6-0.1-0.9
		c0-0.1,0-0.1,0.1-0.1c0.1,0,0.2,0,0.3,0c0.1,0,0.1,0,0.1,0.1c0.1,0.4,0.1,0.8,0.2,1.1c0,0.3,0.1,0.5,0.1,0.8
		C86,34.4,86,34.7,86.1,35"/>
	<path style="clip-path:url(#SVGID_00000179636978146687563770000003797207468392804484_);fill:#ADBAB3;" d="M97.5,20.2
		c0.2,0,0.4,0.1,0.6,0.1c0.4,0,0.7,0.1,1.1,0.1c0.2,0,0.5,0.1,0.7,0.1c0.1,0,0.3,0,0.4,0.1c0.1,0,0.1,0,0.1,0.1
		c0,0.1-0.1,0.3-0.1,0.4c0,0.1,0,0.1-0.1,0.1c-0.3,0-0.6-0.1-0.8-0.1c-0.4-0.1-0.8-0.1-1.2-0.2c-0.3,0-0.5-0.1-0.8-0.1
		c-0.1,0-0.1,0-0.1-0.1c0-0.1,0-0.2,0-0.3C97.4,20.2,97.4,20.2,97.5,20.2"/>
	<path style="clip-path:url(#SVGID_00000179636978146687563770000003797207468392804484_);fill:#ADBAB3;" d="M97.1,21.6
		c0-0.1,0.1-0.3,0.1-0.4c0-0.1,0.1,0,0.1,0c0.3,0.1,0.6,0.1,0.9,0.2c0.4,0.1,0.7,0.2,1.1,0.2c0.3,0.1,0.6,0.1,0.8,0.2
		c0.1,0,0.1,0,0.1,0.1c0,0.1-0.1,0.3-0.1,0.4c0,0.1,0,0.1-0.1,0.1c-0.3-0.1-0.6-0.2-0.9-0.2c-0.4-0.1-0.8-0.2-1.2-0.3
		C97.6,21.8,97.4,21.7,97.1,21.6C97.1,21.7,97.1,21.6,97.1,21.6"/>
	<path style="clip-path:url(#SVGID_00000179636978146687563770000003797207468392804484_);fill:#ADBAB3;" d="M96.7,23.1
		c0,0,0.1,0,0.2,0.1c0.8,0.3,1.6,0.6,2.3,0.9c0.1,0,0.2,0.1,0.2,0.1c0.1,0,0.1,0,0,0.1c-0.1,0.1-0.1,0.3-0.2,0.4
		c0,0.1-0.1,0.1-0.1,0.1c-0.6-0.3-1.2-0.5-1.8-0.8c-0.3-0.1-0.5-0.2-0.8-0.3c-0.1,0-0.1-0.1-0.1-0.1C96.6,23.4,96.6,23.2,96.7,23.1
		C96.6,23.1,96.7,23.1,96.7,23.1"/>
	<path style="clip-path:url(#SVGID_00000179636978146687563770000003797207468392804484_);fill:#ADBAB3;" d="M84.4,35.2
		c-0.1,0-0.1,0-0.1-0.1c0-0.5,0-1-0.1-1.5c0-0.3,0-0.7,0-1c0-0.1,0-0.2,0-0.3c0-0.1,0-0.1,0.1-0.1c0.1,0,0.2,0,0.3,0
		c0.1,0,0.1,0,0.1,0.1c0,0.2,0,0.4,0,0.6c0,0.4,0.1,0.8,0.1,1.3c0,0.3,0,0.6,0.1,0.9c0,0,0,0,0,0.1c0,0.2,0,0.2-0.2,0.2
		C84.6,35.2,84.5,35.2,84.4,35.2"/>
	<path style="clip-path:url(#SVGID_00000179636978146687563770000003797207468392804484_);fill:#ADBAB3;" d="M99,25.3
		c0,0.1-0.1,0.2-0.1,0.3c-0.1,0.3-0.1,0.3-0.4,0.1c-0.8-0.4-1.6-0.8-2.4-1.2c-0.1,0-0.1-0.1-0.1-0.2c0.1-0.1,0.1-0.2,0.1-0.3
		c0-0.1,0.1-0.1,0.1-0.1c0.2,0.1,0.4,0.2,0.6,0.3c0.5,0.2,1,0.5,1.6,0.7C98.7,25.1,98.8,25.1,99,25.3C99,25.2,99,25.2,99,25.3"/>
	<path style="clip-path:url(#SVGID_00000179636978146687563770000003797207468392804484_);fill:#ADBAB3;" d="M89.1,34.3
		C89,34.3,89,34.3,89.1,34.3c-0.3-0.6-0.4-1.2-0.6-1.7c-0.1-0.3-0.2-0.7-0.4-1c0-0.1,0-0.1,0.1-0.2c0.1,0,0.2-0.1,0.3-0.1
		c0.1,0,0.1,0,0.1,0.1c0.2,0.5,0.4,1.1,0.6,1.6c0.1,0.4,0.3,0.7,0.4,1.1c0,0,0,0.1,0,0.1C89.4,34.2,89.2,34.3,89.1,34.3"/>
	<path style="clip-path:url(#SVGID_00000179636978146687563770000003797207468392804484_);fill:#ADBAB3;" d="M86.5,31.9
		c0.1,0,0.1,0,0.1,0.1c0.1,0.4,0.2,0.7,0.2,1.1c0.1,0.4,0.2,0.7,0.2,1.1c0,0.2,0.1,0.4,0.1,0.6c0,0.1,0,0.1-0.1,0.1
		c-0.1,0-0.3,0.1-0.4,0.1c-0.1,0-0.1,0-0.1-0.1c-0.1-0.6-0.2-1.1-0.3-1.7c-0.1-0.4-0.1-0.7-0.2-1.1c0-0.1,0-0.1,0.1-0.2
		C86.3,31.9,86.4,31.9,86.5,31.9"/>
	<path style="clip-path:url(#SVGID_00000179636978146687563770000003797207468392804484_);fill:#ADBAB3;" d="M96.8,22.6
		c0-0.1,0.1-0.3,0.1-0.4c0-0.1,0-0.1,0.1-0.1c0.3,0.1,0.6,0.2,0.9,0.3c0.4,0.1,0.8,0.2,1.1,0.3c0.3,0.1,0.5,0.2,0.8,0.2
		c0.1,0,0.1,0.1,0,0.1c0,0.2-0.1,0.3-0.1,0.5c0,0.1,0,0.1-0.1,0c-0.6-0.2-1.2-0.4-1.7-0.6C97.6,22.9,97.2,22.8,96.8,22.6
		C96.9,22.6,96.8,22.6,96.8,22.6"/>
	<path style="clip-path:url(#SVGID_00000179636978146687563770000003797207468392804484_);fill:#ADBAB3;" d="M87.5,31.6
		c0.1,0,0.1,0,0.1,0.1c0.1,0.5,0.3,1,0.4,1.5c0.1,0.4,0.2,0.8,0.4,1.2c0,0.1,0,0.1-0.1,0.2c-0.1,0-0.2,0.1-0.4,0.1
		c-0.1,0-0.1,0-0.1-0.1c0-0.1-0.1-0.2-0.1-0.4c-0.1-0.4-0.2-0.7-0.3-1.1c-0.1-0.4-0.2-0.9-0.3-1.3c0,0,0-0.1,0-0.1
		C87.3,31.7,87.4,31.7,87.5,31.6"/>
	<path style="clip-path:url(#SVGID_00000179636978146687563770000003797207468392804484_);fill:#ADBAB3;" d="M95.9,24.9
		C95.9,24.9,95.9,24.9,95.9,24.9c0.9,0.5,1.7,0.9,2.5,1.4c0.1,0,0.1,0.1,0.1,0.2c-0.1,0.1-0.1,0.2-0.2,0.4c0,0.1-0.1,0.1-0.1,0
		c-0.4-0.2-0.8-0.5-1.2-0.7c-0.4-0.2-0.8-0.5-1.3-0.7c-0.1,0-0.1-0.1,0-0.1C95.7,25.2,95.7,25.1,95.9,24.9
		C95.8,24.9,95.8,24.9,95.9,24.9"/>
	<path style="clip-path:url(#SVGID_00000179636978146687563770000003797207468392804484_);fill:#ADBAB3;" d="M97.9,27.4
		C97.9,27.4,97.9,27.4,97.9,27.4c-0.1,0.2-0.2,0.3-0.3,0.5c0,0-0.1,0-0.1,0c-0.4-0.3-0.8-0.5-1.2-0.8c-0.3-0.2-0.5-0.4-0.8-0.6
		c-0.1-0.1-0.3-0.2-0.4-0.3c-0.1,0-0.1-0.1,0-0.1c0.1-0.1,0.1-0.2,0.2-0.3c0-0.1,0.1-0.1,0.1,0c0.8,0.5,1.5,1,2.3,1.5
		C97.7,27.3,97.8,27.3,97.9,27.4C97.9,27.3,97.9,27.4,97.9,27.4"/>
	<path style="clip-path:url(#SVGID_00000179636978146687563770000003797207468392804484_);fill:#ADBAB3;" d="M93.5,28.1
		C93.5,28.1,93.5,28.1,93.5,28.1c0.8,0.7,1.4,1.4,2.1,2.1c0,0,0.1,0.1,0,0.1c-0.1,0.1-0.2,0.2-0.3,0.3c0,0-0.1,0-0.1,0
		c-0.3-0.3-0.6-0.7-0.9-1c-0.1-0.1-0.2-0.2-0.3-0.3c-0.2-0.3-0.5-0.5-0.7-0.8c0,0-0.1-0.1,0-0.1C93.3,28.3,93.3,28.2,93.5,28.1
		C93.4,28.1,93.5,28.1,93.5,28.1"/>
	<path style="clip-path:url(#SVGID_00000179636978146687563770000003797207468392804484_);fill:#ADBAB3;" d="M97.2,28.4
		C97.2,28.4,97.2,28.4,97.2,28.4c-0.1,0.2-0.2,0.3-0.3,0.4c0,0-0.1,0.1-0.1,0c-0.4-0.3-0.8-0.7-1.2-1c-0.3-0.3-0.7-0.5-1-0.8
		c-0.1,0-0.1-0.1,0-0.1c0.1-0.1,0.1-0.2,0.2-0.3c0-0.1,0.1,0,0.1,0c0.6,0.5,1.3,1,1.9,1.4C96.9,28.1,97,28.2,97.2,28.4
		C97.2,28.3,97.2,28.3,97.2,28.4"/>
	<path style="clip-path:url(#SVGID_00000179636978146687563770000003797207468392804484_);fill:#ADBAB3;" d="M92.7,28.8
		C92.8,28.8,92.8,28.8,92.7,28.8c0.4,0.4,0.7,0.8,1,1.2c0.3,0.3,0.6,0.7,0.9,1c0.1,0.1,0.1,0.1,0,0.2c-0.1,0.1-0.2,0.2-0.3,0.2
		c-0.1,0.1-0.1,0-0.1,0c-0.3-0.3-0.5-0.7-0.8-1c-0.3-0.4-0.6-0.8-1-1.2c-0.1-0.1-0.1-0.1,0-0.2C92.5,28.9,92.6,28.9,92.7,28.8
		C92.7,28.8,92.7,28.8,92.7,28.8"/>
	<path style="clip-path:url(#SVGID_00000179636978146687563770000003797207468392804484_);fill:#ADBAB3;" d="M92,29.4
		C92,29.4,92,29.4,92,29.4c0.5,0.6,0.9,1.2,1.3,1.7c0.2,0.2,0.3,0.4,0.5,0.6c0.1,0.1,0,0.1,0,0.1c-0.1,0.1-0.2,0.2-0.3,0.2
		c-0.1,0-0.1,0-0.1,0c-0.2-0.3-0.4-0.6-0.6-0.9c-0.3-0.5-0.7-1-1-1.4c-0.1-0.1-0.1-0.1,0-0.2C91.8,29.5,91.8,29.5,92,29.4
		C91.9,29.4,91.9,29.4,92,29.4"/>
	<path style="clip-path:url(#SVGID_00000179636978146687563770000003797207468392804484_);fill:#ADBAB3;" d="M91.8,33.1
		C91.8,33.1,91.8,33.2,91.8,33.1c-0.2,0.2-0.3,0.2-0.4,0.3c-0.1,0-0.1,0-0.1,0c-0.3-0.6-0.6-1.2-0.9-1.9c-0.1-0.2-0.2-0.4-0.3-0.7
		c0-0.1,0-0.1,0-0.1c0.1,0,0.2-0.1,0.3-0.2c0.1,0,0.1,0,0.1,0c0.2,0.3,0.3,0.6,0.5,0.9c0.3,0.5,0.5,0.9,0.8,1.4
		C91.7,33,91.7,33,91.8,33.1"/>
	<path style="clip-path:url(#SVGID_00000179636978146687563770000003797207468392804484_);fill:#ADBAB3;" d="M94.1,27.4
		C94.2,27.4,94.2,27.4,94.1,27.4c0.3,0.2,0.5,0.4,0.8,0.6c0.4,0.4,0.9,0.7,1.3,1.1c0,0,0,0,0.1,0.1c0.2,0.1,0.2,0.1,0,0.3
		c-0.1,0.1-0.1,0.1-0.2,0.2c-0.1,0.1-0.1,0.1-0.1,0c-0.1-0.1-0.2-0.2-0.3-0.3c-0.3-0.3-0.7-0.6-1-0.9c-0.3-0.2-0.5-0.5-0.8-0.7
		c-0.1-0.1-0.1-0.1,0-0.1C94,27.6,94,27.5,94.1,27.4C94.1,27.4,94.1,27.4,94.1,27.4"/>
	<path style="clip-path:url(#SVGID_00000179636978146687563770000003797207468392804484_);fill:#ADBAB3;" d="M91.1,30
		C91.2,30,91.2,30,91.1,30c0.3,0.5,0.6,0.9,0.9,1.3c0.3,0.4,0.5,0.8,0.8,1.2c0,0.1,0,0.1,0,0.1c-0.1,0.1-0.3,0.2-0.4,0.2
		c-0.1,0-0.1,0-0.1,0c-0.2-0.3-0.4-0.6-0.6-0.9c-0.2-0.4-0.4-0.7-0.7-1.1c-0.1-0.1-0.2-0.3-0.3-0.4c0,0,0-0.1,0-0.1
		C90.9,30.1,91,30,91.1,30C91.1,30,91.1,30,91.1,30"/>
	<path style="clip-path:url(#SVGID_00000179636978146687563770000003797207468392804484_);fill:#ADBAB3;" d="M90.7,33.6
		C90.7,33.7,90.7,33.7,90.7,33.6c-0.2,0.2-0.3,0.2-0.5,0.3c-0.1,0-0.1,0-0.1-0.1c-0.2-0.5-0.4-0.9-0.6-1.4c-0.2-0.4-0.3-0.8-0.5-1.2
		c0-0.1,0-0.1,0.1-0.2c0.1,0,0.2-0.1,0.3-0.1c0.1-0.1,0.1,0,0.2,0.1c0.1,0.2,0.2,0.5,0.3,0.7c0.2,0.5,0.4,0.9,0.6,1.4
		C90.5,33.3,90.6,33.4,90.7,33.6C90.7,33.6,90.7,33.6,90.7,33.6"/>
	<path style="clip-path:url(#SVGID_00000179636978146687563770000003797207468392804484_);fill:#ADBAB3;" d="M97.7,19.2
		c0.4,0,0.7,0.1,1.1,0.1c0.3,0,0.6,0,0.9,0.1c0.3,0,0.5,0.1,0.8,0c0.1,0,0.1,0,0.1,0.1c0,0.1,0,0.3,0,0.4c0,0.1,0,0.1-0.1,0.1
		c-0.4,0-0.8-0.1-1.2-0.1c-0.4,0-0.8-0.1-1.2-0.1c-0.1,0-0.3,0-0.4,0c-0.1,0-0.1,0-0.1-0.1c0-0.1,0-0.2,0-0.3c0-0.1,0-0.1,0.1-0.1
		C97.6,19.2,97.7,19.2,97.7,19.2C97.7,19.2,97.7,19.2,97.7,19.2"/>
	<path style="clip-path:url(#SVGID_00000179636978146687563770000003797207468392804484_);fill:#FCED0A;" d="M100.5,17.3
		c0,0.3,0,0.3-0.3,0.3c-0.8,0-1.5,0.1-2.3,0.1c-0.1,0-0.3,0-0.4,0c-0.1,0-0.1,0-0.1-0.1c0-0.1,0-0.2,0-0.4c0-0.1,0-0.1,0.1-0.1
		c0.3,0,0.6-0.1,0.9-0.1c0.5,0,1.1-0.1,1.6-0.1c0.1,0,0.2,0,0.3,0c0.1,0,0.1,0,0.1,0.1C100.5,17.1,100.5,17.2,100.5,17.3"/>
	<path style="clip-path:url(#SVGID_00000179636978146687563770000003797207468392804484_);fill:#FCED0A;" d="M88.9,5.3
		c-0.1-0.1-0.3-0.1-0.4-0.2c0,0,0-0.1,0-0.1c0.3-0.8,0.6-1.6,0.9-2.4c0-0.1,0.1-0.2,0.1-0.4c0,0,0-0.1,0.1,0
		c0.1,0.1,0.3,0.1,0.4,0.2c0.1,0,0.1,0.1,0.1,0.1c-0.2,0.4-0.4,0.9-0.5,1.3C89.3,4.4,89.1,4.8,88.9,5.3C88.9,5.3,88.9,5.3,88.9,5.3"
		/>
	<path style="clip-path:url(#SVGID_00000179636978146687563770000003797207468392804484_);fill:#FCED0A;" d="M87,4.7
		c-0.1,0-0.2-0.1-0.4-0.1c0,0-0.1,0-0.1-0.1c0.1-0.4,0.2-0.7,0.2-1.1c0.1-0.4,0.2-0.7,0.2-1.1c0-0.2,0.1-0.4,0.1-0.6
		c0-0.1,0-0.1,0.1-0.1c0.1,0,0.3,0.1,0.4,0.1c0.1,0,0.1,0,0.1,0.1c-0.1,0.4-0.2,0.8-0.3,1.1c-0.1,0.4-0.2,0.9-0.3,1.3
		C87.1,4.4,87.1,4.5,87,4.7C87,4.7,87,4.7,87,4.7"/>
	<path style="clip-path:url(#SVGID_00000179636978146687563770000003797207468392804484_);fill:#FCED0A;" d="M88.9,2.2
		c0,0.1-0.1,0.2-0.1,0.3c-0.2,0.7-0.5,1.4-0.7,2.1c0,0.1-0.1,0.2-0.1,0.4C88,5,88,5,87.9,5c-0.1,0-0.2-0.1-0.4-0.1c0,0-0.1,0,0-0.1
		c0.2-0.6,0.3-1.1,0.5-1.7c0.1-0.4,0.2-0.7,0.3-1.1c0-0.1,0-0.1,0.1-0.1C88.6,2,88.7,2,88.9,2.2C88.9,2.1,88.9,2.1,88.9,2.2"/>
	<path style="clip-path:url(#SVGID_00000179636978146687563770000003797207468392804484_);fill:#FCED0A;" d="M99.7,12.8
		C99.7,12.9,99.6,12.9,99.7,12.8c-0.3,0.1-0.6,0.2-0.8,0.3c-0.5,0.2-1.1,0.4-1.6,0.6c-0.1,0-0.2,0.1-0.4,0.1c-0.1,0-0.1,0-0.1,0
		c0-0.1-0.1-0.2-0.1-0.3c0-0.1,0-0.1,0.1-0.1c0.6-0.2,1.2-0.4,1.8-0.7c0.3-0.1,0.6-0.2,0.9-0.4c0,0,0.1,0,0.1,0
		C99.6,12.5,99.6,12.6,99.7,12.8C99.7,12.8,99.7,12.8,99.7,12.8"/>
	<path style="clip-path:url(#SVGID_00000179636978146687563770000003797207468392804484_);fill:#FCED0A;" d="M91.2,3.1
		C91.2,3.1,91.2,3.1,91.2,3.1c-0.4,0.9-0.9,1.7-1.3,2.6c0,0.1-0.1,0.1-0.2,0.1c-0.1,0-0.2-0.1-0.3-0.1c-0.1,0-0.1-0.1-0.1-0.1
		c0.3-0.6,0.6-1.2,0.8-1.8c0.1-0.2,0.2-0.5,0.3-0.7c0-0.1,0.1-0.1,0.1-0.1C90.8,2.9,91,2.9,91.2,3.1C91.1,3,91.2,3,91.2,3.1"/>
	<path style="clip-path:url(#SVGID_00000179636978146687563770000003797207468392804484_);fill:#FCED0A;" d="M90.7,6.2
		C90.6,6.2,90.6,6.2,90.7,6.2c-0.1-0.1-0.2-0.1-0.4-0.2c0,0-0.1-0.1,0-0.1c0.5-0.8,0.9-1.7,1.4-2.5c0-0.1,0.1-0.1,0.2-0.1
		c0.1,0.1,0.2,0.1,0.4,0.2c0.1,0,0.1,0.1,0,0.1C91.7,4.5,91.2,5.3,90.7,6.2C90.7,6.2,90.7,6.2,90.7,6.2"/>
	<path style="clip-path:url(#SVGID_00000179636978146687563770000003797207468392804484_);fill:#FCED0A;" d="M99.2,11.7
		C99.3,11.7,99.2,11.7,99.2,11.7c-0.4,0.2-0.7,0.3-1,0.5c-0.6,0.2-1.1,0.5-1.7,0.7c-0.1,0-0.1,0-0.2-0.1c0-0.1-0.1-0.2-0.1-0.3
		c0-0.1,0-0.1,0-0.1c0.3-0.2,0.7-0.3,1-0.5c0.5-0.2,1-0.5,1.6-0.7c0.1,0,0.1,0,0.2,0C99.1,11.4,99.2,11.5,99.2,11.7
		C99.2,11.6,99.2,11.7,99.2,11.7"/>
	<path style="clip-path:url(#SVGID_00000179636978146687563770000003797207468392804484_);fill:#FCED0A;" d="M91.5,6.8
		c0,0-0.4-0.2-0.4-0.3c0,0,0-0.1,0-0.1C91.6,5.7,92,5,92.5,4.3c0.1-0.1,0.1-0.2,0.2-0.3c0-0.1,0.1-0.1,0.1,0
		c0.1,0.1,0.2,0.2,0.4,0.2c0.1,0,0.1,0.1,0,0.1c-0.4,0.6-0.9,1.3-1.3,1.9C91.8,6.4,91.7,6.6,91.5,6.8C91.6,6.7,91.5,6.8,91.5,6.8"/>
	<path style="clip-path:url(#SVGID_00000179636978146687563770000003797207468392804484_);fill:#FCED0A;" d="M95.6,11.1
		C95.5,11.1,95.5,11.1,95.6,11.1c-0.1-0.2-0.2-0.3-0.2-0.3c0-0.1,0-0.1,0-0.1c0.7-0.5,1.5-0.9,2.2-1.4c0.1,0,0.1-0.1,0.2-0.1
		c0.1,0,0.1,0,0.1,0c0.1,0.1,0.2,0.3,0.3,0.4c0,0.1,0,0.1,0,0.1c-0.3,0.2-0.5,0.3-0.8,0.5C96.8,10.4,96.2,10.7,95.6,11.1
		C95.6,11.1,95.6,11.1,95.6,11.1"/>
	<path style="clip-path:url(#SVGID_00000179636978146687563770000003797207468392804484_);fill:#FCED0A;" d="M96.1,12
		C96,12,96,11.9,96.1,12c-0.1-0.2-0.2-0.3-0.2-0.4c0-0.1,0-0.1,0-0.1c0.4-0.2,0.9-0.5,1.3-0.7c0.4-0.2,0.8-0.4,1.2-0.7
		c0.1,0,0.1,0,0.1,0c0.1,0.1,0.1,0.2,0.2,0.4c0,0.1,0,0.1,0,0.1c-0.5,0.3-1.1,0.5-1.6,0.8C96.8,11.6,96.4,11.8,96.1,12
		C96.1,12,96.1,12,96.1,12"/>
	<path style="clip-path:url(#SVGID_00000179636978146687563770000003797207468392804484_);fill:#FCED0A;" d="M97.5,8.5
		C97.5,8.6,97.5,8.6,97.5,8.5c-0.6,0.4-1,0.8-1.5,1.1c-0.3,0.2-0.6,0.4-0.9,0.6c-0.1,0-0.1,0-0.1,0c-0.1-0.1-0.1-0.2-0.2-0.3
		c0,0,0-0.1,0-0.1c0.5-0.4,1-0.8,1.6-1.2c0.3-0.2,0.5-0.4,0.8-0.6c0,0,0.1,0,0.1,0C97.3,8.2,97.4,8.4,97.5,8.5
		C97.5,8.5,97.5,8.5,97.5,8.5"/>
	<path style="clip-path:url(#SVGID_00000179636978146687563770000003797207468392804484_);fill:#FCED0A;" d="M95.1,5.8
		C95.1,5.8,95.1,5.9,95.1,5.8c-0.5,0.6-1,1.1-1.4,1.6c-0.2,0.2-0.4,0.4-0.6,0.6C93.1,8,93,8,93,8c-0.1-0.1-0.2-0.2-0.3-0.2
		c0,0,0-0.1,0-0.1c0.6-0.7,1.3-1.5,1.9-2.2c0,0,0.1-0.1,0.1,0C94.9,5.5,95,5.6,95.1,5.8C95.1,5.8,95.1,5.8,95.1,5.8"/>
	<path style="clip-path:url(#SVGID_00000179636978146687563770000003797207468392804484_);fill:#FCED0A;" d="M94.2,5
		C94.2,5,94.2,5.1,94.2,5c-0.5,0.6-0.9,1.2-1.4,1.7c-0.1,0.2-0.3,0.4-0.4,0.6c0,0.1-0.1,0.1-0.1,0c-0.1-0.1-0.2-0.1-0.3-0.2
		c-0.1,0-0.1-0.1,0-0.1c0.3-0.5,0.7-0.9,1-1.4c0.2-0.3,0.4-0.6,0.7-0.9c0.1-0.1,0.1-0.1,0.2,0C93.9,4.8,94.1,4.9,94.2,5
		C94.2,5,94.2,5,94.2,5"/>
	<path style="clip-path:url(#SVGID_00000179636978146687563770000003797207468392804484_);fill:#FCED0A;" d="M96.8,7.6
		C96.8,7.6,96.7,7.6,96.8,7.6c-0.5,0.4-0.9,0.7-1.3,1.1c-0.3,0.3-0.6,0.5-1,0.8c-0.1,0.1-0.1,0.1-0.2,0c-0.1-0.1-0.1-0.2-0.2-0.2
		c-0.1-0.1-0.1-0.1,0-0.2c0.4-0.3,0.8-0.7,1.2-1c0.3-0.3,0.6-0.6,1-0.8c0.1-0.1,0.1-0.1,0.2,0C96.6,7.3,96.6,7.4,96.8,7.6
		C96.8,7.5,96.8,7.5,96.8,7.6"/>
	<path style="clip-path:url(#SVGID_00000179636978146687563770000003797207468392804484_);fill:#FCED0A;" d="M96,6.6
		C96,6.7,96,6.7,96,6.6c-0.6,0.6-1.1,1.1-1.7,1.6c-0.2,0.1-0.3,0.3-0.5,0.4c-0.1,0.1-0.1,0.1-0.1,0c-0.1-0.1-0.2-0.2-0.2-0.2
		c0,0,0-0.1,0-0.1c0.7-0.7,1.4-1.4,2-2c0,0,0.1-0.1,0.1,0C95.7,6.4,95.8,6.5,96,6.6C96,6.6,96,6.6,96,6.6"/>
</g>
</svg>
