<svg xmlns="http://www.w3.org/2000/svg" xmlns:xlink="http://www.w3.org/1999/xlink" viewBox="0 0 773.93 557.93"><defs><clipPath id="a" transform="translate(-35.54 -19.21)"><path d="M35.54,298.17c0,154.08,173.25,279,387,279s387-124.89,387-279-173.27-279-387-279-387,124.9-387,279" fill="none"/></clipPath><linearGradient id="b" x1="126.16" y1="716.72" x2="133.59" y2="716.72" gradientTransform="matrix(0, -75.12, -104.2, 0, 75070.35, 10035.13)" gradientUnits="userSpaceOnUse"><stop offset="0" stop-color="#11111a"/><stop offset="0.35" stop-color="#212732"/><stop offset="0.66" stop-color="#374c87"/><stop offset="1" stop-color="#9ab6df"/></linearGradient></defs><g clip-path="url(#a)"><rect width="773.93" height="557.93" fill="url(#b)"/></g><path d="M422.5,69.62c187.24,0,339,102.32,339,228.55s-151.79,228.57-339,228.57-339-102.34-339-228.57S235.26,69.62,422.5,69.62" transform="translate(-35.54 -19.21)" fill="#b7c8d9" fill-rule="evenodd"/><path d="M422.5,91.26c169.53,0,306.93,92.64,306.93,206.91S592,505.09,422.5,505.09,115.58,412.46,115.58,298.17,253,91.26,422.5,91.26" transform="translate(-35.54 -19.21)" fill="#1c3d6f" fill-rule="evenodd"/><path d="M408.45,342.65l-2.14-10.19h-.08l-2.35,10.19Zm14.1-202.15c.16,0,57.05,0,71,1.23,6.94.61,14.47,1.27,20.88,2.16s11.87,2.07,14.27,3.66a75.21,75.21,0,0,1,8,6.43,87.06,87.06,0,0,1,7.52,7.53c3.65,4.31,20.19,26.46,20.23,26.53l.13.21.54,1.06,1,2-2.25.05c-.09,0-34.49.8-60.19.67s-81.05-.3-81.2-.3v-2.85c.15,0,55.55.17,81.2.3,21.55.12,49.25-.43,57.63-.61-3.45-4.6-16.19-21.6-19.27-25.23a83.59,83.59,0,0,0-7.25-7.26,74.7,74.7,0,0,0-7.69-6.17c-2-1.32-7-2.36-13.1-3.21s-13.77-1.54-20.73-2.13c-13.84-1.19-70.63-1.22-70.79-1.22Zm44.13,9H515.9v9.63H491.25v3.95H514v9.62H491.25v4.15h25.46v9.63h-50Zm-119.27,9.93h-16v-9.93H389v9.93h-16v27.05H347.41Zm139,74.25H489c4.24,0,6.42-1,7.53-2.7s.74-4.76-.58-8.87-2.76-7.11-4.92-8.87-4.56-2.71-8.4-2.71h-2.34ZM185.39,359.34c-.19,6.45-.23,15.87,1,20.48A73.56,73.56,0,0,0,192,393.9a38.88,38.88,0,0,0,7,9.81,82,82,0,0,0,10.45,8.89,32.71,32.71,0,0,0,13.3,5.59,76.21,76.21,0,0,0,13,1.22,41.23,41.23,0,0,0,10.85-1.7,38.53,38.53,0,0,0,9.93-4.51h0a23.5,23.5,0,0,0,6.82-6.15,33.43,33.43,0,0,0,3-5.7,43.84,43.84,0,0,0,2.22-6.77,25.71,25.71,0,0,0,.46-2.71c-6.46-.47-11.27-1.11-17.55-1.94l-2.18-.29c-17.6-2.32-29.15-7.83-40.47-13.22l-.46-.22a90.48,90.48,0,0,1-12.82-7.41,44.47,44.47,0,0,1-9-8c-.39-.5-.74-1-1.05-1.43m344.18,1.06a9.65,9.65,0,0,0,3.53,6.72,10.56,10.56,0,0,0,7.55,2.35L609,364.24a10.53,10.53,0,0,0,7.07-3.48,9.62,9.62,0,0,0,2.47-7.18v0a9.68,9.68,0,0,0-3.54-6.72,10.51,10.51,0,0,0-7.54-2.34l-68.37,5.23h0A10.54,10.54,0,0,0,532,353.2a9.67,9.67,0,0,0-2.47,7.12ZM423.35,326.55h10.7v19.77h9.85v7.26H423.35Zm-39-73.33h19l7.13,34.85h.12l1.33-34.85H424.7l.16,57.58h-22.5l-7-35.09h-.12L392.2,310.8H377Zm-120-66s.2-.25.49-.62c-.84-.6-4.32-2.62-12.65-2.62-5.43,0-10.59.12-14.62.38a34.05,34.05,0,0,0-7.27,1,20.83,20.83,0,0,0-4.09,1.91,4.23,4.23,0,0,0-2.12,2.7,14.82,14.82,0,0,0-.11,4.19,9.23,9.23,0,0,0,1.5,3.88,32.26,32.26,0,0,0,4.37,5,30.43,30.43,0,0,0,5.09,3.93c2.19,1.27,3.5,2,4.2,2.46l20.59-15.74c.72-1.09,4-6,4.62-6.4ZM311.9,367.12a9.66,9.66,0,0,0,3.54-6.72h0A9.64,9.64,0,0,0,313,353.2a10.57,10.57,0,0,0-7.07-3.47h0l-68.37-5.23a10.51,10.51,0,0,0-7.54,2.34,9.69,9.69,0,0,0-3.54,6.74v0a9.66,9.66,0,0,0,2.47,7.14,10.58,10.58,0,0,0,7.07,3.48h0l68.38,5.23a10.51,10.51,0,0,0,7.53-2.35M343,339.71V325.27l-50.4-.85a178.31,178.31,0,0,1-22.93-1c-5.86-.65-11.38-1.4-16.48-2.19-5.56-.86-10.56-1.77-14.93-2.68l-3.83-.76c-1.16-.23-1.79-.35-3-.65-1.41-.34-3.32-.84-7.5-1.92l-5.16-1.34a248.18,248.18,0,0,1-32.6-11.44v14.18a247.7,247.7,0,0,0,33.31,11.78l5.25,1.36c4.21,1.09,6.16,1.6,7.37,1.89,1,.23,1.66.37,2.93.63.73.13,1.72.34,3.84.77,4.35.9,9.31,1.8,14.79,2.65,5,.77,10.44,1.5,16.36,2.17a175.11,175.11,0,0,0,22.57,1h.06Zm160.11,18.78H343v-2a15.67,15.67,0,0,0-5.61,2.23c-2.26,1.51-3.66,3.53-3.66,5.72s1.4,4.22,3.66,5.73a17.5,17.5,0,0,0,9.57,2.61H501.54a17.52,17.52,0,0,0,9.57-2.61c2.23-1.5,3.63-3.51,3.66-5.67v-.06c0-2.19-1.4-4.21-3.66-5.72a16.85,16.85,0,0,0-8-2.55Zm-64.44-89.8H428.39l-.21-15.47h35.51l1.93,15.47H455.3l4.13,42.11H440.67Zm-39.14,57.86h13.89l8.68,27H411.07L410,349.23h-7.75l-1.08,4.35H390.93ZM531.3,369.32a12.73,12.73,0,0,1-4.41-7.39h0l-.07-.79c0-.18,0-.35,0-.54h0a12.45,12.45,0,0,1,3.17-9.29,13.4,13.4,0,0,1,9-4.42h0l68.38-5.24a13.38,13.38,0,0,1,9.55,3,12.51,12.51,0,0,1,4.58,8.71h0a12.55,12.55,0,0,1-3.18,9.29,13.33,13.33,0,0,1-9,4.41h0l-68.35,5.25a13.45,13.45,0,0,1-9.56-3M335.23,289.5c-4.16,15.88-16.48,22.81-28.27,22.81-16.66,0-19.51-12.28-12.43-30.53,6.36-17.95,18.23-30.07,31.66-30.07,10,0,17.05,5.9,12.87,22.81H323.61c1.71-6.55.36-7.82-1.65-7.82-4.27,0-6.63,6.06-9.67,15.31-2.91,8.77-4.72,15.31-.17,15.31,2.33,0,4.46-1.76,6.57-7.82Zm184.54-88.61h43.92l7.07,11.05H547.68l2.48,4.52h21.75l7.24,11H556.36l2.71,4.77h26l7.61,11H539.25Zm-97.3-57.53c-.16,0-57,0-70.81,1.22-7,.59-14.47,1.26-20.72,2.13s-11.1,1.89-13.1,3.21a75,75,0,0,0-7.7,6.17,84.76,84.76,0,0,0-7.24,7.26c-3.08,3.63-15.83,20.63-19.27,25.23,8.38.18,36.08.73,57.62.61,25.66-.13,81.06-.3,81.22-.3v2.85c-.16,0-55.54.16-81.22.3s-60.09-.67-60.19-.67l-2.25-.05,1-2,.53-1.06.13-.21c0-.07,16.59-22.22,20.24-26.53a88.25,88.25,0,0,1,7.51-7.53,75.47,75.47,0,0,1,8-6.43c2.4-1.59,7.75-2.76,14.27-3.66s13.94-1.55,20.89-2.16c14-1.2,70.88-1.23,71-1.23ZM592.84,184c-8.34,0-11.82,2-12.67,2.62.29.37.47.61.49.62h0c.61.41,3.9,5.31,4.62,6.4l20.59,15.74,4.19-2.46a29.64,29.64,0,0,0,5.09-3.93,31.33,31.33,0,0,0,4.38-5,8.93,8.93,0,0,0,1.48-3.88,14.42,14.42,0,0,0-.08-4.19,4.26,4.26,0,0,0-2.14-2.7,20.57,20.57,0,0,0-4.09-1.91,33.93,33.93,0,0,0-7.26-1c-4-.26-9.19-.38-14.61-.38M431.17,172.85H420.23v13.62H394.58v-37h25.65V162h10.94V149.49h25.64v37H431.17ZM256.4,269.57a25.08,25.08,0,0,1-6.69,17.07,16.68,16.68,0,0,0,3.16,4.44,16.31,16.31,0,0,0,22.93,0,16.05,16.05,0,0,0,0-22.78,16.33,16.33,0,0,0-19.68-2.5,26,26,0,0,1,.28,3.77m166.83-43.42-4.92-16h-.17l-5.78,16ZM253.54,269.57a22.55,22.55,0,0,0-45.1,0,22.28,22.28,0,0,0,6.6,15.85,22.58,22.58,0,0,0,38.5-15.85M404,200.89h29.69l24.78,42.41H430.14l-2.88-6.81H408l-3.13,6.81H378.64Zm105.5,52.33h30.36l5.43,15H529.37l2,6.14h15l5.55,15H536.21l2.13,6.45h17.85l5.81,15H525.4ZM279.29,212.29h-15l7.59-11.4h51.37l-5,11.4h-15l-16.2,31H259.77Zm48.94-11.4H362.4c12.4,0,19.21,2.76,17.82,10.75-.85,4.88-4.55,8.58-14.29,10.11l0,.12c6.06.34,9,2.17,9.68,5.39.77,3.65-.52,9.64,1.43,16H350.22c-.71-3.17,0-8.51.12-12.16.08-2.12-1.3-2.93-5.44-2.93h-3l-5,15.09h-26.8Zm-10,159.71a12.51,12.51,0,0,1-4.57,8.72,13.45,13.45,0,0,1-9.56,3l-68.37-5.25h0a13.34,13.34,0,0,1-9-4.41,12.51,12.51,0,0,1-3.17-9.3v0l.09-1.3h.08a12.61,12.61,0,0,1,4.4-7.39,13.41,13.41,0,0,1,9.56-3l68.37,5.24h0a13.34,13.34,0,0,1,9,4.42,12.49,12.49,0,0,1,3.17,9.29Zm127.9-34.05h20.55v7H456.44v2.88h9.5v7h-9.5v3h10.62v7H446.18Zm-99-108c4.74,0,8.51-1.11,9.38-4.29s-2-3.76-6.73-3.76h-2.17l-2.56,8Zm6.61,108h9.59l2.28,17h.08l2.5-17h11.08l2.51,17h.08l2.28-17h9.58l-5.84,27h-11.6l-2.51-17.52h-.07l-2.51,17.52H359.59Zm113.38-73.33h23.61c8.58,0,14.55,3.75,17.28,14.59,1.69,6.63.88,11.65-5.1,13.73l0,.15c4.34.49,7.26,2.95,9.25,7.34,2.28,4.94,4.3,13.07,8.79,21.77H502.65c-2.07-4.31-4.22-11.57-5.91-16.51-1-2.87-2.33-4-5.17-4h-2l4,20.5H475.16Zm16.6,81a2,2,0,0,0-2.36-2.24c-1.72,0-2.48.74-2.48,1.57s.64,1.38,1.76,1.72a78.76,78.76,0,0,1,8.58,2.51c3.41,1.42,4.91,3.86,4.91,7.11,0,6.63-5.4,9.4-13,9.4-6.53,0-12.51-2-12.51-9.06h10.26a3.51,3.51,0,0,0,.56,2.06,2.48,2.48,0,0,0,2.1.86,2.34,2.34,0,0,0,2.58-2.21c0-1-.78-1.53-1.8-1.83l-7.59-2.25c-4.16-1.23-5.62-3.74-5.62-7.23,0-5.61,4.52-8.79,12.43-8.79,6.73,0,11.79,2.1,11.79,8.38ZM349,253.22h30.37l-2.08,15H361.39l-1.17,6.14h15l-2.2,15H357.34l-1.26,6.45h17.84l-2.19,15H335.14ZM576.07,391.87a23.29,23.29,0,0,0,.46,2.71,43.17,43.17,0,0,0,2.22,6.78,33.67,33.67,0,0,0,3,5.69,23.77,23.77,0,0,0,6.82,6.15,38.75,38.75,0,0,0,9.94,4.51,41.16,41.16,0,0,0,10.85,1.7,76,76,0,0,0,13-1.22,32.75,32.75,0,0,0,13.31-5.59,79.73,79.73,0,0,0,10.43-8.89,38.41,38.41,0,0,0,7-9.81,72.9,72.9,0,0,0,5.52-14.08c1.26-4.61,1.24-14,1-20.48-.31.47-.65.93-1,1.43a44.31,44.31,0,0,1-9,8,89.36,89.36,0,0,1-12.82,7.41l-.46.22c-11.32,5.39-22.86,10.9-40.46,13.22l-2.18.29c-6.28.83-11.1,1.47-17.55,1.94m-120.62-191h27.13c23.11,0,34.23,9.11,39.54,21.68,5.56,12.81-4.5,20.73-25.75,20.73H462.3Zm133.3,68.68a25,25,0,0,0,6.68,17.07,16,16,0,0,1-3.16,4.44,16.3,16.3,0,0,1-22.92,0,16.05,16.05,0,0,1,0-22.78A16.32,16.32,0,0,1,589,265.8a24.7,24.7,0,0,0-.27,3.77m2.84,0a22.56,22.56,0,0,1,45.12,0,22.33,22.33,0,0,1-6.61,15.85,22.59,22.59,0,0,1-38.51-15.85m47.94,40.24h.14c8.55-2.91,15.89-5.95,19.16-7.35v14.12a248.49,248.49,0,0,1-33.3,11.78l-5.28,1.37c-4.2,1.08-6.13,1.59-7.34,1.88-1,.23-1.66.37-2.94.63-.72.13-1.71.34-3.83.77-4.35.9-9.31,1.8-14.8,2.65-5,.77-10.44,1.5-16.35,2.17a175.11,175.11,0,0,1-22.57,1h-.06l-49.21.83V325.25l49.22-.83a178.31,178.31,0,0,0,22.93-1c5.86-.65,11.37-1.4,16.47-2.19,5.56-.86,10.57-1.77,14.94-2.68l3.81-.76c1.18-.23,1.81-.35,3.05-.65,1.4-.34,3.32-.84,7.47-1.92l5.21-1.34c4.49-1.17,9-2.58,13.28-4m-27.62-95.92h-.13l-3.46-2.64c.74-.45,1.78-1.06,3.18-1.87a33,33,0,0,0,5.62-4.32,33.93,33.93,0,0,0,4.77-5.46,11.78,11.78,0,0,0,2-5,17.85,17.85,0,0,0-.1-5,6.83,6.83,0,0,0-3.38-4.67,24,24,0,0,0-4.66-2.21,35.23,35.23,0,0,0-8.09-1.13c-4.14-.27-9.37-.4-14.78-.4-8.91,0-13.14,2.36-14.36,3.21-1.5-2-3.21-4.34-3.22-4.36l-.08-.1c0-.06-13.24-14.86-26.48-29.58-8.05-8.95-14.2-10.37-17.69-11.18-.57-.14-1.06-.25-1.46-.38A143.41,143.41,0,0,0,515,135.88c-5.54-.89-12.06-1.79-18.59-2.46-15.15-1.55-73.67-1.73-73.83-1.73v2.84c.16,0,58.49.18,73.54,1.72,6.51.67,13,1.57,18.43,2.44a138.82,138.82,0,0,1,14.14,2.77c.48.16,1.05.29,1.72.45,3.17.73,8.76,2,16.2,10.3,5,5.55,25.25,28.2,26.43,29.51.41.57,5.31,7.39,6.09,7.91.29.22,3.95,5.76,3.95,5.77l.33.36,39.09,29.89-1.72,19.51a25.56,25.56,0,0,0-24.56,6.54,25.23,25.23,0,0,0-6.55,11.18,18.89,18.89,0,1,0,7.93,25.83,25.32,25.32,0,1,0,26-42.63l1.62-18.37.69.53c1.12,1,20.54,19.43,26,28.31,1.14,1.83,2.07,3.14,2.89,4.27,3.19,4.49,4.06,5.7,4.06,23.33h0V299.3a247,247,0,0,1-33.3,11.78l-5.2,1.36c-4.25,1.09-6.2,1.6-7.42,1.89-1,.23-1.66.37-2.92.62l-3.85.78c-4.35.91-9.31,1.81-14.8,2.65-5,.77-10.44,1.5-16.35,2.17a175.11,175.11,0,0,1-22.57,1h-.06l-49.21.83v-.21H343v.22l-50.39-.84h-.06a175.11,175.11,0,0,1-22.57-1c-5.92-.67-11.39-1.4-16.36-2.17-5.48-.84-10.44-1.74-14.79-2.65L235,315c-1.28-.25-2-.39-2.94-.62-1.22-.29-3.18-.8-7.44-1.9l-5.17-1.35a247.7,247.7,0,0,1-33.31-11.78V284.15h0c0-17.63.88-18.84,4.07-23.33.82-1.13,1.75-2.45,2.89-4.27,5.5-8.88,24.92-27.26,26-28.31l.81-.64,1.64,18.48a25.3,25.3,0,1,0,26,42.63,19.1,19.1,0,0,0,30.22,4.38,18.87,18.87,0,0,0,0-26.81,19.11,19.11,0,0,0-22.3-3.4A25.38,25.38,0,0,0,231,244.3a25.63,25.63,0,0,0-6.6.86l-1.73-19.6,39-29.8.33-.36s3.66-5.55,3.94-5.77c.78-.52,5.7-7.34,6.1-7.91,1.17-1.31,20.92-23.38,26.43-29.51,7.44-8.28,13-9.57,16.2-10.3.64-.15,1.19-.28,1.72-.46h0a137.57,137.57,0,0,1,14.14-2.77c5.46-.87,11.92-1.77,18.42-2.44,15.06-1.54,73.39-1.72,73.56-1.72v-2.84c-.17,0-58.69.18-73.85,1.73-6.53.67-13.05,1.57-18.58,2.46a142.78,142.78,0,0,0-14.58,2.87h0c-.35.12-.87.24-1.47.38-3.49.81-9.63,2.23-17.68,11.18-12.71,14.13-26.43,29.52-26.48,29.58l-.08.1-3.22,4.36c-1.23-.85-5.45-3.21-14.35-3.21-5.43,0-10.65.13-14.79.4a35.34,35.34,0,0,0-8.1,1.13,23.64,23.64,0,0,0-4.65,2.21,6.87,6.87,0,0,0-3.39,4.67,18.24,18.24,0,0,0-.1,5,11.9,11.9,0,0,0,2,5,34,34,0,0,0,4.78,5.46,33.33,33.33,0,0,0,5.61,4.32c1.4.81,2.45,1.42,3.19,1.87L217.38,226l-.11.11c-.06,0-20.7,19.48-26.56,28.94-1.06,1.69-2,3-2.78,4.11-3.63,5.08-4.6,6.45-4.6,25h0v55.71l-.42,12.63h-.07c0,.05-1.3,20.23.85,28.08a76.7,76.7,0,0,0,5.74,14.65,41.87,41.87,0,0,0,7.5,10.53,83.89,83.89,0,0,0,10.8,9.21,35.81,35.81,0,0,0,14.47,6,75.37,75.37,0,0,0,13.54,1.25,43.31,43.31,0,0,0,11.57-1.79A41.77,41.77,0,0,0,258,415.6h0a26.48,26.48,0,0,0,7.65-7,36,36,0,0,0,3.23-6.19,45.15,45.15,0,0,0,2.36-7.25,24.85,24.85,0,0,0,.52-3.12c9.78.61,23.67.9,50.21,1,50.16.16,100.34,0,100.49,0v-2.84c-.15,0-50.33.18-100.49,0-47.92-.15-54.37-1-70.22-3.11l-2.19-.29c-17.12-2.26-28.48-7.68-39.61-13l-.45-.22a83.88,83.88,0,0,1-12.41-7.17,41,41,0,0,1-8.42-7.45,15.23,15.23,0,0,1-3-5.3l.46-13.75V319.67a246.35,246.35,0,0,0,32.6,11.45l5.25,1.36c4.12,1.07,6,1.56,7.42,1.89,1.24.3,1.88.43,3.05.66,1,.19,2.32.46,3.81.77,4.37.9,9.37,1.81,14.93,2.68,5.1.78,10.62,1.52,16.48,2.18a178.31,178.31,0,0,0,22.93,1l50.4.85V353.5a18.85,18.85,0,0,0-7.22,2.77c-3.06,2.05-4.95,4.91-4.95,8.13s1.89,6.09,4.95,8.13A20.33,20.33,0,0,0,347,375.65H501.54a20.36,20.36,0,0,0,11.18-3.12c3.06-2,4.95-4.91,4.95-8.13V363h-.13a10.53,10.53,0,0,0-4.82-6.68,20,20,0,0,0-9.57-3.06V342.53l49.22-.83a178.31,178.31,0,0,0,22.93-1c5.86-.66,11.37-1.4,16.48-2.18,5.56-.87,10.56-1.78,14.93-2.68,1.48-.31,2.8-.57,3.81-.77,1.18-.23,1.8-.36,3.05-.66s3.28-.82,7.4-1.89l5.28-1.36a249.28,249.28,0,0,0,32.58-11.44V340l.47,13.75a15.43,15.43,0,0,1-3,5.3,41.13,41.13,0,0,1-8.43,7.45,83.73,83.73,0,0,1-12.4,7.17l-.46.22c-11.13,5.31-22.49,10.72-39.61,13l-2.18.29c-15.86,2.1-22.3,3-70.22,3.11-50.16.15-100.35,0-100.48,0V393c.13,0,50.32.18,100.48,0,26.54-.08,40.42-.37,50.2-1a29.24,29.24,0,0,0,.52,3.12,46.58,46.58,0,0,0,2.36,7.26,37.84,37.84,0,0,0,3.24,6.18,26.56,26.56,0,0,0,7.64,7,42.22,42.22,0,0,0,10.71,4.85,43.31,43.31,0,0,0,11.57,1.79A75.53,75.53,0,0,0,622.81,421a35.67,35.67,0,0,0,14.45-6,82.67,82.67,0,0,0,10.81-9.21,41.78,41.78,0,0,0,7.51-10.54,77,77,0,0,0,5.74-14.64c2.15-7.85.84-28,.83-28.08h0l-.43-12.63V309.81h.13V284.15c0-18.53-1-19.9-4.59-25-.8-1.11-1.73-2.42-2.79-4.11-5.86-9.46-26.49-28.89-26.55-28.94l-.11-.11ZM488.48,277.23c3.27,0,5.32-1.52,4.43-5.83s-3.18-5.09-6.41-5.09H485l2,10.92Z" transform="translate(-35.54 -19.21)" fill="#fff" fill-rule="evenodd"/><path d="M671.38,487.26c3.22,5.81.18,11-4.81,14.07-7.05,4.29-12.81,1.77-16.51-4.9-3.84-6.45-2.56-13.15,4.24-17.29,5.08-3.08,10.58-3.52,14,2.64L661,486.22c-1.43-2.33-2.53-2.28-3.51-1.7-2.06,1.26-1,3.59.85,7,1.79,3.21,3.28,5.5,5.28,4.28,1-.62,1.38-1.7.26-4ZM250.63,508.73l8.73,3.11-5.49,16.85,8,2.86-2,6.2-16.77-6Zm15.73,22.21-3.21-17.59,9.15,2.83.34,10.74.06,0,5.86-8.85,8.47,2.61-11.82,12.95-2.29,8.1L264.08,539ZM129.84,446.09c1.73,1.73,3,1.72,4.12.48s1.06-2.35-.39-3.79l-.69-.7-3.37,3.68Zm0-14.67,9.8,9.78c4.05,4.06,3.72,8.43.69,11.75-3.21,3.52-7.59,3.71-12.29-1l-2.21-2.19-5.4,5.92L113.77,449Zm18.34,30.65c1.4,1.14,2.8,1.46,3.87,0s.32-2.48-1.1-3.64l-.66-.54-2.72,3.64Zm-1.76-14.32,10.86,8.86c3.95,3.22,5.33,6.36,2.63,10-1.65,2.21-3.79,3.16-7.05,1.61l0,.06c1.65,1.61,2,3.22,1.27,5-.82,2-2.9,4.65-4.22,8.24l-7.12-5.81A61.57,61.57,0,0,1,146,469.4c.57-1.09.39-1.83-.79-2.79l-.83-.68-5.1,6.83L132.12,467Zm17.66,36.71c1.18.82,2.52.74,5.48-4s2.57-6,1.34-6.83-2.59-.62-5.48,4-2.53,6-1.34,6.84m10.15-16.1c6.71,4.62,7.29,11.29,3.3,17.62s-10.08,8.4-16.79,3.78-7.3-11.29-3.3-17.63,10.09-8.4,16.79-3.77m16.21,17.2-2.16,4,1.07.63c1.86,1.08,2.92.55,3.58-.68.76-1.42.16-2.43-1.44-3.37Zm-6.52,12.19,1.13.65c2,1.16,3.12.94,4-.62.68-1.3.06-2.48-1.83-3.57l-1-.61Zm1.4-21.14,12.08,7.07c4.39,2.56,5.48,5.75,3.58,9.32-1.1,2.07-2.89,3.41-6.3,2.39l0,.06a5.68,5.68,0,0,1,1.7,7.52c-2,3.65-6,4.5-11.06,1.54L174,497.88Zm49.48,31.27-1.63,4.29,1.13.47c2,.83,3,.16,3.47-1.16.57-1.51-.15-2.43-1.86-3.15Zm-4.95,13,1.21.49c2.09.88,3.21.51,3.84-1.15.52-1.38-.24-2.46-2.25-3.3l-1.11-.46Zm-1.24-21.15,12.86,5.36c4.67,1.95,6.16,5,4.71,8.77-.83,2.18-2.45,3.77-5.95,3.22l0,.05a5.64,5.64,0,0,1,2.62,7.23c-1.48,3.89-5.38,5.28-10.77,3l-12.08-5Zm-17,7.76,2.09-9.12-.06,0-5.59,7.38Zm-1-16.53,10.81,5.36-3.21,25.36-8.63-4.28.78-3.93-6-3L202,513.56l-8-4Zm88.86,39.61-5.6-1.29,1.35-6.39,20.22,4.68-1.36,6.39-5.6-1.3L304.87,550l-9-2.09Zm143.74,14.08a1.8,1.8,0,0,0-2.09-2c-1.49,0-2.11.75-2.08,1.48s.58,1.23,1.55,1.51a63,63,0,0,1,7.44,2,6.44,6.44,0,0,1,4.4,6.28c.17,6-4.4,8.6-11,8.79-5.6.18-10.8-1.5-11-7.83l8.83-.27a3.3,3.3,0,0,0,.55,1.84,2.08,2.08,0,0,0,1.82.72,2.06,2.06,0,0,0,2.17-2.05c0-.91-.72-1.36-1.59-1.6l-6.6-1.83c-3.62-1-4.93-3.23-5-6.36-.14-5.06,3.68-8,10.48-8.25,5.81-.18,10.21,1.59,10.36,7.25ZM421.4,538h5.87l0,10.12h-5.87Zm-26.13-.56,9,.25L404,548.19h.07l5-10.32,9.74.28-6.52,11.29,6.76,13.07-10-.27L404,551.16H404l-.28,10.92-9-.25Zm-3.44,16c-.38,5.86-4.6,8.49-11.62,8s-10.84-3.72-10.45-9.58l1.07-16.15,9.2.67-1,15.75c-.13,1.91.69,2.72,1.66,2.79s1.87-.61,2-2.53l1.05-15.75,9.19.67Zm-50.92-21.44,17.56,2.37-.78,6.28-8.8-1.19-.31,2.59,8.12,1.09-.77,6.29-8.13-1.09-.34,2.71,9.08,1.22-.77,6.29-17.85-2.41Zm-14.05,13.17-3.88-.7-1.47,8.84-9.08-1.65,4-24,9.09,1.65-1.35,8.12,3.87.7,1.36-8.12,9.09,1.66-4,24-9.09-1.66Zm296.91-41.64-5.2,2.52-2.64-5.94,18.79-9.1,2.63,5.94-5.21,2.52,7.16,16.15-8.37,4.06Zm-13.34,6.32a1.75,1.75,0,0,0-2.61-1.1c-1.37.58-1.73,1.46-1.47,2.14s.95.95,2,.86a61.33,61.33,0,0,1,7.66-.76,6.19,6.19,0,0,1,6.19,4.31c2.11,5.55-1.32,9.67-7.43,12.22-5.22,2.17-10.65,2.48-12.9-3.42l8.22-3.41a3.08,3.08,0,0,0,1.09,1.53,2.38,2.38,0,0,0,3.33-2.69c-.32-.85-1.12-1-2-.93l-6.79.65c-3.73.35-5.7-1.26-6.81-4.18-1.78-4.7.82-8.87,7.16-11.51,5.38-2.25,10.09-2.17,12.1,3.09Zm-32.08,4.79,16.77-5.94,2,6-8.41,3,.81,2.46,7.75-2.75,1.94,6-7.74,2.76.84,2.59,8.67-3.08,2,6-17,6Zm-10.06,14.16c2.3-.68,2.92-1.82,2.47-3.47s-1.39-2.15-3.31-1.58l-.93.27,1.32,4.91Zm-12.09-7.45,13-3.88c5.4-1.61,8.83.92,10,5.33,1.28,4.67-.78,8.72-7,10.59l-2.92.86,2.14,7.88-8.87,2.64Zm-8.61,17-3.75-8.52h-.06l0,9.43Zm-10.53-12.36,11.66-2.78,12.47,22-9.32,2.22-1.71-3.61-6.5,1.55-.09,4-8.61,2Zm-24.32,4.8,17.43-3.27,1.07,6.25-8.73,1.63L523,538l8.06-1.5,1.07,6.24L524,544.3l.46,2.68,9-1.69,1.07,6.25-17.72,3.32Zm-9.69,17-3.91.55,1.14,8.9-9.13,1.28L488,534.46l9.15-1.28,1.05,8.16,3.9-.55-1.05-8.16,9.15-1.28,3.08,24.14-9.14,1.28Zm-15.4,2.07c.56,6.68-4.3,10.08-10,10.61-8.12.75-12.32-4.08-13-11.77-.86-7.54,3-13,10.86-13.76,5.85-.54,11,1.48,11.64,8.6l-8.42.78c-.37-2.74-1.38-3.19-2.49-3.09-2.38.23-2.4,2.8-2.06,6.7.3,3.7.73,6.42,3,6.21,1.19-.11,1.93-.92,1.85-3.48ZM716,439.41a1.72,1.72,0,0,0-2.81.1c-1,1.11-1,2.06-.51,2.57s1.23.48,2.11,0a69,69,0,0,1,6.71-3.93,6,6,0,0,1,7.35,1.34c4.06,4.18,2.51,9.4-2.1,14.31-3.92,4.19-8.79,6.76-13.11,2.32l6.19-6.6a3,3,0,0,0,1.6.94,2.11,2.11,0,0,0,1.79-.8,2.16,2.16,0,0,0,.21-3.05c-.61-.64-1.43-.47-2.22,0l-6,3.46c-3.27,1.89-5.69,1.24-7.84-.95-3.45-3.55-2.67-8.46,2.11-13.54,4.06-4.34,8.4-6.26,12.27-2.29Zm-17.37,20.92c1.38-1.18,2-2.53.89-3.94s-2.23-.88-3.63.32l-.65.55,2.8,3.58ZM685,459l10.65-9.12c3.87-3.31,7.1-4,9.88-.47,1.7,2.17,2.11,4.56-.06,7.54l0,0c1.88-1.34,3.46-1.34,4.93-.2,1.66,1.28,3.7,4,6.74,6.13l-7,6a63,63,0,0,1-5.14-4.63c-.87-.81-1.6-.8-2.77.19l-.82.7,5.26,6.71-7,6Zm-1.88,19-6.46-6.49-.07,0,3.28,8.78Zm-14.14-7.47,9.88-7.06,19.31,15.7-7.88,5.62-2.85-2.69L681.87,486l1.34,3.8-7.29,5.2Z" transform="translate(-35.54 -19.21)" fill="#fff" fill-rule="evenodd"/></svg>