<?xml version="1.0" encoding="utf-8"?>
<!-- Generator: Adobe Illustrator 26.1.0, SVG Export Plug-In . SVG Version: 6.00 Build 0)  -->
<svg version="1.1" id="Layer_1" xmlns="http://www.w3.org/2000/svg" xmlns:xlink="http://www.w3.org/1999/xlink" x="0px" y="0px"
	 viewBox="0 0 334 339.6" style="enable-background:new 0 0 334 339.6;" xml:space="preserve">
<style type="text/css">
	.st0{fill:none;stroke:#FFFFFF;stroke-width:16;}
	.st1{fill:none;}
	.st2{fill:none;stroke:#FFFFFF;stroke-width:22.19;}
</style>
<path class="st0" d="M163.7,160.8c22.2,0,40.3-18,40.3-40.3c0-22.2-18-40.3-40.3-40.3c-22.2,0-40.3,18-40.3,40.3
	C123.5,142.7,141.5,160.8,163.7,160.8z"/>
<path class="st0" d="M113.4,184.2c-17.9,0-32.4,14.5-32.4,32.4v22c0,5.7,4.6,10.4,10.4,10.4h144.8c5.7,0,10.4-4.6,10.4-10.4v-22
	c0-17.9-14.5-32.4-32.4-32.4H113.4z"/>
<polyline class="st0" points="227.2,145.2 249.3,163.9 286.1,119.1 "/>
<rect x="76.7" y="75.9" class="st1" width="214.7" height="172.4"/>
<path class="st2" d="M167,328.5c86.1,0,155.9-71.1,155.9-158.7S253.1,11.1,167,11.1S11.1,82.2,11.1,169.9S80.9,328.5,167,328.5z"/>
</svg>
