<?xml version="1.0" encoding="utf-8"?>
<!-- Generator: Adobe Illustrator 25.3.1, SVG Export Plug-In . SVG Version: 6.00 Build 0)  -->
<svg version="1.1" id="Layer_1" xmlns="http://www.w3.org/2000/svg" xmlns:xlink="http://www.w3.org/1999/xlink" x="0px" y="0px"
	 viewBox="0 0 600 600" style="enable-background:new 0 0 600 600;" xml:space="preserve">
<style type="text/css">
	.st0{clip-path:url(#SVGID_2_);fill:none;stroke:#FFFFFF;stroke-width:31.693;}
	.st1{fill:#FFFFFF;}
</style>
<g>
	<defs>
		<rect id="SVGID_1_" width="600" height="600"/>
	</defs>
	<clipPath id="SVGID_2_">
		<use xlink:href="#SVGID_1_"  style="overflow:visible;"/>
	</clipPath>
	<circle class="st0" cx="300" cy="300" r="226.4"/>
</g>
<g>
	<path class="st1" d="M144.5,260.1c0-21.9,18-39,39.9-39c12.9,0,23.3,5.2,31.3,14.7l-13.6,14c-4.4-6.8-10.5-10.1-17.7-10.1
		c-11.7,0-20.2,9.1-20.2,20.4c0,11.1,8.5,20.3,20.2,20.3c7.5,0,13.8-3.8,17.9-10.5l13.6,14c-8.3,10.2-19.4,15.2-31.5,15.2
		C162.4,299.1,144.5,281.9,144.5,260.1z"/>
	<path class="st1" d="M223.4,297.7v-75.1h19.6V279h31.2v18.6H223.4z"/>
	<path class="st1" d="M302.2,297.7h-19.5v-75.1h19.5V297.7z"/>
	<path class="st1" d="M313.5,260.1c0-21.9,18-39,39.9-39c12.9,0,23.3,5.2,31.3,14.7l-13.6,14c-4.4-6.8-10.5-10.1-17.7-10.1
		c-11.8,0-20.2,9.1-20.2,20.4c0,11.1,8.5,20.3,20.2,20.3c7.5,0,13.8-3.8,17.9-10.5l13.6,14c-8.3,10.2-19.4,15.2-31.5,15.2
		C331.3,299.1,313.5,281.9,313.5,260.1z"/>
	<path class="st1" d="M433.1,297.7l-21.4-26.2v26.2h-19.4v-75.2h19.4v26.6l22-26.6h22.5l-30.6,37l31.6,38.2H433.1z"/>
</g>
<g>
	<path class="st1" d="M213.3,400.5v-31h-21.3v31h-19.4v-75.1h19.4v27.9h21.3v-27.9h19.4v75.1H213.3z"/>
	<path class="st1" d="M246.7,400.5v-75.1h50.1v16.4h-31.5v11.7h31.1v16.1h-31.1v13.7h31.5v17.2H246.7z"/>
	<path class="st1" d="M347.1,400.5l-5.5-17.9c-2-6.4-5.7-9.8-12.1-9.8h-2.2v27.6h-19.3v-75.1l31.3-0.1c13,0,23,9.8,23,22.8
		c0,7.3-5,15.3-11.7,18.5c3.3,1.8,6,4.4,7.9,9.7l4.1,11.8c1.4,4,2.7,8.3,5.3,12.3H347.1z M327.4,340.9v16h7.6c5.3,0,8.6-3.3,8.6-7.8
		c0-4.8-3.4-8.2-8.6-8.2H327.4z"/>
	<path class="st1" d="M377,400.5v-75.1h50.1v16.4h-31.5v11.7h31.1v16.1h-31.1v13.7h31.5v17.2H377z"/>
</g>
</svg>
