<svg version="1.1" id="Layer_1" xmlns="http://www.w3.org/2000/svg" xmlns:xlink="http://www.w3.org/1999/xlink" x="0px" y="0px"
	 viewBox="0 0 9.6 9.6" style="enable-background:new 0 0 9.6 9.6;" xml:space="preserve">
<style type="text/css">
	.st0{clip-path:url(#SVGID_00000079473121430706940720000010412647533677887623_);fill:none;stroke:#FFFFFF;stroke-width:0.776;}
	.st1{clip-path:url(#SVGID_00000079473121430706940720000010412647533677887623_);fill:#FFFFFF;}
</style>
<g>
	<defs>
		<rect id="SVGID_1_" width="9.6" height="9.6"/>
	</defs>
	<clipPath id="SVGID_00000147185397139954895080000013489421444575595944_">
		<use xlink:href="#SVGID_1_"  style="overflow:visible;"/>
	</clipPath>
	
		<path style="clip-path:url(#SVGID_00000147185397139954895080000013489421444575595944_);fill:none;stroke:#FFFFFF;stroke-width:0.776;" d="
		M4.8,9.2c2.4,0,4.4-2,4.4-4.4s-2-4.4-4.4-4.4s-4.4,2-4.4,4.4S2.4,9.2,4.8,9.2z"/>
	<path style="clip-path:url(#SVGID_00000147185397139954895080000013489421444575595944_);fill:#FFFFFF;" d="M5,2.7
		c-0.1,0-0.3,0.1-0.4,0.2C4.4,3,4.4,3.4,4.7,3.6l0.6,0.6H2.8c-0.3,0-0.5,0.2-0.5,0.5c0,0.3,0.2,0.5,0.5,0.5h2.5L4.7,6
		c-0.2,0.2-0.2,0.6,0,0.8C4.9,7,5.2,7,5.4,6.7c0.7-0.7,1.2-1.2,1.8-1.8c0.1-0.1,0.1-0.2,0-0.2L5.4,2.8C5.3,2.7,5.2,2.7,5,2.7"/>
</g>
</svg>
