<?xml version="1.0" encoding="utf-8"?>
<!-- Generator: Adobe Illustrator 28.0.0, SVG Export Plug-In . SVG Version: 6.00 Build 0)  -->
<svg version="1.1" id="Layer_1" xmlns="http://www.w3.org/2000/svg" xmlns:xlink="http://www.w3.org/1999/xlink" x="0px" y="0px"
	 viewBox="0 0 165.3 37.8" style="enable-background:new 0 0 165.3 37.8;" xml:space="preserve">
<style type="text/css">
	.st0{fill:#253C72;}
	.st1{fill:none;}
	.st2{fill:#FFFFFF;}
	.st3{fill:#F7FB0E;}
	.st4{clip-path:url(#SVGID_00000036970556016023442740000010763342365488876456_);}
	.st5{clip-path:url(#SVGID_00000036970556016023442740000010763342365488876456_);fill:#253C72;}
	.st6{clip-path:url(#SVGID_00000036970556016023442740000010763342365488876456_);fill:#FFFFFF;}
	.st7{clip-path:url(#SVGID_00000036970556016023442740000010763342365488876456_);fill:#F7FA0D;}
</style>
<path class="st0" d="M0,17.6v14.6c0,3.1,2.5,5.7,5.7,5.7h153.9c3.1,0,5.7-2.5,5.7-5.7V17.6H0z"/>
<path class="st0" d="M0,8.4v23.8c0,3.1,2.5,5.7,5.7,5.7h153.9c3.1,0,5.7-2.5,5.7-5.7V8.4H0z"/>
<rect y="0" class="st1" width="165.3" height="37.8"/>
<g>
	<path class="st2" d="M29.1,11.7h4.1v1.4h-2.6v2.8h2v1.4h-2v4.3h-1.6V11.7z"/>
	<path class="st2" d="M34,11.7h2.3c1.6,0,2.3,0.8,2.3,2.3v0.6c0,1-0.3,1.7-1,2v0c0.8,0.2,1,1,1,2.1v1.7c0,0.5,0,0.8,0.2,1.2h-1.6
		c-0.1-0.3-0.1-0.4-0.1-1.2v-1.8c0-0.9-0.3-1.2-1-1.2h-0.5v4.3H34V11.7z M36.1,16c0.6,0,0.9-0.3,0.9-1v-0.8c0-0.7-0.2-1-0.8-1h-0.7
		V16H36.1z"/>
	<path class="st2" d="M39.7,11.7h4.3v1.4h-2.7v2.6h2.1v1.4h-2.1v3h2.7v1.4h-4.3V11.7z"/>
	<path class="st2" d="M44.8,11.7H49v1.4h-2.7v2.6h2.1v1.4h-2.1v3H49v1.4h-4.3V11.7z"/>
</g>
<g>
	<path class="st3" d="M51.8,19.3v-0.8h1.5v0.9c0,0.7,0.3,1,0.8,1s0.8-0.2,0.8-1.1v-0.8c0-0.9-0.3-1.3-1-1.3h-0.5v-1.4H54
		c0.6,0,0.9-0.3,0.9-1V14c0-0.7-0.3-1-0.8-1c-0.5,0-0.8,0.3-0.8,0.9v0.7h-1.5v-0.5c0-1.6,0.8-2.5,2.3-2.5c1.5,0,2.3,0.9,2.3,2.5v0.4
		c0,1.1-0.3,1.7-1.1,2v0c0.8,0.3,1.1,1,1.1,2v0.9c0,1.6-0.8,2.5-2.3,2.5C52.6,21.8,51.8,20.9,51.8,19.3z"/>
	<path class="st3" d="M57.3,19.3v-5.2c0-1.6,0.8-2.5,2.4-2.5s2.4,0.9,2.4,2.5v5.2c0,1.6-0.8,2.5-2.4,2.5S57.3,20.9,57.3,19.3z
		 M60.5,19.4V14c0-0.7-0.3-1-0.8-1s-0.8,0.3-0.8,1v5.4c0,0.7,0.3,1,0.8,1S60.5,20.1,60.5,19.4z"/>
	<path class="st3" d="M65.1,19.3v-0.6h1.5v0.7c0,0.7,0.3,1,0.8,1s0.8-0.3,0.8-1c0-0.8-0.3-1.3-1.4-2.2c-1.3-1.1-1.7-2-1.7-3.1
		c0-1.6,0.8-2.5,2.3-2.5c1.5,0,2.3,0.9,2.3,2.5v0.4h-1.5V14c0-0.7-0.3-1-0.8-1s-0.8,0.3-0.8,1c0,0.7,0.4,1.2,1.4,2.1
		c1.3,1.1,1.7,2,1.7,3.2c0,1.6-0.8,2.5-2.4,2.5C65.9,21.8,65.1,20.9,65.1,19.3z"/>
	<path class="st3" d="M70.6,11.7h4.3v1.4h-2.7v2.6h2.1v1.4h-2.1v3h2.7v1.4h-4.3V11.7z"/>
	<path class="st3" d="M75.6,19.4V14c0-1.5,0.8-2.4,2.3-2.4c1.5,0,2.3,0.9,2.3,2.4v1h-1.5v-1.1c0-0.7-0.3-0.9-0.8-0.9
		s-0.8,0.3-0.8,0.9v5.5c0,0.7,0.3,0.9,0.8,0.9s0.8-0.3,0.8-0.9V18h1.5v1.3c0,1.5-0.8,2.4-2.3,2.4C76.4,21.8,75.6,20.9,75.6,19.4z"/>
	<path class="st3" d="M81,19.3v-5.2c0-1.6,0.8-2.5,2.4-2.5c1.5,0,2.4,0.9,2.4,2.5v5.2c0,1.6-0.8,2.5-2.4,2.5
		C81.9,21.8,81,20.9,81,19.3z M84.2,19.4V14c0-0.7-0.3-1-0.8-1s-0.8,0.3-0.8,1v5.4c0,0.7,0.3,1,0.8,1S84.2,20.1,84.2,19.4z"/>
	<path class="st3" d="M86.8,11.7h1.9l1.6,5.9v-5.9h1.4v9.9h-1.6l-1.9-7.2v7.2h-1.4V11.7z"/>
	<path class="st3" d="M92.9,11.7h2.4c1.6,0,2.3,0.9,2.3,2.5v5c0,1.6-0.8,2.5-2.3,2.5h-2.4V11.7z M95.2,20.2c0.5,0,0.8-0.3,0.8-1
		v-5.2c0-0.7-0.3-1-0.8-1h-0.8v7.1H95.2z"/>
</g>
<g>
	<defs>
		<rect id="SVGID_1_" y="0" width="165.3" height="37.8"/>
	</defs>
	<clipPath id="SVGID_00000158717646212101575720000002218159690739819412_">
		<use xlink:href="#SVGID_1_"  style="overflow:visible;"/>
	</clipPath>
	<g style="clip-path:url(#SVGID_00000158717646212101575720000002218159690739819412_);">
		<path class="st2" d="M31,24.8h4.1v1.4h-2.6V29h2v1.4h-2v4.3H31V24.8z"/>
		<path class="st2" d="M35.8,24.8h1.6v9.9h-1.6V24.8z"/>
		<path class="st2" d="M38.6,24.8h1.9l1.6,5.9v-5.9h1.4v9.9h-1.6l-1.9-7.2v7.2h-1.4V24.8z"/>
		<path class="st2" d="M47.7,32.8h-1.8l-0.3,1.9h-1.4l1.6-9.9h2.1l1.6,9.9H48L47.7,32.8z M47.5,31.5l-0.7-5l-0.7,5H47.5z"/>
		<path class="st2" d="M50.3,24.8h1.9l1.6,5.9v-5.9h1.4v9.9h-1.6l-1.9-7.2v7.2h-1.4V24.8z"/>
		<path class="st2" d="M56.2,32.5v-5.3c0-1.5,0.8-2.4,2.3-2.4c1.5,0,2.3,0.9,2.3,2.4v1h-1.5V27c0-0.7-0.3-0.9-0.8-0.9
			s-0.8,0.3-0.8,0.9v5.5c0,0.7,0.3,0.9,0.8,0.9s0.8-0.3,0.8-0.9v-1.4h1.5v1.3c0,1.5-0.8,2.4-2.3,2.4C57,34.9,56.2,34,56.2,32.5z"/>
		<path class="st2" d="M61.7,24.8H66v1.4h-2.7v2.6h2.1v1.4h-2.1v3H66v1.4h-4.3V24.8z"/>
		<path class="st2" d="M69,32.5v-5.3c0-1.5,0.8-2.4,2.3-2.4c1.5,0,2.3,0.9,2.3,2.4v1h-1.5V27c0-0.7-0.3-0.9-0.8-0.9
			s-0.8,0.3-0.8,0.9v5.5c0,0.7,0.3,0.9,0.8,0.9s0.8-0.3,0.8-0.9v-1.4h1.5v1.3c0,1.5-0.8,2.4-2.3,2.4C69.7,34.9,69,34,69,32.5z"/>
		<path class="st2" d="M74.5,24.8H76v4h1.7v-4h1.6v9.9h-1.6v-4.5H76v4.5h-1.6V24.8z"/>
		<path class="st2" d="M80.4,24.8h4.3v1.4H82v2.6h2.1v1.4H82v3h2.7v1.4h-4.3V24.8z"/>
		<path class="st2" d="M85.4,32.5v-5.3c0-1.5,0.8-2.4,2.3-2.4c1.5,0,2.3,0.9,2.3,2.4v1h-1.5V27c0-0.7-0.3-0.9-0.8-0.9S87,26.4,87,27
			v5.5c0,0.7,0.3,0.9,0.8,0.9s0.8-0.3,0.8-0.9v-1.4H90v1.3c0,1.5-0.8,2.4-2.3,2.4C86.2,34.9,85.4,34,85.4,32.5z"/>
		<path class="st2" d="M93.1,30.4l-0.6,1.2v3.1h-1.6v-9.9h1.6v4.3l2-4.3H96l-1.9,3.6l1.9,6.3h-1.6L93.1,30.4z"/>
	</g>
	<path style="clip-path:url(#SVGID_00000158717646212101575720000002218159690739819412_);fill:#253C72;" d="M139,35.9
		c9.9,0,17.9-8,17.9-17.9S148.9,0,139,0S121,8,121,17.9S129.1,35.9,139,35.9"/>
	<path style="clip-path:url(#SVGID_00000158717646212101575720000002218159690739819412_);fill:#FFFFFF;" d="M139,5.2
		c7,0,12.7,5.7,12.7,12.7c0,7-5.7,12.7-12.7,12.7c-7,0-12.7-5.7-12.7-12.7C126.3,10.9,132,5.2,139,5.2"/>
	<path style="clip-path:url(#SVGID_00000158717646212101575720000002218159690739819412_);fill:#FFFFFF;" d="M139,5.7
		c-6.8,0-12.3,5.5-12.3,12.3c0,6.8,5.5,12.2,12.2,12.2c6.7,0,12.2-5.5,12.3-12.2C151.2,11.2,145.7,5.7,139,5.7"/>
	<path style="clip-path:url(#SVGID_00000158717646212101575720000002218159690739819412_);fill:#F7FA0D;" d="M138.8,0.6h0.8
		c0,1-0.1,2-0.1,3h-0.7V0.6z"/>
	<path style="clip-path:url(#SVGID_00000158717646212101575720000002218159690739819412_);fill:#F7FA0D;" d="M149.4,8.2
		c-0.1-0.1-0.2-0.2-0.3-0.3c0.7-0.7,1.4-1.4,2.2-2.1c0.1,0.1,0.2,0.2,0.4,0.4C150.9,6.8,150.2,7.5,149.4,8.2"/>
	<path style="clip-path:url(#SVGID_00000158717646212101575720000002218159690739819412_);fill:#F7FA0D;" d="M126.7,5.7
		c0.1-0.1,0.2-0.2,0.3-0.4c0.7,0.7,1.4,1.5,2.1,2.2c-0.1,0.1-0.2,0.2-0.4,0.3C128,7.2,127.3,6.4,126.7,5.7"/>
	<path style="clip-path:url(#SVGID_00000158717646212101575720000002218159690739819412_);fill:#F7FA0D;" d="M151.7,11.5
		c-0.1-0.1-0.1-0.3-0.2-0.4c0.9-0.5,1.8-1,2.7-1.5c0.1,0.2,0.2,0.3,0.3,0.5C153.6,10.6,152.7,11,151.7,11.5"/>
	<path style="clip-path:url(#SVGID_00000158717646212101575720000002218159690739819412_);fill:#F7FA0D;" d="M145.3,5.1
		c-0.2-0.1-0.3-0.1-0.4-0.2c0.4-0.9,0.8-1.9,1.3-2.8c0.2,0.1,0.3,0.2,0.5,0.3C146.3,3.3,145.8,4.2,145.3,5.1"/>
	<path style="clip-path:url(#SVGID_00000158717646212101575720000002218159690739819412_);fill:#F7FA0D;" d="M150.4,31
		c-0.2,0.1-0.3,0.2-0.5,0.4c-0.6-0.8-1.3-1.6-1.9-2.4c0.1-0.1,0.2-0.2,0.4-0.3C149,29.5,149.7,30.2,150.4,31"/>
	<path style="clip-path:url(#SVGID_00000158717646212101575720000002218159690739819412_);fill:#F7FA0D;" d="M129.3,28.5
		c0.1,0.1,0.2,0.2,0.4,0.3c-0.7,0.8-1.3,1.6-2,2.3c-0.2-0.1-0.3-0.3-0.4-0.4C127.9,30,128.6,29.2,129.3,28.5"/>
	<path style="clip-path:url(#SVGID_00000158717646212101575720000002218159690739819412_);fill:#F7FA0D;" d="M128.4,8.3
		c-0.1,0.1-0.2,0.2-0.3,0.4c-0.8-0.7-1.6-1.3-2.3-2c0.1-0.2,0.3-0.3,0.4-0.4C126.9,6.9,127.6,7.6,128.4,8.3"/>
	<path style="clip-path:url(#SVGID_00000158717646212101575720000002218159690739819412_);fill:#F7FA0D;" d="M148.4,3.3
		c0.2,0.1,0.3,0.2,0.5,0.3c-0.6,0.8-1.2,1.7-1.8,2.5c-0.1-0.1-0.3-0.2-0.4-0.3C147.3,5,147.8,4.2,148.4,3.3"/>
	<path style="clip-path:url(#SVGID_00000158717646212101575720000002218159690739819412_);fill:#F7FA0D;" d="M128.6,31.9
		c-0.2-0.1-0.3-0.2-0.5-0.4c0.6-0.8,1.3-1.6,1.9-2.4c0.1,0.1,0.2,0.2,0.4,0.3C129.9,30.3,129.3,31.1,128.6,31.9"/>
	<path style="clip-path:url(#SVGID_00000158717646212101575720000002218159690739819412_);fill:#F7FA0D;" d="M126.7,30.2
		c-0.1-0.1-0.2-0.2-0.4-0.3c0.8-0.7,1.5-1.4,2.2-2.1c0.1,0.1,0.2,0.2,0.4,0.4C128.2,28.8,127.5,29.5,126.7,30.2"/>
	<path style="clip-path:url(#SVGID_00000158717646212101575720000002218159690739819412_);fill:#F7FA0D;" d="M149.8,27.3
		c0.8,0.7,1.5,1.3,2.3,2c-0.1,0.2-0.3,0.3-0.4,0.4c-0.8-0.7-1.5-1.4-2.3-2.1C149.6,27.5,149.7,27.4,149.8,27.3"/>
	<path style="clip-path:url(#SVGID_00000158717646212101575720000002218159690739819412_);fill:#F7FA0D;" d="M147.3,2.7
		c0.2,0.1,0.3,0.2,0.5,0.3c-0.5,0.9-1,1.8-1.6,2.6c-0.1-0.1-0.3-0.2-0.4-0.2C146.3,4.5,146.8,3.6,147.3,2.7"/>
	<path style="clip-path:url(#SVGID_00000158717646212101575720000002218159690739819412_);fill:#F7FA0D;" d="M127.7,9.1
		c-0.1,0.1-0.2,0.3-0.3,0.4c-0.8-0.6-1.6-1.2-2.5-1.8c0.1-0.2,0.2-0.3,0.4-0.5C126.1,7.8,126.9,8.4,127.7,9.1"/>
	<path style="clip-path:url(#SVGID_00000158717646212101575720000002218159690739819412_);fill:#F7FA0D;" d="M146.3,30.2
		c0.1-0.1,0.3-0.2,0.4-0.3c0.6,0.9,1.1,1.7,1.7,2.6c-0.2,0.1-0.3,0.2-0.5,0.3C147.4,31.9,146.9,31.1,146.3,30.2"/>
	<path style="clip-path:url(#SVGID_00000158717646212101575720000002218159690739819412_);fill:#F7FA0D;" d="M131.8,30.3
		c0.2,0.1,0.3,0.2,0.4,0.2c-0.5,0.9-1,1.8-1.5,2.7c-0.2-0.1-0.3-0.2-0.5-0.3C130.7,32,131.3,31.2,131.8,30.3"/>
	<path style="clip-path:url(#SVGID_00000158717646212101575720000002218159690739819412_);fill:#F7FA0D;" d="M150.8,26
		c0.1-0.1,0.2-0.3,0.3-0.4c0.9,0.6,1.7,1.1,2.6,1.7c-0.1,0.2-0.2,0.3-0.3,0.5C152.4,27.2,151.6,26.6,150.8,26"/>
	<path style="clip-path:url(#SVGID_00000158717646212101575720000002218159690739819412_);fill:#F7FA0D;" d="M154.8,25.1
		c-0.1,0.2-0.2,0.4-0.3,0.5c-0.9-0.5-1.8-0.9-2.8-1.4c0.1-0.2,0.1-0.3,0.2-0.4C152.9,24.3,153.8,24.7,154.8,25.1"/>
	<path style="clip-path:url(#SVGID_00000158717646212101575720000002218159690739819412_);fill:#F7FA0D;" d="M152.5,7
		c-0.8,0.6-1.6,1.3-2.4,1.9c-0.1-0.1-0.2-0.2-0.3-0.4c0.8-0.7,1.5-1.3,2.3-2C152.2,6.7,152.3,6.8,152.5,7"/>
	<path style="clip-path:url(#SVGID_00000158717646212101575720000002218159690739819412_);fill:#F7FA0D;" d="M154.2,26.2
		c-0.1,0.2-0.2,0.3-0.3,0.5c-0.9-0.5-1.8-1-2.6-1.6c0.1-0.1,0.1-0.3,0.2-0.4C152.4,25.2,153.3,25.7,154.2,26.2"/>
	<path style="clip-path:url(#SVGID_00000158717646212101575720000002218159690739819412_);fill:#F7FA0D;" d="M125.9,29.4
		c-0.1-0.2-0.2-0.3-0.4-0.5c0.8-0.6,1.6-1.3,2.4-1.9c0.1,0.1,0.2,0.2,0.3,0.4C127.5,28,126.7,28.7,125.9,29.4"/>
	<path style="clip-path:url(#SVGID_00000158717646212101575720000002218159690739819412_);fill:#F7FA0D;" d="M129.9,6.9
		c-0.1,0.1-0.2,0.2-0.4,0.3c-0.7-0.8-1.3-1.5-2-2.3c0.1-0.1,0.3-0.2,0.5-0.4C128.6,5.3,129.2,6.1,129.9,6.9"/>
	<path style="clip-path:url(#SVGID_00000158717646212101575720000002218159690739819412_);fill:#F7FA0D;" d="M130.9,29.7
		c0.1,0.1,0.3,0.2,0.4,0.3c-0.6,0.9-1.1,1.7-1.6,2.6c-0.2-0.1-0.3-0.2-0.5-0.3C129.7,31.4,130.3,30.6,130.9,29.7"/>
	<path style="clip-path:url(#SVGID_00000158717646212101575720000002218159690739819412_);fill:#F7FA0D;" d="M150.7,9.7
		c-0.1-0.1-0.2-0.2-0.3-0.4c0.8-0.6,1.6-1.2,2.5-1.8c0.1,0.2,0.2,0.3,0.4,0.5C152.4,8.6,151.5,9.2,150.7,9.7"/>
	<path style="clip-path:url(#SVGID_00000158717646212101575720000002218159690739819412_);fill:#F7FA0D;" d="M122.6,12
		c0.1-0.2,0.1-0.4,0.2-0.6c0.9,0.4,1.9,0.8,2.8,1.1c-0.1,0.2-0.1,0.3-0.2,0.5C124.5,12.7,123.6,12.4,122.6,12"/>
	<path style="clip-path:url(#SVGID_00000158717646212101575720000002218159690739819412_);fill:#F7FA0D;" d="M155.2,11.8
		c0.1,0.2,0.1,0.4,0.2,0.6c-0.4,0.1-0.9,0.3-1.3,0.4c-0.5,0.2-0.9,0.3-1.4,0.5c-0.2,0.1-0.3,0-0.3-0.2c0-0.1,0-0.1-0.1-0.2
		C153.3,12.5,154.3,12.2,155.2,11.8"/>
	<path style="clip-path:url(#SVGID_00000158717646212101575720000002218159690739819412_);fill:#F7FA0D;" d="M150.1,26.8
		c0.1-0.1,0.2-0.3,0.3-0.4c0.8,0.6,1.6,1.2,2.5,1.8c-0.1,0.2-0.2,0.3-0.4,0.5C151.7,28.1,151,27.5,150.1,26.8"/>
	<path style="clip-path:url(#SVGID_00000158717646212101575720000002218159690739819412_);fill:#F7FA0D;" d="M153.9,9
		c-0.9,0.5-1.8,1-2.6,1.6c-0.1-0.1-0.2-0.3-0.3-0.4c0.9-0.6,1.7-1.1,2.6-1.7C153.7,8.7,153.8,8.8,153.9,9"/>
	<path style="clip-path:url(#SVGID_00000158717646212101575720000002218159690739819412_);fill:#F7FA0D;" d="M144.4,1.4
		c-0.3,1-0.6,1.9-1,2.9c-0.2,0-0.3-0.1-0.5-0.1c0.3-1,0.6-2,0.9-3C144.1,1.3,144.2,1.4,144.4,1.4"/>
	<path style="clip-path:url(#SVGID_00000158717646212101575720000002218159690739819412_);fill:#F7FA0D;" d="M150.3,4.8
		c0.2,0.1,0.3,0.3,0.4,0.4c-0.7,0.8-1.4,1.5-2.1,2.2c-0.1-0.1-0.2-0.2-0.4-0.3C149,6.3,149.7,5.6,150.3,4.8"/>
	<path style="clip-path:url(#SVGID_00000158717646212101575720000002218159690739819412_);fill:#F7FA0D;" d="M131.8,33.8
		c-0.2-0.1-0.4-0.2-0.5-0.3c0.5-0.9,0.9-1.8,1.4-2.8c0.1,0.1,0.3,0.1,0.4,0.2C132.7,31.9,132.3,32.8,131.8,33.8"/>
	<path style="clip-path:url(#SVGID_00000158717646212101575720000002218159690739819412_);fill:#F7FA0D;" d="M155.3,23.9
		c-0.1,0.2-0.1,0.4-0.2,0.6c-1-0.4-1.9-0.8-2.8-1.2c0.1-0.2,0.1-0.3,0.2-0.4C153.4,23.2,154.3,23.6,155.3,23.9"/>
	<path style="clip-path:url(#SVGID_00000158717646212101575720000002218159690739819412_);fill:#F7FA0D;" d="M128.4,4.1
		c0.2-0.1,0.3-0.2,0.5-0.4c0.6,0.8,1.2,1.7,1.8,2.5c-0.1,0.1-0.2,0.2-0.4,0.3C129.7,5.7,129,4.9,128.4,4.1"/>
	<path style="clip-path:url(#SVGID_00000158717646212101575720000002218159690739819412_);fill:#F7FA0D;" d="M129.4,3.4
		c0.2-0.1,0.3-0.2,0.5-0.3c0.5,0.9,1.1,1.7,1.6,2.6c-0.1,0.1-0.3,0.2-0.4,0.3C130.5,5.1,130,4.3,129.4,3.4"/>
	<path style="clip-path:url(#SVGID_00000158717646212101575720000002218159690739819412_);fill:#F7FA0D;" d="M127.3,26.2
		c0.1,0.1,0.2,0.3,0.3,0.4c-0.8,0.6-1.6,1.2-2.4,1.9c-0.1-0.2-0.2-0.3-0.4-0.5C125.6,27.4,126.4,26.8,127.3,26.2"/>
	<path style="clip-path:url(#SVGID_00000158717646212101575720000002218159690739819412_);fill:#F7FA0D;" d="M127.1,9.9
		c-0.1,0.1-0.2,0.3-0.3,0.4c-0.9-0.5-1.7-1.1-2.6-1.6c0.1-0.2,0.2-0.3,0.3-0.5C125.4,8.8,126.3,9.3,127.1,9.9"/>
	<path style="clip-path:url(#SVGID_00000158717646212101575720000002218159690739819412_);fill:#F7FA0D;" d="M147.2,29.6
		c0.1-0.1,0.3-0.2,0.4-0.3c0.6,0.8,1.2,1.6,1.9,2.4c-0.2,0.1-0.3,0.2-0.5,0.4C148.4,31.3,147.8,30.5,147.2,29.6"/>
	<path style="clip-path:url(#SVGID_00000158717646212101575720000002218159690739819412_);fill:#F7FA0D;" d="M147.9,6.8
		c-0.1-0.1-0.3-0.2-0.4-0.3c0.6-0.8,1.2-1.6,1.8-2.5c0.2,0.1,0.3,0.2,0.5,0.4C149.2,5.2,148.6,6,147.9,6.8"/>
	<path style="clip-path:url(#SVGID_00000158717646212101575720000002218159690739819412_);fill:#F7FA0D;" d="M126.3,11.2
		c-0.9-0.5-1.8-1-2.7-1.4c0.1-0.2,0.2-0.3,0.3-0.5c0.9,0.5,1.8,1,2.7,1.5C126.5,10.9,126.4,11,126.3,11.2"/>
	<path style="clip-path:url(#SVGID_00000158717646212101575720000002218159690739819412_);fill:#F7FA0D;" d="M147.4,33.1
		c-0.2,0.1-0.3,0.2-0.5,0.3c-0.5-0.9-0.9-1.8-1.4-2.7c0.1-0.1,0.3-0.1,0.4-0.2C146.4,31.4,146.9,32.2,147.4,33.1"/>
	<path style="clip-path:url(#SVGID_00000158717646212101575720000002218159690739819412_);fill:#F7FA0D;" d="M133,34.2
		c-0.2-0.1-0.4-0.1-0.5-0.2c0.4-0.9,0.8-1.9,1.1-2.8c0,0,0.1,0,0.1,0c0.4,0.1,0.4,0.1,0.3,0.5c-0.3,0.8-0.6,1.5-0.8,2.3
		C133.1,34.1,133,34.2,133,34.2"/>
	<path style="clip-path:url(#SVGID_00000158717646212101575720000002218159690739819412_);fill:#F7FA0D;" d="M123.1,10.9
		c0.1-0.2,0.2-0.4,0.3-0.5c0.9,0.5,1.8,0.9,2.8,1.3c-0.1,0.2-0.1,0.3-0.2,0.4C125,11.7,124,11.3,123.1,10.9"/>
	<path style="clip-path:url(#SVGID_00000158717646212101575720000002218159690739819412_);fill:#F7FA0D;" d="M126.7,25.3
		c0.1,0.1,0.2,0.3,0.3,0.4c-0.9,0.6-1.7,1.1-2.6,1.7c-0.1-0.2-0.2-0.3-0.3-0.5C125,26.4,125.8,25.9,126.7,25.3"/>
	<path style="clip-path:url(#SVGID_00000158717646212101575720000002218159690739819412_);fill:#F7FA0D;" d="M145,1.6
		c0.2,0.1,0.4,0.1,0.6,0.2c-0.4,1-0.8,1.9-1.2,2.8c-0.2-0.1-0.3-0.1-0.5-0.2C144.3,3.6,144.7,2.6,145,1.6"/>
	<path style="clip-path:url(#SVGID_00000158717646212101575720000002218159690739819412_);fill:#F7FA0D;" d="M133.8,4.6
		c-0.4-1-0.7-1.9-1.1-2.8c0,0,0,0,0.1,0c0.5-0.2,0.5-0.2,0.7,0.3c0.2,0.7,0.5,1.4,0.7,2.2c0.1,0.3,0.1,0.3-0.2,0.4
		C133.9,4.5,133.9,4.6,133.8,4.6"/>
	<path style="clip-path:url(#SVGID_00000158717646212101575720000002218159690739819412_);fill:#F7FA0D;" d="M148.8,28.3
		c0.1-0.1,0.2-0.2,0.3-0.3c0.7,0.7,1.4,1.5,2.1,2.2c-0.1,0.1-0.2,0.2-0.4,0.3C150.2,29.8,149.5,29.1,148.8,28.3"/>
	<path style="clip-path:url(#SVGID_00000158717646212101575720000002218159690739819412_);fill:#F7FA0D;" d="M141.5,3.8
		c-0.2,0-0.3,0-0.5-0.1c0.1-0.4,0.1-0.7,0.1-1.1c0.1-0.6,0.2-1.2,0.3-1.8c0-0.1,0.1-0.2,0.2-0.2c0.1,0,0.3,0,0.4,0.1
		C141.8,1.8,141.7,2.8,141.5,3.8"/>
	<path style="clip-path:url(#SVGID_00000158717646212101575720000002218159690739819412_);fill:#F7FA0D;" d="M143.6,31.5
		c0.2-0.1,0.3-0.1,0.5-0.2c0.4,1,0.7,1.9,1.1,2.9c-0.2,0.1-0.4,0.1-0.6,0.2C144.2,33.4,143.9,32.5,143.6,31.5"/>
	<path style="clip-path:url(#SVGID_00000158717646212101575720000002218159690739819412_);fill:#F7FA0D;" d="M125.4,22.6
		c0.2,0.4,0.2,0.4-0.2,0.6c-0.8,0.3-1.5,0.6-2.3,0.9c-0.1,0-0.2,0-0.2,0.1c-0.1-0.2-0.1-0.4-0.2-0.5
		C123.5,23.2,124.5,22.9,125.4,22.6"/>
	<path style="clip-path:url(#SVGID_00000158717646212101575720000002218159690739819412_);fill:#F7FA0D;" d="M124.8,19.6
		c0,0.2,0,0.3,0.1,0.5c-1,0.2-2,0.3-3,0.5c-0.2-0.6-0.1-0.6,0.4-0.6c0.8-0.1,1.5-0.2,2.3-0.3C124.6,19.6,124.7,19.6,124.8,19.6"/>
	<path style="clip-path:url(#SVGID_00000158717646212101575720000002218159690739819412_);fill:#F7FA0D;" d="M152.8,21.4
		c0-0.2,0.1-0.3,0.1-0.5c0.3,0.1,0.6,0.1,0.9,0.2c0.6,0.1,1.2,0.3,1.9,0.4c0.2,0,0.2,0.1,0.2,0.3c0,0.1-0.1,0.2-0.1,0.4
		C154.8,21.9,153.8,21.7,152.8,21.4"/>
	<path style="clip-path:url(#SVGID_00000158717646212101575720000002218159690739819412_);fill:#F7FA0D;" d="M123.8,26.4
		c-0.1-0.2-0.2-0.3-0.3-0.5c0.9-0.5,1.8-0.9,2.7-1.4c0.1,0.1,0.1,0.3,0.2,0.4C125.6,25.4,124.7,25.9,123.8,26.4"/>
	<path style="clip-path:url(#SVGID_00000158717646212101575720000002218159690739819412_);fill:#F7FA0D;" d="M146.3,33.7
		c-0.2,0.1-0.4,0.2-0.5,0.2c-0.4-0.9-0.8-1.9-1.2-2.8c0.1-0.1,0.3-0.1,0.4-0.2C145.4,31.8,145.8,32.8,146.3,33.7"/>
	<path style="clip-path:url(#SVGID_00000158717646212101575720000002218159690739819412_);fill:#F7FA0D;" d="M132.4,5.2
		c-0.1,0.1-0.3,0.2-0.4,0.2c-0.5-0.9-1-1.8-1.5-2.7c0.2-0.1,0.3-0.2,0.5-0.3C131.5,3.4,131.9,4.3,132.4,5.2"/>
	<path style="clip-path:url(#SVGID_00000158717646212101575720000002218159690739819412_);fill:#F7FA0D;" d="M155,11.2
		c-1,0.4-1.9,0.8-2.8,1.2c-0.1-0.1-0.1-0.3-0.2-0.4c0.9-0.4,1.9-0.9,2.8-1.3C154.8,10.9,154.9,11,155,11.2"/>
	<path style="clip-path:url(#SVGID_00000158717646212101575720000002218159690739819412_);fill:#F7FA0D;" d="M137.8,35.3
		c-0.2,0-0.4,0-0.6,0c0.1-1,0.2-2,0.3-3.1c0.2,0,0.3,0,0.5,0.1C138,33.2,137.9,34.2,137.8,35.3"/>
	<path style="clip-path:url(#SVGID_00000158717646212101575720000002218159690739819412_);fill:#F7FA0D;" d="M153,15.3
		c0-0.2-0.1-0.3-0.1-0.5c1-0.2,2-0.4,3-0.7c0,0.2,0.1,0.4,0.1,0.6C155,15,154.1,15.1,153,15.3"/>
	<path style="clip-path:url(#SVGID_00000158717646212101575720000002218159690739819412_);fill:#F7FA0D;" d="M122.1,13.8
		c0.6,0.2,1.2,0.3,1.9,0.5c0.3,0.1,0.6,0.2,1,0.2c0.1,0,0.2,0.1,0.1,0.2c0,0.1,0,0.3-0.2,0.3c-0.9-0.2-1.9-0.4-2.9-0.6
		C122,14.2,122,14,122.1,13.8"/>
	<path style="clip-path:url(#SVGID_00000158717646212101575720000002218159690739819412_);fill:#F7FA0D;" d="M122.4,12.6
		c1,0.3,1.9,0.6,2.9,0.9c0,0.2-0.1,0.3-0.1,0.5c-1-0.3-2-0.6-3-0.8C122.3,13,122.4,12.8,122.4,12.6"/>
	<path style="clip-path:url(#SVGID_00000158717646212101575720000002218159690739819412_);fill:#F7FA0D;" d="M131.6,2.2
		c0.2-0.1,0.3-0.2,0.5-0.2c0.4,0.9,0.8,1.9,1.2,2.8c-0.1,0.1-0.3,0.1-0.4,0.2C132.4,4.1,132,3.1,131.6,2.2"/>
	<path style="clip-path:url(#SVGID_00000158717646212101575720000002218159690739819412_);fill:#F7FA0D;" d="M136.2,3.9
		C136.2,3.9,136.2,3.9,136.2,3.9c-0.5,0.2-0.5,0.2-0.6-0.3c-0.2-0.8-0.4-1.6-0.6-2.4c0-0.1,0-0.1,0-0.2c0.2,0,0.4-0.1,0.6-0.1
		C135.8,1.9,136,2.9,136.2,3.9"/>
	<path style="clip-path:url(#SVGID_00000158717646212101575720000002218159690739819412_);fill:#F7FA0D;" d="M156.3,19.1
		c0,0.2,0,0.4-0.1,0.6c-1-0.1-2-0.2-3.1-0.3c0-0.2,0-0.3,0-0.5C154.3,19,155.3,19,156.3,19.1"/>
	<path style="clip-path:url(#SVGID_00000158717646212101575720000002218159690739819412_);fill:#F7FA0D;" d="M153.1,19.9
		c1,0.1,2,0.3,3,0.4c0,0.2,0,0.4-0.1,0.6c-1-0.2-2-0.4-3-0.5C153.1,20.2,153.1,20.1,153.1,19.9"/>
	<path style="clip-path:url(#SVGID_00000158717646212101575720000002218159690739819412_);fill:#F7FA0D;" d="M122,21.7
		c0-0.2-0.1-0.3-0.1-0.5c1-0.2,2-0.4,3-0.6c0,0.1,0.1,0.2,0.1,0.4c0,0-0.1,0.1-0.1,0.1C124,21.3,123,21.5,122,21.7
		C122.1,21.7,122.1,21.7,122,21.7"/>
	<path style="clip-path:url(#SVGID_00000158717646212101575720000002218159690739819412_);fill:#F7FA0D;" d="M155.7,22.8
		c-0.1,0.2-0.1,0.4-0.2,0.6c-1-0.3-1.9-0.6-2.9-1c0,0,0-0.1,0-0.1c0.1-0.4,0.1-0.4,0.5-0.3C153.9,22.3,154.8,22.5,155.7,22.8"/>
	<path style="clip-path:url(#SVGID_00000158717646212101575720000002218159690739819412_);fill:#F7FA0D;" d="M156.3,17.2
		c-1,0-2,0.1-3.1,0.1v-0.5c1-0.1,2-0.1,3-0.2C156.3,16.8,156.3,17,156.3,17.2"/>
	<path style="clip-path:url(#SVGID_00000158717646212101575720000002218159690739819412_);fill:#F7FA0D;" d="M152.7,13.9
		c1-0.3,2-0.6,2.9-0.9c0.1,0.2,0.1,0.4,0.2,0.6c-1,0.3-2,0.5-3,0.8C152.8,14.2,152.7,14,152.7,13.9"/>
	<path style="clip-path:url(#SVGID_00000158717646212101575720000002218159690739819412_);fill:#F7FA0D;" d="M134.5,1.2
		c0.3,1,0.5,2,0.8,3c-0.2,0-0.3,0.1-0.5,0.1c-0.1-0.4-0.2-0.7-0.3-1c-0.2-0.6-0.3-1.1-0.5-1.7c0-0.1,0-0.2,0.1-0.3
		C134.2,1.2,134.3,1.2,134.5,1.2"/>
	<path style="clip-path:url(#SVGID_00000158717646212101575720000002218159690739819412_);fill:#F7FA0D;" d="M142.5,4.1
		c-0.1,0-0.3-0.1-0.5-0.1c0.2-1,0.4-2,0.6-3c0,0,0.1,0,0.1,0c0.5,0.1,0.5,0.1,0.4,0.6c-0.2,0.8-0.4,1.6-0.6,2.4
		C142.5,4,142.5,4,142.5,4.1"/>
	<path style="clip-path:url(#SVGID_00000158717646212101575720000002218159690739819412_);fill:#F7FA0D;" d="M136.3,0.8
		C136.3,0.8,136.3,0.8,136.3,0.8c0.6-0.1,0.6-0.1,0.6,0.4c0.1,0.8,0.2,1.6,0.3,2.4c0,0.1,0,0.1,0,0.2c-0.1,0-0.3,0-0.5,0.1
		C136.6,2.8,136.5,1.8,136.3,0.8"/>
	<path style="clip-path:url(#SVGID_00000158717646212101575720000002218159690739819412_);fill:#F7FA0D;" d="M122.3,23
		c-0.1-0.2-0.1-0.4-0.2-0.6c0.5-0.1,1.1-0.3,1.6-0.4c0.4-0.1,0.8-0.2,1.1-0.3c0.2-0.1,0.3,0,0.3,0.2c0,0.1,0,0.1,0.1,0.2
		C124.3,22.4,123.3,22.7,122.3,23"/>
	<path style="clip-path:url(#SVGID_00000158717646212101575720000002218159690739819412_);fill:#F7FA0D;" d="M134.6,31.5
		c0.2,0.1,0.3,0.1,0.5,0.1c-0.3,1-0.6,2-0.8,2.9c-0.2-0.1-0.4-0.1-0.6-0.2C133.9,33.5,134.2,32.5,134.6,31.5"/>
	<path style="clip-path:url(#SVGID_00000158717646212101575720000002218159690739819412_);fill:#F7FA0D;" d="M140.6,32.1
		c0.2,0,0.3,0,0.5-0.1c0.2,1,0.3,2,0.5,3c-0.2,0-0.4,0-0.6,0.1C140.8,34.2,140.7,33.2,140.6,32.1"/>
	<path style="clip-path:url(#SVGID_00000158717646212101575720000002218159690739819412_);fill:#F7FA0D;" d="M125.8,23.5
		c0,0.1,0.1,0.1,0.1,0.2c0,0.1,0.1,0.2,0.1,0.3c-0.9,0.4-1.8,0.9-2.8,1.3c-0.1-0.2-0.2-0.3-0.2-0.5
		C123.9,24.3,124.8,23.9,125.8,23.5"/>
	<path style="clip-path:url(#SVGID_00000158717646212101575720000002218159690739819412_);fill:#F7FA0D;" d="M153.1,15.9
		c1-0.1,2-0.3,3-0.4c0,0.2,0.1,0.4,0.1,0.6c-0.5,0.1-1.1,0.1-1.6,0.2c-0.4,0-0.8,0.1-1.2,0.1c-0.3,0-0.3,0-0.3-0.3
		C153.1,16,153.1,15.9,153.1,15.9"/>
	<path style="clip-path:url(#SVGID_00000158717646212101575720000002218159690739819412_);fill:#F7FA0D;" d="M121.7,15.6
		c0-0.2,0.1-0.4,0.1-0.6c1,0.2,2,0.3,3,0.5c0,0,0,0,0,0.1c-0.1,0.4-0.1,0.4-0.5,0.4c-0.8-0.1-1.6-0.2-2.5-0.3
		C121.9,15.6,121.8,15.6,121.7,15.6"/>
	<path style="clip-path:url(#SVGID_00000158717646212101575720000002218159690739819412_);fill:#F7FA0D;" d="M140,3.6
		c0.1-1,0.1-2,0.2-3.1c0.2,0,0.4,0,0.6,0c0,0.1,0,0.1,0,0.2c-0.1,0.9-0.2,1.8-0.3,2.7c0,0.1-0.1,0.2-0.2,0.2
		C140.2,3.7,140.1,3.7,140,3.6"/>
	<path style="clip-path:url(#SVGID_00000158717646212101575720000002218159690739819412_);fill:#F7FA0D;" d="M137,32.1
		c-0.1,1-0.3,2-0.4,3c-0.2,0-0.4,0-0.6-0.1c0.2-1,0.3-2,0.5-3C136.7,32,136.8,32.1,137,32.1"/>
	<path style="clip-path:url(#SVGID_00000158717646212101575720000002218159690739819412_);fill:#F7FA0D;" d="M139.6,32.2h0.5
		c0.1,1,0.2,2,0.2,3c-0.2,0-0.4,0-0.6,0.1C139.7,34.3,139.6,33.3,139.6,32.2"/>
	<path style="clip-path:url(#SVGID_00000158717646212101575720000002218159690739819412_);fill:#F7FA0D;" d="M124.7,16.6
		c0,0.2,0,0.3-0.1,0.5c-1-0.1-2-0.1-3-0.2c0-0.2,0-0.4,0-0.6C122.7,16.4,123.7,16.5,124.7,16.6"/>
	<path style="clip-path:url(#SVGID_00000158717646212101575720000002218159690739819412_);fill:#F7FA0D;" d="M143.9,34.5
		C143.9,34.6,143.9,34.6,143.9,34.5c-0.6,0.2-0.6,0.2-0.7-0.3c-0.2-0.7-0.4-1.5-0.6-2.2c-0.1-0.3-0.1-0.3,0.2-0.4c0.1,0,0.1,0,0.2,0
		C143.4,32.6,143.6,33.6,143.9,34.5"/>
	<path style="clip-path:url(#SVGID_00000158717646212101575720000002218159690739819412_);fill:#F7FA0D;" d="M136,31.9
		c-0.2,1-0.4,2-0.6,3c-0.2,0-0.4-0.1-0.6-0.1c0.2-1,0.5-2,0.7-3C135.7,31.9,135.8,31.9,136,31.9"/>
	<path style="clip-path:url(#SVGID_00000158717646212101575720000002218159690739819412_);fill:#F7FA0D;" d="M141.6,32
		c0.2,0,0.3-0.1,0.5-0.1c0.2,1,0.4,2,0.7,3c0,0,0,0,0,0c-0.5,0.2-0.5,0.2-0.6-0.3C141.9,33.7,141.8,32.9,141.6,32"/>
	<path style="clip-path:url(#SVGID_00000158717646212101575720000002218159690739819412_);fill:#F7FA0D;" d="M137.5,0.6
		c0.2,0,0.4,0,0.6,0c0.1,1,0.1,2,0.1,3.1c-0.2,0-0.3,0-0.5,0C137.7,2.6,137.6,1.6,137.5,0.6"/>
	<path style="clip-path:url(#SVGID_00000158717646212101575720000002218159690739819412_);fill:#F7FA0D;" d="M124.7,18.6v0.5
		c-1,0.1-2,0.2-3,0.2c0-0.2,0-0.4,0-0.6C122.6,18.7,123.6,18.6,124.7,18.6"/>
	<path style="clip-path:url(#SVGID_00000158717646212101575720000002218159690739819412_);fill:#F7FA0D;" d="M156.3,17.9v0.5
		c-0.3,0-0.7,0-1,0c-0.5,0-1.1,0-1.6-0.1c-0.4,0-0.4,0-0.4-0.5H156.3z"/>
	<path style="clip-path:url(#SVGID_00000158717646212101575720000002218159690739819412_);fill:#F7FA0D;" d="M139,35.3h-0.5
		c0-0.3,0-0.6,0-0.9c0-0.6,0-1.2,0.1-1.8c0-0.3,0-0.3,0.3-0.3c0,0,0.1,0,0.1,0V35.3z"/>
	<path style="clip-path:url(#SVGID_00000158717646212101575720000002218159690739819412_);fill:#F7FA0D;" d="M121.6,18.1v-0.6
		c0.1,0,0.2,0,0.3,0c0.8,0,1.7,0,2.5,0.1c0.3,0,0.3,0,0.3,0.3c0,0,0,0.1,0,0.2H121.6z"/>
</g>
<g>
	<path class="st0" d="M130.8,15.6v-3.7c0-1.1,0.6-1.7,1.6-1.7c1.1,0,1.6,0.6,1.6,1.7v0.7h-1v-0.8c0-0.5-0.2-0.6-0.5-0.6
		c-0.3,0-0.5,0.2-0.5,0.6v3.9c0,0.5,0.2,0.6,0.5,0.6c0.3,0,0.5-0.2,0.5-0.6v-1h1v0.9c0,1.1-0.6,1.7-1.6,1.7
		C131.3,17.4,130.8,16.7,130.8,15.6z"/>
	<path class="st0" d="M134.6,10.3h1.1v6h1.8v1h-2.9V10.3z"/>
	<path class="st0" d="M138.1,10.3h1.1v7h-1.1V10.3z"/>
	<path class="st0" d="M139.9,15.6v-3.7c0-1.1,0.6-1.7,1.6-1.7c1.1,0,1.6,0.6,1.6,1.7v0.7h-1v-0.8c0-0.5-0.2-0.6-0.5-0.6
		s-0.5,0.2-0.5,0.6v3.9c0,0.5,0.2,0.6,0.5,0.6s0.5-0.2,0.5-0.6v-1h1v0.9c0,1.1-0.6,1.7-1.6,1.7C140.5,17.4,139.9,16.7,139.9,15.6z"
		/>
	<path class="st0" d="M145.3,14.2l-0.4,0.9v2.2h-1.1v-7h1.1v3l1.4-3h1.1l-1.3,2.6l1.3,4.4h-1.1L145.3,14.2z"/>
</g>
<g>
	<path class="st0" d="M131.7,18.9h1.1v2.8h1.2v-2.8h1.1v7H134v-3.1h-1.2v3.1h-1.1V18.9z"/>
	<path class="st0" d="M135.9,18.9h3v1H137v1.8h1.5v1H137v2.1h1.9v1h-3V18.9z"/>
	<path class="st0" d="M139.5,18.9h1.6c1.1,0,1.6,0.5,1.6,1.6V21c0,0.7-0.2,1.2-0.7,1.4v0c0.5,0.2,0.7,0.7,0.7,1.5V25
		c0,0.3,0,0.6,0.1,0.8h-1.1c-0.1-0.2-0.1-0.3-0.1-0.9v-1.3c0-0.6-0.2-0.9-0.7-0.9h-0.4v3h-1.1V18.9z M141,21.9
		c0.4,0,0.7-0.2,0.7-0.7v-0.5c0-0.5-0.2-0.7-0.6-0.7h-0.5v2H141z"/>
	<path class="st0" d="M143.5,18.9h3v1h-1.9v1.8h1.5v1h-1.5v2.1h1.9v1h-3V18.9z"/>
</g>
<rect class="st1" width="165.3" height="37.8"/>
</svg>
