<?xml version="1.0" encoding="utf-8"?>
<!-- Generator: Adobe Illustrator 27.0.1, SVG Export Plug-In . SVG Version: 6.00 Build 0)  -->
<svg version="1.1" id="Layer_1" xmlns="http://www.w3.org/2000/svg" xmlns:xlink="http://www.w3.org/1999/xlink" x="0px" y="0px"
	 viewBox="0 0 334 339.6" style="enable-background:new 0 0 334 339.6;" xml:space="preserve">
<style type="text/css">
	.st0{clip-path:url(#SVGID_00000150066189468792513860000002707909893461208712_);fill:#FFFFFF;}
	.st1{clip-path:url(#SVGID_00000070081760144356170290000007232084413424224170_);fill:#FFFFFF;}
	.st2{fill:#FFFFFF;}
</style>
<g>
	<defs>
		<path id="SVGID_1_" d="M35.9,78.3c-3,1.7-5.2,4.4-6.1,7.7c0,0,0,0,0,0l-19.4,62.8c-0.8,2.4-1.2,5-1.2,7.5L7.8,204
			c-0.2,8.5,2,16.8,6.5,24l33.5,54.2c2.9,4.7,8.5,7,13.9,5.8l14-3.3c7.3-1.7,13.5-6.2,17.5-12.6c4-6.4,5.2-13.9,3.5-21.2l-7.9-33.5
			c-1-4.4-3.1-8.5-6-11.9l-30.4-35.4c-4.8-6.4-11.9-7.7-18.1-3.3c-5.8,4.1-7.2,12.1-3.1,18l31.4,39.8c0.8,1,0.6,2.5-0.4,3.3
			c-1,0.8-2.5,0.6-3.3-0.4l-31.5-39.9c-5.7-8-3.7-19,4.2-24.6c2.8-2,5.9-3,8.9-3.3l14.2-66.5l0,0c0,0,0,0,0,0
			c1.9-6.8-2.1-14-8.9-15.9c-1.2-0.3-2.3-0.5-3.5-0.5C40,76.6,37.8,77.2,35.9,78.3"/>
	</defs>
	<use xlink:href="#SVGID_1_"  style="overflow:visible;fill:#FFFFFF;"/>
	<clipPath id="SVGID_00000103956140829373601890000001388788531121461907_">
		<use xlink:href="#SVGID_1_"  style="overflow:visible;"/>
	</clipPath>
	
		<rect x="-15" y="69.2" transform="matrix(0.9748 -0.2232 0.2232 0.9748 -39.501 16.4451)" style="clip-path:url(#SVGID_00000103956140829373601890000001388788531121461907_);fill:#FFFFFF;" width="135.9" height="227.5"/>
</g>
<g>
	<defs>
		<path id="SVGID_00000036242756981246248250000003097779029094195602_" d="M299.5,76.1c3,1.7,5.2,4.4,6.1,7.7c0,0,0,0,0,0
			l19.4,62.8c0.8,2.4,1.2,5,1.2,7.5l1.3,47.7c0.2,8.5-2,16.8-6.5,24L287.7,280c-2.9,4.7-8.5,7-13.9,5.8l-14-3.3
			c-7.3-1.7-13.5-6.2-17.5-12.6c-4-6.4-5.2-13.9-3.5-21.2l7.9-33.5c1-4.4,3.1-8.5,6-11.9l30.4-35.4c4.8-6.4,11.9-7.7,18.1-3.3
			c5.8,4.1,7.2,12.1,3.1,18l-31.4,39.8c-0.8,1-0.6,2.5,0.4,3.3c1,0.8,2.5,0.6,3.3-0.4l31.5-39.9c5.7-8,3.7-19-4.2-24.6
			c-2.8-2-5.9-3-8.9-3.3l-14.2-66.5l0,0c0,0,0,0,0,0c-1.9-6.8,2.1-14,8.9-15.9c1.2-0.3,2.3-0.5,3.5-0.5
			C295.4,74.4,297.6,75,299.5,76.1"/>
	</defs>
	<use xlink:href="#SVGID_00000036242756981246248250000003097779029094195602_"  style="overflow:visible;fill:#FFFFFF;"/>
	<clipPath id="SVGID_00000041290323364170025440000014168617001389756605_">
		<use xlink:href="#SVGID_00000036242756981246248250000003097779029094195602_"  style="overflow:visible;"/>
	</clipPath>
	
		<rect x="168.7" y="112.8" transform="matrix(0.2232 -0.9748 0.9748 0.2232 43.2117 415.7113)" style="clip-path:url(#SVGID_00000041290323364170025440000014168617001389756605_);fill:#FFFFFF;" width="227.5" height="135.9"/>
</g>
<g>
	<path class="st2" d="M156.2,61.1c-17.6,0.5-33.8,2.7-39.2,5.2c-3.1,1.4-6.5,4.7-7.7,7.4c-1,2.2-3.2,7.9-6.5,16.8
		c-1.9,5.1-3.6,9.7-3.8,10.1l-0.3,0.8l-6.7,0.1c-3.8,0.1-7.1,0.2-7.6,0.3c-1.7,0.4-3.2,1.2-4.9,2.9c-1.9,1.9-2.5,2.8-3,4.8
		c-0.3,1.2-0.4,1.9-0.3,3.7c0.1,2.1,0.1,2.2,0.9,3.7c0.9,1.8,2.6,3.8,4.2,4.7c1.7,1,3.1,1.4,6,1.6c1.5,0.1,2.7,0.2,2.8,0.3
		c0.2,0.2,0,1-1.8,5.8c-1.5,4.3-2.2,6.7-2.5,9.3c-0.2,1.2-0.2,9.4-0.3,30l-0.1,28.3l0.9,1.7c1.5,3.1,3.3,5.2,5.7,6.7
		c4.7,3.1,11.3,3,15.9-0.2c1.4-0.9,3.3-2.8,4.1-4.1c1.8-2.8,2.4-5.2,2.5-11.1l0.1-4.4H166h51.2l0.1,4.2c0.1,4.6,0.3,5.9,1,8
		c0.7,2.1,1.8,3.7,3.5,5.5c4.6,4.5,10.9,5.5,16.6,2.7c3.3-1.7,5.7-4.2,7.4-7.8l0.6-1.4l-0.1-28.3c-0.1-20.7-0.1-28.8-0.3-30
		c-0.4-2.8-0.9-4.8-2.6-9.4c-1.8-5.1-2-5.6-1.6-5.8c0.1,0,1.4-0.2,2.8-0.3c4-0.3,5.9-1.1,8.2-3.5c2-2.2,2.9-4.3,2.9-7.2
		c0-3.5-0.8-5.4-3.2-7.8c-3.1-3.1-3.7-3.2-12.7-3.4l-6.7-0.1l-2-5.5C225,79,223,73.9,221.9,72.3c-1.9-2.7-4.4-4.9-6.9-6
		c-5.2-2.4-18.5-4.3-35.1-5C173.6,61,161.9,60.9,156.2,61.1L156.2,61.1z M213.4,95.2c2.9,8.7,5.3,16.1,5.4,16.4
		c0.1,0.4,0,0.5-0.3,0.6c-1.5,0.4-105,0.3-105.3-0.1c-0.1-0.1,0-0.4,0.1-0.8c0.4-1.2,10.3-31.2,10.5-31.7l0.2-0.4l42.2,0l42.2,0
		L213.4,95.2L213.4,95.2z M223,134.6c5.1,0.9,8.9,5.5,8.9,11c0,3-0.9,5.1-3.3,7.4c-2.4,2.4-4.2,3.1-7.6,3.1c-4.4,0-7.8-2-9.7-5.8
		c-3.1-6.2,0.1-13.6,6.7-15.5C219.8,134.3,221,134.2,223,134.6L223,134.6z M113.7,134.8c2.9,0.7,5.5,2.8,6.9,5.5
		c2.2,4.4,1.4,9.6-2.1,12.9c-2.2,2-4.5,3-7.6,3c-3.2,0-5-0.7-7.2-2.7c-2.5-2.3-3.5-4.4-3.6-7.6c-0.1-2.1,0.2-3.4,0.9-5.2
		c1.2-2.7,4-5.1,6.9-5.9C109.2,134.5,112.3,134.5,113.7,134.8L113.7,134.8z"/>
</g>
</svg>
